<?xml version="1.0" encoding="UTF-8"?>
<svg id="Layer_2" data-name="Layer 2" xmlns="http://www.w3.org/2000/svg" viewBox="0 0 540 540">
  <defs>
    <style>
      .cls-1 {
        fill: #fefefe;
      }

      .cls-2 {
        fill: #ec1c24;
      }
    </style>
  </defs>
  <g id="Layer_1-2" data-name="Layer 1">
    <g>
      <rect class="cls-1" y="0" width="540" height="540"/>
      <g id="m6WtDJ.tif">
        <path class="cls-2" d="M217.23,419c4.71,4.29,13.64,1.86,19.01.24,36.18-10.88,92.68-57.47,117.23-86.4,23.11-27.22,51.05-77.52,30.31-112.49-18.48-31.16-60.14-10.54-83.59,2.64-18.01,10.12-37.3,22.24-54.48,33.76-24.5,16.42-65.55,54.22-93.96,56.87-34.66,3.23-55.82-26.58-46.38-59.21,19.52-67.44,136.86-138.06,203.35-145.84,95.95-11.23,151.74,57.91,118.49,149.44-22.03,60.65-74.11,107.3-126.86,141.63-28.12,18.3-93.92,56.69-115.91,12.56-8.36-16.78-3.18-31.22,3.55-47.25,10.97-26.14,32.28-54.19,64.06-51.3,10.58.96,22.67,7.88,21.51,19.98-1.33,13.87-34.56,40.8-44.47,52.82-5.18,6.28-20.19,24.98-11.86,32.56Z"/>
      </g>
    </g>
  </g>
</svg>