<?xml version="1.0" encoding="UTF-8"?>
<svg id="Layer_2" data-name="Layer 2" xmlns="http://www.w3.org/2000/svg" viewBox="0 0 540 540">
  <defs>
    <style>
      .cls-1 {
        fill: #f37e26;
      }

      .cls-2 {
        fill: #fff;
      }

      .cls-3 {
        fill: #fefefe;
      }

      .cls-4 {
        fill: #221d71;
      }
    </style>
  </defs>
  <g id="Layer_1-2" data-name="Layer 1">
    <g>
      <rect class="cls-3" width="540" height="540"/>
      <g>
        <path class="cls-4" d="M250.15,109.19c124.2-11.53,222.31,102.69,174.3,222.29-47.26,117.75-214.03,134.87-289.51,34.16-75.56-100.82-8.3-244.99,115.21-256.46ZM257.01,112.62c-123.17,10.23-193.13,147.92-116.92,249.6,69.41,92.61,217.86,81.79,272.43-20.39,59.62-111.62-32.87-239.4-155.51-229.21Z"/>
        <path class="cls-1" d="M344.18,136.87c89.04,45.29,109.36,167.76,34.7,239.89-46.81,45.23-133.7,58.33-189.05,21.36-11.58-7.73-22.62-16.48-33.65-28.08-117.75-123.8,32.15-312.46,188-233.18ZM359.65,153.83c-78.7-58.91-200.17-22.22-229.63,71.78-47.31,150.98,148.27,251.35,252.51,134.17,54.53-61.3,43.45-156.29-22.89-205.95Z"/>
        <path class="cls-4" d="M373.32,174.41c69.55,70.99,38.79,189.76-53.36,222.28-100.41,35.44-208.46-44.92-188.68-152.69,20.46-111.51,163.72-149.55,242.05-69.59ZM296.75,168.66c1.22-5.93,7.32-10.07,10.31-14.57,3.6-5.43-3.32-2.94-5.14-3.67-16.41-6.64-21.96-11.62-41.19-6.66-47.81,12.34-36.97,81.29,14.54,79.82,11.7-.33,17.38-5.92,26.22-8.26,1.56-.41,9.8,2.63,6.45-3.81-.95-1.83-10.52-13.05-12.04-13.69-4.48-1.9-.97,5.16-3.56,7.04-4.54,3.29-19.8,4.03-25.46,3.13-28.11-4.47-28.69-43.92-2.72-50.52,6.82-1.73,22.45-1.82,27.51,3.45,3.24,3.38-.7,9.02,5.08,7.73ZM275.35,228.67c-14.02-1.71-31.05,1.26-45.42,0,.19,3.92,3.01,4.83,3.52,9.33,1.62,14.31,1.18,45.44,0,60.19-.21,2.59-5.29,9.33-.96,9.33h39.42c1.63,0,12.1-3.35,14.55-4.3,19.55-7.6,25.31-26.24,22.2-46.17-2.28-14.62-19.32-26.67-33.33-28.38ZM248.78,388.08c-1.47-2.36,1.09-24.16,0-29.14h41.14v29.14c0,.39-7.66,1.41-3.43,5.13.77.68,19.81.68,20.58,0,3.04-2.71-3.3-5.26-3.57-7.59-.78-6.91-.89-62.81.67-65.7.18-.34,7.8-4.83,1.95-5.57-2.56-.32-18.89-.62-19.63.03-4.23,3.72,3.43,4.75,3.43,5.13v25.71h-41.14v-25.71c0-.39,7.66-1.41,3.43-5.13-.77-.68-19.81-.68-20.58,0-3.04,2.71,3.3,5.26,3.57,7.59.79,6.92,1.09,62.93-.64,65.73-.21.35-7.53,2.88-.06,5.23,1.9.6,17.05.87,17.71.28,4.09-3.61-3.23-4.8-3.43-5.13Z"/>
        <path class="cls-2" d="M296.75,168.66c-5.78,1.29-1.84-4.35-5.08-7.73-5.06-5.27-20.68-5.19-27.51-3.45-25.97,6.6-25.39,46.05,2.72,50.52,5.66.9,20.92.16,25.46-3.13,2.59-1.88-.92-8.94,3.56-7.04,1.51.64,11.09,11.86,12.04,13.69,3.35,6.44-4.88,3.39-6.45,3.81-8.84,2.34-14.53,7.93-26.22,8.26-51.51,1.47-62.36-67.48-14.54-79.82,19.23-4.96,24.78.02,41.19,6.66,1.82.74,8.75-1.75,5.14,3.67-2.99,4.5-9.09,8.64-10.31,14.57Z"/>
        <path class="cls-4" d="M247.07,292.09c1.73-7.86-2.57-46.19,1.61-48.96,4.77-3.17,28.79-.15,34.85,3.08,12.51,6.66,16.2,27.99,6.27,38.04-1.14,1.16-11.98,7.84-12.73,7.84h-30Z"/>
        <path class="cls-2" d="M308.68,257.05c-2.28-14.62-19.32-26.67-33.33-28.38-14.02-1.71-31.05,1.26-45.42,0,.19,3.92,3.01,4.83,3.52,9.33,1.62,14.31,1.18,45.44,0,60.19-.21,2.59-5.29,9.33-.96,9.33h39.42c1.63,0,12.1-3.34,14.55-4.3,19.55-7.6,25.31-26.24,22.2-46.17ZM289.79,284.25c-1.14,1.16-11.98,7.84-12.73,7.84h-29.07v-48.05c.2-.43.42-.74.68-.91,4.77-3.17,28.79-.15,34.85,3.08,12.51,6.66,16.2,27.99,6.27,38.04Z"/>
        <path class="cls-2" d="M252.22,393.21c-.78.68-19.81.68-20.58,0-3.04-2.71,3.3-5.26,3.56-7.59.21-1.85.39-7.22.5-14.14h13.08v16.59c0,.39,7.66,1.41,3.44,5.14Z"/>
      </g>
    </g>
  </g>
</svg>