<?xml version="1.0" encoding="UTF-8"?>
<svg id="Layer_2" data-name="Layer 2" xmlns="http://www.w3.org/2000/svg" viewBox="0 0 540 540">
  <defs>
    <style>
      .cls-1 {
        fill: #003da6;
      }

      .cls-2 {
        fill: #f32735;
      }

      .cls-3 {
        fill: #fff;
      }

      .cls-4 {
        fill: #fefefe;
      }

      .cls-5 {
        fill: #f5ea61;
      }
    </style>
  </defs>
  <g id="Layer_1-2" data-name="Layer 1">
    <g>
      <rect class="cls-4" y="0" width="540" height="540"/>
      <g>
        <path class="cls-3" d="M270,436.86c92.16,0,166.87-74.7,166.87-166.86s-74.71-166.86-166.87-166.86-166.87,74.7-166.87,166.86,74.71,166.86,166.87,166.86Z"/>
        <path class="cls-1" d="M236.66,236.65c0-4.04,3.25-7.29,7.26-7.29h54.36c4.06,0,7.28,3.24,7.28,7.29l-.17,44.03,74.61,107.25c31.55-29.43,51.27-71.36,51.27-117.9,0-89.05-72.19-161.26-161.25-161.26s-161.27,72.21-161.27,161.26c0,47.26,20.33,89.78,52.72,119.24l75.43-108.62-.25-43.99Z"/>
        <path class="cls-2" d="M268.93,281.31h-16.95l-57.31,128.74c23.56,13.47,50.84,21.18,79.95,21.18.67,0,1.28-.02,1.95-.02v-142.39c0-4.15-3.46-7.51-7.64-7.51Z"/>
        <path class="cls-5" d="M307.48,236.65c0-4.04-3.22-7.29-7.27-7.29h-54.36c-4.01,0-7.26,3.24-7.26,7.29l.22,36.2h68.51l.16-36.2Z"/>
        <path class="cls-5" d="M381.93,387.93l-74.57-110.94h-68.6l-75.36,112.28c8.69,7.93,18.29,14.91,28.59,20.8l57.31-128.74h16.95c4.18,0,7.64,3.36,7.64,7.51v142.4c41.72-.49,79.65-16.84,108.04-43.31Z"/>
        <path class="cls-1" d="M307.32,276.91v-4.06h-68.51l.02,4.06-.07.07h68.6l-.05-.07Z"/>
        <path class="cls-2" d="M278.54,234.41h-6.53v33.38h6.53v-33.38Z"/>
        <path class="cls-2" d="M288.25,243.03h-25.97v6.53h25.97v-6.53Z"/>
      </g>
    </g>
  </g>
</svg>