<?xml version="1.0" encoding="UTF-8"?>
<svg id="Layer_2" data-name="Layer 2" xmlns="http://www.w3.org/2000/svg" viewBox="0 0 540 540">
  <defs>
    <style>
      .cls-1 {
        fill: #6e6f72;
      }

      .cls-2 {
        fill: #817668;
      }

      .cls-3 {
        fill: #094fa2;
      }

      .cls-4 {
        fill: #fefefe;
      }

      .cls-5 {
        fill: #929497;
      }

      .cls-6 {
        fill: #ba9532;
      }
    </style>
  </defs>
  <g id="Layer_2-2" data-name="Layer 2">
    <g>
      <rect class="cls-4" width="540" height="540"/>
      <g>
        <path class="cls-5" d="M149.3,103.2l-25.37,20.25c-6.91,78.22-13.82,156.43-20.73,234.65,7.53-3.53,15.07-7.07,22.6-10.6,7.83-81.43,15.67-162.87,23.5-244.3Z"/>
        <path class="cls-2" d="M188.3,157.9c4.33-3.8,8.67-7.6,13-11.4-.52,9.73-1.05,19.47-1.57,29.2-9.74,6.8-19.48,13.6-29.23,20.4,5.93-12.73,11.87-25.47,17.8-38.2Z"/>
        <path class="cls-2" d="M203.8,235.2c-7.1,5.57-14.2,11.13-21.3,16.7-6.59.18-13.19.36-19.78.55l15.53-30.2c8.52,4.32,17.04,8.63,25.56,12.95Z"/>
        <path class="cls-5" d="M224.5,132.3c-3.53,62-7.07,124-10.6,186-9.23,5.4-18.47,10.8-27.7,16.2,3.3-61.8,6.6-123.6,9.9-185.4,9.47-5.6,18.93-11.2,28.4-16.8Z"/>
        <path class="cls-5" d="M350.9,388.1c-2.9-66.53-5.8-133.05-8.7-199.58,6.5-1.54,13-3.08,19.5-4.62,3.07,60.58,6.13,121.17,9.2,181.75-6.67,7.48-13.33,14.97-20,22.45Z"/>
        <path class="cls-1" d="M350.9,388.1c6.73,5.49,14.89,13.2,22.75,23.57,6.8,8.98,11.59,17.57,14.95,24.72,6.23-8.87,12.47-17.73,18.7-26.6-12.13-14.71-24.26-29.43-36.4-44.15-6.67,7.48-13.33,14.97-20,22.45Z"/>
        <path class="cls-1" d="M297.03,350.7c12.46,8.43,24.91,16.87,37.37,25.3,9.4-5.14,18.8-10.27,28.19-15.41-13.15-7.6-26.29-15.19-39.44-22.79-8.71,4.3-17.41,8.6-26.12,12.9Z"/>
        <path class="cls-1" d="M186.2,334.5c12.83-1.45,29.63-2,48.9,1.01,11.92,1.86,22.36,4.7,31.1,7.7,14.67-3.9,29.33-7.8,44-11.7-11.31-5.02-27.6-10.81-47.9-13.51-19.64-2.61-36.38-1.45-48.4.31-9.23,5.4-18.47,10.8-27.7,16.2Z"/>
        <path class="cls-1" d="M125.8,347.5c7.12-3.22,16.01-6.49,26.5-8.8,6.57-1.44,12.66-2.26,18.1-2.7.87-2.83,1.73-5.67,2.6-8.5-5.48-.04-14.85.59-25.4,5-10.84,4.53-17.99,11-21.8,15Z"/>
        <path class="cls-5" d="M314.98,170.01c-7.31,4.81-14.62,9.62-21.93,14.43,1.33,55.42,2.65,110.84,3.98,166.26h0c8.71-4.3,17.41-8.6,26.12-12.9-2.73-55.93-5.45-111.86-8.18-167.79Z"/>
        <path class="cls-3" d="M313,190.7c-.5-5.57-1.84-11.17-5.2-16.5-4.44-7.03-10.68-10.87-14.5-12.8-22.93-9.7-45.87-19.4-68.8-29.1-3.53,62-7.07,124-10.6,186,12.03-1.75,28.76-2.92,48.4-.31,20.29,2.71,36.59,8.49,47.9,13.51,3.27-72.54,4.11-126.26,2.8-140.8ZM271.53,293.95c-1.34-.97-4.19-2.76-8.2-3.15-2.36-.23-4.33.1-5.68.45,1.02-39.12,2.03-78.23,3.05-117.35,1.23-.13,3.62-.2,6.3.9,3.67,1.51,5.56,4.27,6.2,5.3-.55,37.95-1.11,75.9-1.67,113.85Z"/>
        <path class="cls-3" d="M149.3,103.2c22,8.83,44,17.67,66,26.5l-4.1,34.4c-7.63-2.07-15.26-4.14-22.9-6.2-1.23,11.13-2.47,22.27-3.7,33.4,7.9,1.1,15.8,2.2,23.7,3.3-1.5,13.53-3,27.07-4.5,40.6-7.9-.03-15.8-.07-23.7-.1-2.37,30.8-4.73,61.6-7.1,92.4-5.48-.04-14.85.59-25.4,5-10.84,4.53-17.99,11-21.8,15,7.83-81.43,15.67-162.87,23.5-244.3Z"/>
        <path class="cls-3" d="M314.98,170.01c12.51,3.8,25.02,7.59,37.52,11.39,1,20.03,2,40.07,3,60.1,3.23,1.4,6.47,2.8,9.7,4.2-1.17-20.6-2.33-41.2-3.5-61.8,11.67,4.43,23.33,8.87,35,13.3,3.53,70.87,7.07,141.73,10.6,212.6-12.13-14.71-24.26-29.43-36.4-44.15-1.3-27.02-2.6-54.03-3.9-81.05-3.02-1.16-6.04-2.33-9.06-3.49,1.55,26.49,3.1,52.99,4.65,79.48-13.15-7.6-26.29-15.19-39.44-22.79-2.73-55.93-5.45-111.86-8.18-167.79Z"/>
      </g>
      <path class="cls-6" d="M231.6,263.8c-.71,1.21,6.38,6.72,13.4,11.8-6.57-2.67-13.13-5.33-19.7-8l12.9,10.16c-3.25-.5-6.5-1-9.75-1.51,2.18,1.32,4.37,2.63,6.55,3.95-3.2-.37-6.4-.73-9.6-1.1,0,.67,0,1.33,0,2,9.1,4.73,18.2,9.47,27.3,14.2,2.67.57,5.33,1.13,8,1.7,3.94,4.19,9.09,9.23,15.5,14.49,1.76,1.45,8.48,6.9,18.2,13.01,5.94,3.73,13.64,8.09,23,12.3-.31.91-.63,1.83-.94,2.74-6.45.29-12.9.57-19.36.86-1.67.8-3.34,1.59-5,2.39-3.84-1.64-9.87-3.56-17.3-3.29-2.61.1-4.96.45-7,.9.37,1.53.73,3.07,1.1,4.6,1.37.46,2.73.93,4.1,1.39-.9.9-1.8,1.8-2.7,2.7,1.7.44,3.4.87,5.1,1.31-1.73.6-3.47,1.19-5.2,1.79,1.3.64,2.6,1.27,3.9,1.91.43,1.1.87,2.2,1.3,3.3,1.53-.27,3.06-.54,4.6-.81,1-.6,2-1.19,3-1.79-.38.77-.74,1.84-.3,2.69.92,1.79,4.74,1.41,5.8,1.3,3.38-.34,3.96-1.63,6.35-1.49,2.17.13,2.9,1.27,5.15,2.39,3.4,1.71,7.86,2.17,11.2,1.11,6.41-2.04,8.64-9.67,8.9-10.6,3.8-.65,4.69-.42,4.8-.1.2.6-2.33,1.31-3.1,3.6-.48,1.44-.28,3.56.9,4.4,1.81,1.29,4.66-1.29,6.2,0,1.08.9-.03,2.42.9,3.6,1.93,2.44,8.51-1.86,12.3.9,1.24.9,1.81,2.29,2.09,3.39,3.77.45,6.61-.02,8.5-.52,3.04-.81,5.15-2.14,8.46-1.62,1.13.18,2.34.38,3.15,1.35,1.3,1.54.25,3.36,1.3,5.3.49.9,1.55,2.02,4.1,2.7.52-.71,1.06-1.72.8-2.7-.44-1.63-2.83-2.07-2.7-2.6.11-.46,2.03-.83,3.5,0,1.36.76,1.36,2,2.7,2.6,1.05.47,2.31.49,2.5.1.19-.41-.89-1.1-2.08-3.17-.46-.8-.53-1.1-.41-1.32.28-.51,1.56-.56,2.52-.11,1.65.77,1.8,2.77,2.43,2.69.51-.06.94-1.43.79-2.69-.24-2-1.89-3.29-2.59-3.84-4.44-3.46-13.47-1.6-14.65-1.35-.21.05-.54.1-.9,0-.74-.2-1.02-.85-1.66-1.66-1.09-1.37-1.53-1.02-1.9-1.84-.49-1.08.3-1.58.14-3.5-.06-.76-.16-1.95-.98-2.8-.99-1.03-2.04-.49-2.6-1.3-.76-1.09.08-3.6,1.7-4.9,1.52-1.22,2.91-.74,3.6-2,.59-1.08-.11-2.02.54-2.6.74-.66,1.8.4,3.15,0,1.75-.53,1.3-2.74,3.31-4.19,1.38-1,2.98-.96,5.4-.9,1.98.05,3.24.08,4.4.9,2.04,1.44,1.91,3.98,2.6,3.95.77-.03,1.56-3.14,1.41-6.25-.11-2.21-.28-5.7-3.02-7.81-.31-.24-2.67-2-5.29-1.39-2.76.63-3.6,3.38-4.6,3-1.03-.39-1.36-3.82.19-5.21,1.06-.95,2.67-.64,3.91-.49,3.17.38,2.65-.43,11-1.28,1.56-.16,14.15-1.41,22.9-.42,1.22.14,3.33.35,7.55.77,3.35.33,3.64.35,4.15.33,3.25-.16,5.05-1.56,8.42-3.34,6.41-3.39,10.23-3.77,10.08-4.56-.19-1.03-6.81-.64-9.3-.49-4.84.29-8.23.91-9.94,1.18-4.16.66-9.99.39-21.46-.19-5.21-.26-11.2-.64-16.76-.99-11.76-.74-13.61-.94-16.84.19-1.84.65-6.61,2.59-11.6,6.2-2.62,1.9-4.36,3.57-7.36,3.95-1.46.18-3.59.11-6.84-1.45-8.62-4.14-8.59-10.82-17.7-16.7-2.34-1.51-4.59-2.52-7-3.6-8.04-3.61-9.51-2.54-12.4-5.3-2.14-2.05-3.04-4.28-6.18-5.3-1.38-.45-2.49-.44-3.07-.45-4.17-.09-7.97-2.17-12.85-4.85-5.4-2.96-13.84-9.16-23-18.6-1.08-.49-1.31-.47-1.35-.4-.22.35,4.04,2.56,6.2,7.07.47.97,1.14,2.43.54,3.23-.85,1.13-3.69.31-4.57.05-7.42-2.15-8.63-8.18-16.81-11.75-2.26-.99-5.66-2.05-6.1-1.3Z"/>
    </g>
  </g>
</svg>