<?xml version="1.0" encoding="UTF-8"?>
<svg id="Layer_2" data-name="Layer 2" xmlns="http://www.w3.org/2000/svg" viewBox="0 0 540 540">
  <defs>
    <style>
      .cls-1 {
        fill: #2e3192;
      }

      .cls-2 {
        fill: #fefefe;
      }
    </style>
  </defs>
  <g id="Layer_1-2" data-name="Layer 1">
    <g>
      <rect class="cls-2" y="0" width="540" height="540"/>
      <path class="cls-1" d="M419.46,269.99c.27-.29.52-.58.79-.89,13.77-16.1,19.01-34.61,15.59-55.02-2.3-13.73-8.66-25.77-18.91-35.78-14.01-13.67-31.24-20.66-51.21-20.78-6.74-.03-14.01-.05-22.89-.05-3.3,0-9.02,0-11.56.01h-.05c-9.13.25-46.37,3.1-59.36,32.89-2.53,7.39-4.23,15.7-4.51,23.3-.03.72-.05,1.45-.05,2.16-.13.97-.17,2.27-.17,3.55,0,2.57.17,5.12.17,5.12.02,11.43.02,22.89.02,34.28v13.06h0c0,6.98,0,13.93,0,20.83,0,11.39,0,22.76,0,34.14,0,.52,0,1.07-.07,1.55-.47,2.99-2.04,4.84-4.8,5.62-2.76.79-5.03.02-7.08-2.43-.55-.67-.87-1.6-1.24-2.69l-.2-.59c-14.82-42.69-29.64-85.38-44.47-128.07l-.97-2.79c-.02-.07-.06-.16-.09-.24-2.38-6.75-6.74-14.24-8.69-17.01-9.62-12.92-22.93-20.1-39.65-21.41-8.04-.63-16.09.74-23.88,4.08-8.33,3.56-15.35,8.89-20.77,15.48,0,0-.02.03-.07.08-.34.44-.7.88-1.04,1.32-.13.16-.25.33-.39.52-3.2,4.44-10.46,16.34-10.74,33.43v5.69c-.01,37.36,0,74.72,0,112.08v51.06l46-.27v-20.98c0-49.57,0-99.14.02-148.7,0-.96.08-1.81.25-2.55.55-2.46,2.74-4.48,5.19-4.81.29-.04.57-.07.87-.07,2.5,0,4.74,1.34,5.61,3.33l.15.38c.35.79.68,1.55.94,2.3,14.02,39.72,28.05,79.46,42.05,119.19.46,1.27.88,2.57,1.31,3.85.9,2.72,1.84,5.53,2.98,8.24,1.82,4.31,3.99,8.54,6.05,12.46,3.59,6.82,7.61,11.79,12.68,15.63,8.5,6.44,18.09,10.17,28.51,11.1,5.61.49,11.44,0,17.35-1.48,19.39-4.83,40.25-23.02,40.23-51.53-.03-27.29-.02-55.06-.02-81.89,0-8.16,0-16.34,0-24.51,1.07-9.92,10.46-17.68,21.93-17.76h5.8c10.51,0,19.86.02,28.62.05,2.02,0,4.06.28,5.89.79,10.91,3.03,17.32,14.11,14.59,25.23-2.07,8.39-9.02,14.55-17.3,15.62h-24.32v47.31h5.68c5.13.04,10.21.1,15.1.19,1.54.03,2.92.07,4.19.3,5.95,1.07,10.98,4.46,14.13,9.57,3.15,5.1,3.96,11.16,2.27,17.02-2.49,8.61-10.38,14.76-19.19,14.95-2.06.05-4.29.06-6.96.06-1.86,0-3.73,0-5.58-.01-1.86,0-3.72-.02-5.58-.02h-3.57v46.79l2.71.16c.24,0,.42.03.62.03h3.63c1.66,0,3.31.01,4.98.01,1.4,0,2.79,0,4.2,0,4.74-.05,8.94-.39,12.85-1.07,14-2.42,26.19-8.24,36.23-17.28,13.19-11.89,20.71-26.6,22.37-43.74.64-6.63.21-13.35-1.26-19.97-2.51-11.39-7.86-21.62-15.86-30.45"/>
    </g>
  </g>
</svg>