<?xml version="1.0" encoding="UTF-8"?>
<svg id="Layer_2" data-name="Layer 2" xmlns="http://www.w3.org/2000/svg" viewBox="0 0 540 540">
  <defs>
    <style>
      .cls-1 {
        fill: #2e247c;
      }

      .cls-2 {
        fill: #fefefe;
      }

      .cls-3 {
        fill: #e30625;
      }
    </style>
  </defs>
  <g id="Layer_1-2" data-name="Layer 1">
    <g>
      <rect class="cls-2" y="0" width="540" height="540"/>
      <g>
        <path class="cls-1" d="M239.9,108.19c122.16-16.62,223.85,84.62,190.6,206.64-36.3,133.2-216.35,160.61-297.23,50.33-70.17-95.68-10.93-240.96,106.63-256.96ZM276.96,127.24c-50.16,10.98-90.71,47.41-88.29,102.06,1.39,31.3,23.67,57.55,19.77,88.02-4.59,35.9-43.33,45.25-43.93,48.64-2.62,14.59,46.6,43.94,60.24,48.09,57.18,17.4,121.14-5.7,139.33-65.36,19.52-64.04-33.26-75.21-45.88-124.32-8.02-31.21-2.74-42.01,18.92-65.03-9.96-7.63-56.67,34.08-61.14,45.1-13.13,32.36,14.22,65.77,2.02,94.27-2.45,5.72-1.03,6.06-9.04,4.95,4.85-69.93-76.11-122.38,8-176.41Z"/>
        <path class="cls-3" d="M276.96,127.24c-84.11,54.03-3.15,106.48-8,176.41,8.01,1.11,6.59.77,9.04-4.95,12.2-28.5-15.15-61.91-2.02-94.27,4.47-11.03,51.18-52.73,61.14-45.1-21.66,23.02-26.94,33.82-18.92,65.03,12.61,49.11,65.4,60.28,45.88,124.32-18.19,59.67-82.15,82.76-139.33,65.36-13.64-4.15-62.86-33.49-60.24-48.09.61-3.38,39.34-12.74,43.93-48.64,3.9-30.47-18.39-56.72-19.77-88.02-2.42-54.65,38.13-91.07,88.29-102.06Z"/>
      </g>
    </g>
  </g>
</svg>