<?xml version="1.0" encoding="UTF-8"?>
<svg id="Layer_2" data-name="Layer 2" xmlns="http://www.w3.org/2000/svg" viewBox="0 0 540 540">
  <defs>
    <style>
      .cls-1 {
        fill: #ed9706;
      }

      .cls-2 {
        fill: #fcfbf9;
      }

      .cls-3 {
        fill: #e87707;
      }

      .cls-4 {
        fill: #efb206;
      }

      .cls-5 {
        fill: #ea8a05;
      }

      .cls-6 {
        fill: #2f2a1d;
      }

      .cls-7 {
        fill: #f0c507;
      }

      .cls-8 {
        fill: #2c5f2c;
      }

      .cls-9 {
        fill: #4da033;
      }

      .cls-10 {
        fill: #eb9005;
      }

      .cls-11 {
        fill: #f1b506;
      }

      .cls-12 {
        fill: #2d602b;
      }

      .cls-13 {
        fill: #e53015;
      }

      .cls-14 {
        fill: #eb8004;
      }

      .cls-15 {
        fill: #efab05;
      }

      .cls-16 {
        fill: #fdfdfc;
      }

      .cls-17 {
        fill: #ed9e08;
      }

      .cls-18 {
        fill: #2f612b;
      }

      .cls-19 {
        fill: #fcfbfa;
      }

      .cls-20 {
        fill: #209d3e;
      }

      .cls-21 {
        fill: #2e602a;
      }

      .cls-22 {
        fill: #f4cc0b;
      }

      .cls-23 {
        fill: #6a543b;
      }

      .cls-24 {
        fill: #4f9f33;
      }

      .cls-25 {
        fill: #fefefe;
      }

      .cls-26 {
        fill: #efa505;
      }

      .cls-27 {
        fill: #f2be07;
      }

      .cls-28 {
        fill: #ed8e0b;
      }

      .cls-29 {
        fill: #f8faf9;
      }
    </style>
  </defs>
  <g id="Layer_1-2" data-name="Layer 1">
    <g>
      <rect class="cls-25" y="0" width="540" height="540"/>
      <g>
        <path class="cls-16" d="M436.87,328.68v108.2H103.13V103.13h333.75v223.88l-5.41-.83c-5.69-2.85-13.23-1.27-19.97-1.66-.43,1.06-3.52,1.06-3.75.83-1.04-1.02,5.06-7.67,4.99-9.57,2.12-1.71,2.84-4.41,4.16-6.66.39-.66,3.41-3.69,2.5-4.58-.81-.8-4.15,1.03-5.41.83-5.11,2.57-12.39,5.54-17.06,9.16h-.83c5.43-12.32,10.16-24.17,11.65-37.04l.83-4.58c2.23-1.05,4.9-1.69,7.49-2.5s2.52-1.05,4.58-2.5c.19-.14.66.13.83,0,.69-.51,2.47-2.24,2.91-2.91.12-.18-.13-.62,0-.83.57-.93,2.3-3.43,2.5-4.16s-.17-1.75,0-2.5c.08-.33.78-.52.83-.83.14-.86-.02-1.97,0-2.91.03-1.19.13-2.6,0-3.75-.03-.3-.79-.52-.83-.83-.68-4.53-.47-5.17-2.5-9.57-3.15-6.83-5.23-9.14-10.82-14.15-2.52-2.26-5.29-5.24-8.32-6.66v-1.25c-1.38-2.76-2.21-5.71-3.33-8.74-.53-1.42-.98-2.99-1.66-4.58l-.83-.42c-.07-.26.07-.58,0-.83-.33-1.16-.82-.78-.83-.83-.08-.26.09-.6,0-.83-.63-1.66-1.21-2.35-1.66-3.33-.56-1.22-1-3.22-1.66-4.58-.71-1.45-1.93-2.98-2.5-4.58l3.33-5.41c-.12-1.07.18-2.33,0-3.33-.06-.31-.72-.49-.83-.83-.16-.5.15-1.14,0-1.66-.09-.31-3.93-4.09-4.58-4.58-4.08-3.07-10.52-5.83-15.4-7.49.14-1.01-1.4-1.4-1.66-1.66-60.4-62.01-156.08-56.08-208.9,12.07l-1.66,3.75c-2.13.3-5.13-.43-7.07,0-.28.06-4.55,2.2-4.99,2.5-5.17,3.46-13.25,12.07-15.4,17.89-.17.47.15,1.13,0,1.66-.1.34-.78.52-.83.83-.2,1.14-.2,4.68,0,5.83.15.85,1.25,3.25,1.66,4.99.13.57.82.37.83.42,1.13,3.01,1.81,6.65,4.16,9.57v1.25c-1.12-.18-3.4-.14-4.58,0-.31.04-.52.79-.83.83-4.48.59-8.97.76-13.32,1.66-.47.1-2.63,1.35-3.33,1.66-.53.24-2.15.6-2.5.83-.67.44-2.4,2.22-2.91,2.91-1.56,2.11-2.24,4.85-3.33,7.07-1.23,2.53-3.34,5.65-4.16,8.74-.44,1.67-.57,7.35-.83,7.91-.02.04-.69-.15-.83.42-.23.96-.22,7.31,0,8.32.07.3.69.48.83.83.67,1.69,1.23,3.57,2.91,4.58.18.11.58-.12.83,0,.34.16.51.7.83.83.45.18,1.13-.16,1.66,0,.34.1.51.76.83.83,1.96.46,2.97-.79,4.58-.83.27,0,.75-.07.83,0s.58,1.48,1.25,1.66c1.74.48,3.71-.53,4.58-2.08.22-.39-.16-1.09,0-1.25.11-.11,1.14.06,1.66,0l.83-3.33c.53-.07,1.27.13,1.66,0l4.58,1.66c2.83.3,5.2,1.57,7.91,2.5.14,1.75-.2,3.7,0,5.41.59,5.08,2.75,10.94,4.16,15.81,2.97,10.26,7.9,23.94,14.15,32.88l-.83.83c-8.56-6.65-18.09-12.22-27.88-17.48-.5-.27-6-3.6-6.24-3.33-1.05,1.19,5.69,9.18,5.83,11.24l1.66,1.66c.02,1.63,5.06,7.75,4.16,8.74-.17.19-1.91-1.43-2.91-.83-8.61-1.51-16.79-.13-24.97,1.66l-2.08,1.66,4.58.83c16.38,6.11,29.73,16.98,41.2,30.38,18.02,21.07,31.04,33.44,56.18,44.53,41.86,18.45,96.21,14.07,136.49-4.16,12.55-5.68,23.22-11.49,32.04-22.06,16.7-20,31.57-33.4,54.51-46.19,1.94-1.08,4.02-2.36,6.24-3.33Z"/>
        <path class="cls-22" d="M158.06,325.35c.08.06.6,1.44,1.25,1.66h1.25c32.97,47.77,87.82,70.04,144.4,57.43,33.49-7.47,63.11-27,82.81-56.18,1.52-2.25,6.12-11.46,7.49-12.07s1.45-1.5,1.66-1.66c4.67-3.61,11.95-6.58,17.06-9.16,1.26.2,4.59-1.63,5.41-.83.91.89-2.11,3.91-2.5,4.58-1.32,2.25-2.04,4.94-4.16,6.66.07,1.9-6.03,8.55-4.99,9.57.23.23,3.31.23,3.75-.83,6.75.39,14.29-1.19,19.97,1.66l5.41.83v1.66c-2.22.97-4.3,2.25-6.24,3.33-22.95,12.79-37.82,26.19-54.51,46.19-8.82,10.56-19.5,16.38-32.04,22.06-40.28,18.23-94.64,22.61-136.49,4.16-25.14-11.08-38.16-23.46-56.18-44.53-11.47-13.4-24.82-24.26-41.2-30.38l-4.58-.83,2.08-1.66c8.18-1.79,16.36-3.18,24.97-1.66,1-.6,2.74,1.02,2.91.83.9-.99-4.14-7.11-4.16-8.74l-1.66-1.66c-.13-2.05-6.88-10.04-5.83-11.24.24-.27,5.74,3.06,6.24,3.33,9.8,5.25,19.32,10.82,27.88,17.48ZM178.03,356.14c.04-.68-.03-1.39,0-2.08l-9.57-7.91c-3.37,2.47,1.08,3.92.42,6.24-.18.64-5.19,5.01-6.24,6.24-.8.94-1.71,1.31-1.25,2.91.26.9,1.93,1.55,2.91,1.25.48-.14,6.76-6.51,7.07-7.07.29-.52-.54-2.03,2.08-1.25.47.14,1.21,1.54,1.66,1.66.74.2,1.99-.09,2.91,0-.15,2.41-2.6,3.54-4.16,5.41-.14.16.14.67,0,.83-1.08,1.3-2.79,2.44-3.75,3.75-.23.31-1.25,1.96-1.25,2.08,0,.19,2.03,2.36,2.91,2.08,1.38-.43,3.73-6.03,6.24-6.66l-.83,3.75c.62,2.66-1.53,4.92-.83,7.49.34,1.27,2.56,1.43,3.75,1.25l9.57-11.24c.26-.72-.81-1.96-1.25-2.08-2.43-.69-4.63,3.43-6.24,4.99h-.83c.24-1.26-.61-2.79.83-3.75.04-2.35.56-7.12-2.08-7.91-.53-.16-1.4.07-2.08,0ZM366.96,358.64c-.59-.67-3.18,1.52-3.33,2.08-.19.7-.13,3.29,0,4.16.02.15,1.68,1.93.83,2.91-.23.26-5.03-3.17-6.24-2.5-1.88,1.32-2.54.38-2.08,3.33,3.83.99,9.3,2.92,11.65,6.24.12.17-.13.62,0,.83,1.65,2.61,4.95.83,4.16-1.66-.1-.31-.67-.48-.83-.83-.67-1.44-2.42-3.07-2.5-3.33-.67-2.35-.45-4.43-.83-6.66-.05-.32-.78-.52-.83-.83-.15-.95.22-3.49,0-3.75ZM190.52,375.28c.06.07,0,.56,0,.83-.02,1.58-1.12,2.16-.83,3.75-1.08.31-1.05,4.35-.83,4.58,1.2,1.22,6.3-1.75,7.07-3.33l2.91-1.25c-1.04.7-1.16,2.46-1.66,3.33-1.11,1.92-4.33,3.85-1.25,6.24l3.75-2.91c.26-1.69,2.35-2.93,2.5-4.99,1.2-1.37,3.79-4.23,3.33-5.83-.04-.14-1.94-2.04-2.08-2.08-3.54-.97-6.21,3.55-9.16,4.99l.42-3.75c1.25-.68.6-1.68.83-2.5.19-.67,1.37-1.38.83-3.33-.27-1-4.52-2.98-4.99-1.66-.77,2.13-1.95,2.5-3.33,4.16-.14.16.14.67,0,.83-1.1,1.33-3.42,2.91-4.16,4.16-.11.18.12.58,0,.83-.16.35-.74.52-.83.83-.39,1.29.73,3.32,2.08,2.91,1.24-.38,4.7-6.59,5.41-5.83ZM359.47,376.95c.28-2.25-1.92-3-3.75-2.5-.31.09-3.47,3.74-4.58.42-.68-2.04,4.56-2.73,4.99-4.16.22-.73-.77-1.94-1.25-2.08-2.04-.59-3.69,1.7-4.99,2.5-.2.12-.63-.12-.83,0-.76.46-2.74,1.52-2.91,2.08-.62,2.1,1.67,2.45,1.66,4.16,2.14,1.73,2.9,4.5,4.16,6.66.34.59,1.35,1.09,1.66,1.66.22.39-.16,1.09,0,1.25.91.91,4.19-1.61,5.41-1.66.61-1.33,3.48-1.94,3.75-2.91,1.44-5.24-2.63-1.73-4.99-.83-2.97,1.12-1.94.28-3.33-1.66l4.99-2.91ZM344.49,375.28c-.2-.2-2.53.13-3.33,0-1.16,1.99,3.2,7.62,2.5,8.32s-6.18-3.11-7.07-4.16c-2.09-.39-3.5.48-5.41.83l.83,2.91c2.07,3.1,3.49,6.76,4.99,9.99.16.34.69.5.83.83.19.45-.15,1.1,0,1.25.12.12,3.21.12,3.33,0,.94-.93-1.44-6-2.5-7.07l-.42-2.91c1.32.62,2.31,1.81,3.33,2.5.19.13.64-.13.83,0,1.37.94,1.44,1.64,3.33,2.5.36.16.53.76.83.83,1.88.44,2.88-.73,4.58-.83l-.83-2.91c-2.07-3.1-3.49-6.76-4.99-9.99-.16-.34-.69-.5-.83-.83-.19-.45.15-1.1,0-1.25ZM220.48,394.43c-.64,1.39-1.48,3.39-2.08,4.99-.33.88-.61,1.48-.42,2.5,1.36-.43,1.87,1.13,2.91.83,1.49-.43,1.02-2.42,1.25-2.91,1.3-2.88,4.42-7.55,4.99-9.99.19-.82-.12-1.99,0-2.91-1.35.46-1.71-.75-2.08-.83-3.79-.84-5.59,4.25-8.74,5.83.12-1.2-.19-2.6,0-3.75.05-.32.8-.53.83-.83.11-.9.19-5.22,0-5.41-.15-.15-.8.19-1.25,0-.36-.15-.53-.77-.83-.83-3.49-.73-2.44.39-2.91,1.25-.32.57-1.32,1.08-1.66,1.66-1.16,1.98-2.16,4.68-3.33,6.66-.54.91-1.88,2.04-2.5,3.33-.79,1.65,1.84,1.12,2.08,2.08.29.05.57.07.83,0,.8-.22,3.11-4.75,3.75-5.83h1.66c-.09,1.03-.56,3.39-.83,4.58-.07.31-1.31.84-.83,2.5.04.14,1.93,2.03,2.08,2.08.87.27,2.02-1.02,2.5-1.66,1.41-1.92,1.46-2.56,3.75-4.16l.83.83ZM322.43,383.61c-.3.07-.47.67-.83.83-.26.12-.65-.11-.83,0-.46.27-2.64,2.46-2.91,2.91-.11.18.12.57,0,.83-.16.36-.77.54-.83.83-.2.87-.17,4.05,0,4.99.05.31.72.49.83.83.16.5-.15,1.14,0,1.66.07.25,3.49,3.67,3.75,3.75.52.15,1.17-.16,1.66,0,.34.11.52.76.83.83,2.12.49,3.35-.68,4.99-1.66.21-.13.64.12.83,0,.43-.28,1.84-1.67,2.08-2.08.11-.18-.12-.57,0-.83.16-.36.77-.54.83-.83.21-.94.21-5.72,0-6.66-.07-.3-.67-.47-.83-.83-.12-.26.11-.65,0-.83-.27-.46-2.46-2.64-2.91-2.91-.18-.11-.57.12-.83,0-.36-.16-.54-.77-.83-.83-.8-.18-4.19-.18-4.99,0ZM312.86,387.77c-.11-.1-2.37-.11-2.91,0-.3.06-.47.68-.83.83-.45.19-1.1-.15-1.25,0s.19.8,0,1.25c-.15.36-.78.54-.83.83-.45,2.55.32,6.04,0,8.74l-1.66-2.08c-.22-2.35-2.44-4.24-3.33-5.83-.29-.53.58-1.99-2.08-1.25-.33.09-.5.74-.83.83-.61.17-1.91-.17-2.08,0-.19.19-.1,4.5,0,5.41.12,1.03,1.5,4.73,1.66,5.83.21,1.42-.64,4.87,1.25,5.41.99.29,2.65-.34,2.91-1.25.47-1.65-.79-2.25-.83-2.5-.24-1.37.16-3.13,0-4.58l4.16,5.41c-.27,2.61,1.56.39,3.33.42.14-1.75-.2-3.7,0-5.41.04-.31.79-.52.83-.83.18-1.44-.13-3.1,0-4.58,1.61-.16.58,1.88.83,2.91.12.49,1.52,2.8,1.66,3.33.19.71-.19,1.79,0,2.5.44,1.64,3.68,1.67,4.16,0,.45-1.57-1.25-2.54-.83-4.16-1.1-2.79-2.31-6.02-2.5-9.16-1.06-.43-.75-2-.83-2.08ZM233.38,390.26c-.32.07-.49.72-.83.83-.5.16-1.14-.15-1.66,0-1.52.44-3.16,3.94-3.75,5.41-.14.35-.77.53-.83.83-.18.81-.18,4.19,0,4.99.07.3.67.47.83.83.12.26-.11.65,0,.83.23.39,2.72,2.86,2.91,2.91.52.15,1.17-.16,1.66,0,.35.11.53.78.83.83.84.15,3.38.17,4.16,0,.3-.07.47-.67.83-.83.26-.12.65.11.83,0,1.96-1.17,2.96-3.42,3.75-5.41.14-.35.77-.53.83-.83.65-2.96-.4-4.39-1.66-6.66-.26-.47-.05-1.31-1.25-2.08-.17-.11-.57.12-.83,0-.34-.16-.51-.7-.83-.83-.45-.18-1.13.16-1.66,0-.71-.2-1.29-1.31-3.33-.83ZM289.56,396.09c.46-.46-.21-3.05-1.25-3.33-.71-.19-3.29-.13-4.16,0-.31.05-.52.79-.83.83-1.05.14-4.36-.22-4.58,0-.16.16-.11,3.78,0,4.58.25,1.85,1.42,5.64,1.66,7.49.14,1.05-.22,4.36,0,4.58.19.19,4.5.1,5.41,0,.3-.03.52-.79.83-.83,1.05-.14,4.36.22,4.58,0,.12-.12.12-3.21,0-3.33-.16-.16-3.93-.14-4.58,0-.31.07-.49.73-.83.83-1.99.6-2.64-3.6-2.08-4.16.33-.33,5.49.33,5.83,0,.12-.12.12-3.21,0-3.33-.28-.28-7.62.95-6.66-2.08.71-2.24,6.19-.78,6.66-1.25ZM243.78,410.24c.08.08,1.65-.23,2.08.83,3.56-.38,8.37,1.34,10.4-2.08.11-.18-.12-.58,0-.83.16-.35.74-.52.83-.83.54-1.78-1.96-3.92-1.66-4.99.13-.46,1.54-1.21,1.66-1.66.56-2.05-.26-4.32-2.08-5.41-.18-.11-.57.12-.83,0-.36-.16-.54-.77-.83-.83-1.18-.26-2.9.22-4.16,0-.24-.04-.84-1.31-2.5-.83-2,.57-1.02,5.15-1.25,7.07-.18,1.54-1.32,5.01-1.66,6.66-.11.55-.1,2.81,0,2.91ZM270.42,394.43c-.15-.15-4.01-.15-4.16,0-.25.25-.1,5.95,0,7.07.03.3.81.54.83.83.11,1.58-.31,8.43,0,8.74.34.34,8.85.2,9.57,0,1.26-.35,1.68-3.72,1.25-4.16-.84-.87-2.76.81-2.91.83-5.23.85-3.24-.55-3.75-3.75-.05-.32-.8-.53-.83-.83-.17-1.59.31-8.43,0-8.74ZM263.76,395.26c-.15-.15-4.01-.15-4.16,0-.22.22-.1,5.22,0,6.24.03.3.81.54.83.83.13,1.69-.34,9.23,0,9.57.15.15,4.01.15,4.16,0,.31-.31.1-7.4,0-8.74-.02-.3-.81-.53-.83-.83-.12-1.35.25-6.82,0-7.07Z"/>
        <path class="cls-21" d="M275.41,214.65c1.1,1.45,3.18,4.61,4.16,6.24.58.96,1.08,3.26,1.66,4.16,1,1.54,1.82,1.15,3.33,1.25,2.88.19,5.84-.16,8.74,0,.29.02.55.83.83.83h22.47c.28,0,.5.76.83.83.76.16,1.8-.19,2.5,0,.9.25,3.92,2,4.99,2.5,1.31.61,2.08,1.4,3.33,1.66l5.41,5.83c-.09,2.24,1.29,3.73.83,6.24-.06.32-.76.51-.83.83-.31,1.4-.59,6.57-.83,7.07-2.18,4.65-2.91,10.49-4.16,15.81-.65,2.79-2.76,14.6-3.33,15.81-3,6.37-4.11,15.21-5.83,22.47-3.38,14.25-6.64,28.52-9.99,42.86-1.47,6.31-3.69,12.82-4.99,19.14-.11.55-.1,2.81,0,2.91.74.75,3.41-1.24,4.58-.83,39.35-11.44,72.89-44.47,83.64-84.48l.83-4.58c2.13.14,2.17-.61,2.91-.83.9-.27,2.3-.27,3.33-.83.44-.79,2.82-3.42,2.91-3.75.18-.6-.18-1.9,0-2.08s1.47.17,2.08,0c1-.27,3.56-.75,3.75-.83l-.83,4.58c-1.49,12.86-6.22,24.71-11.65,37.04-.02.04-.69-.14-.83.42v1.25c-1.37.61-5.97,9.82-7.49,12.07-19.7,29.18-49.32,48.71-82.81,56.18-56.58,12.62-111.43-9.65-144.4-57.43-.47-.68-1.1-1.69-1.66-2.5-6.24-8.94-11.18-22.61-14.15-32.88-1.41-4.88-3.57-10.73-4.16-15.81-.2-1.71.14-3.66,0-5.41,3.21,1.1,6.18,1.9,9.57,3.33.59.25.37.81.42.83v1.25c.87,1.28,3.26,5.06,4.99,5.41l.83,4.58c10.13,34.82,33.97,62.53,67,77.82.94.43,4.13,3.3,3.75.42-.18-1.39-1.28-2.27-.83-4.16.89-3.74,2.64-7.17,4.16-10.4h.83c-.39,1.52-1.51,4.37-1.66,5.41-.27,1.86-.36,10.03,0,11.65.07.3.67.47.83.83.12.26-.11.65,0,.83.26.44,3.49,3.67,3.75,3.75,7.85,2.26,15.52,5.24,23.3,7.49,3.7,1.07,8.65,2.93,12.48,3.33,1.88.19,7.57.35,9.16,0,.3-.07.48-.69.83-.83,1.31-.52,2.95-.84,3.75-2.08.12-.18-.13-.6,0-.83.3-.54,1.6-2.22,1.66-2.5.38-1.74.31-3.9.83-5.83,11.29-41.73,21.65-83.72,32.46-125.67.18-.71,1.59-3.63,1.66-4.16.17-1.17.23-4.8,0-5.83-.07-.3-.67-.47-.83-.83-.12-.26.11-.65,0-.83-.23-.39-1.69-1.85-2.08-2.08-.18-.11-.57.12-.83,0-.36-.16-.54-.77-.83-.83-.8-.18-4.19-.18-4.99,0-4.82,1.08-14.46-.29-19.97-.83-1.02-.1-6.02-.22-6.24,0-.75.74,1.24,3.41.83,4.58,2.53,5.01,4.32,10.79,5.83,15.81.23.78.23,2.83-1.25,2.08-.75-.38-1.53-2.03-2.08-2.91-2.54-4.05-5.15-8.74-8.32-12.48-.92-1.08-7.37-7.76-7.91-7.91-1.37-.38-3.82.26-5.41,0l8.32,9.57c3.63,6.26,8.01,12.83,10.82,19.97,1.28,3.25,1.8,6.76,2.5,9.99.23,1.05,1.18,2.92,1.66,4.99,1.83,7.8,3.58,16.72,4.16,24.97.09,1.34.3,8.42,0,8.74-.68.74-1.98-.81-2.5-1.25-5.65-4.7-10.6-11.41-16.23-16.23-5.17-4.44-12.36-8.96-18.31-12.48-1.63-.96-4.72-2.02-5.41-2.5s-.83-2.44-3.33-1.66c-.17-1.11-.68-.72-.83-.83-.04-.03.18-.51-.42-.83-.37-.2-1.23-.64-1.66-.83-11.29-5.09-22.29-7.37-34.12-9.16-3.66-.55-6.46-.57-10.4-.83-.67-2.59,1.48-3.07,2.5-4.58,2.25-3.36,4.57-8.16,6.66-11.24,3.17-4.68,7.23-9.86,10.82-14.98.64-.92,1.63-2.08,2.5-3.33,1.69-2.44,4.56-4.66,4.99-7.49,1.74-.27,3.4-5.5,4.58-5.83.57-.16,2.65-.12,3.33,0,5.66,1.03,16.56,5.95,21.64,9.16.78.49,2.36,2.29,3.33,2.5,1.74.37,4.34-.26,6.24,0-3.7-3.73-7.73-6.66-11.65-9.57-.46-1.6,4.74-6.79,5.83-8.32.11-.16.22-1.8,1.25-2.08.51-.14,2.82-.14,3.33,0s6.22,6.08,7.07,7.07c.56.65,1.94,2.17,2.5,2.91ZM245.86,228.8c-.31.05-.51.78-.83.83-1.02.18-2.36-.21-3.33,0-.28.06-1.96,1.37-2.5,1.66-1.7.94-4.05,1.95-5.41,3.75-.13.17.14.63,0,.83-.42.6-1.34,1.1-1.66,1.66-.27.47-.59,1.89-.83,2.5-.14.35-.77.53-.83.83-.25,1.15-.25,8,0,9.16.12.55,1.98,3.33,2.5,4.16.13.21-.12.65,0,.83.52.78,3.8,4.06,4.58,4.58.35.23,1.97.6,2.5.83.35.16.51.71.83.83.47.17,1.13-.15,1.66,0,.34.1.52.78.83.83,2.42.43,5.75-.31,8.32,0,3.33-1.96,7.33-3.7,9.57-7.07.54-.81,1.23-3.08,1.66-4.16.14-.35.77-.53.83-.83.25-1.15.25-7.99,0-9.16-.06-.29-1.39-1.96-1.66-2.5-.12-.23.11-.63,0-.83-.32-.56-1.25-1.07-1.66-1.66-.56-.8-.64-1.82-2.08-2.91-.17-.13-.64.14-.83,0-1.46-1.03-3.29-2.7-4.99-3.33-.47-.17-1.13.15-1.66,0-.34-.1-.52-.78-.83-.83-.94-.17-3.18-.15-4.16,0Z"/>
        <path class="cls-3" d="M356.97,165.55c.84-.69,2.21-.7,2.91-1.66,3.45.3,7.47-.42,10.82,0,.16.02,2.05.61,2.91.83.71.19.93.58,1.66.83,4.88,1.66,11.31,4.42,15.4,7.49.65.49,4.49,4.27,4.58,4.58.15.52-.16,1.17,0,1.66.11.34.78.53.83.83.18.99-.12,2.26,0,3.33l-3.33,5.41c-1.35-.63-4.99,3.33-4.16,4.16.08.08.92.02,2.08.83.82.57,2.1,1.36,2.5,1.66,1.27.97,2.2,2.74,3.75,3.33l.83,2.08.83.42c.09.23-.08.57,0,.83l.83.83c.07.26-.07.57,0,.83.53,1.96.89,3.35,1.66,4.99.2.42.1,4.83,0,5.83-1.56.26-9.63-.35-9.99,0-.22.22.66,1.01-.83,1.66.15-1.98.32-6.12,0-7.91-.05-.31-.72-.49-.83-.83-.16-.5.15-1.14,0-1.66-.11-.39-1.28-1.1-1.66-1.66-.14-.2.13-.66,0-.83-.54-.75-2.16-2.35-2.91-2.91-.34-.26-2-1.38-2.5-1.66-1.99-1.13-4.84-1.8-7.07-2.5l13.32-12.07c.37-1.35-.79-1.17-.83-1.25-.2-.42.18-1.49,0-2.08-.08-.25-3.18-3.32-3.75-3.75s-2.63-1.25-3.33-1.66c-3.79-2.23-9.62-5.29-13.32-5.83-1.16-.17-5.76-.25-6.66,0-1.81.5-2.23,3.31-2.08,4.99.19,2.08.79,1.57.83,1.66.29.66-.11,2.27,1.66,2.5-.13.89-1.13,1.08-.83,2.08-2.2,2.41-4.61,4.97-6.66,7.49-2.7,3.32-5.5,7.65-8.32,10.82-1.48,1.66-9.76,9.22-9.99,9.99-.14.48,0,1.42,0,2.08v1.66c-.85-.16-3.12.21-3.33,0-.16-.16.16-1.51,0-1.66.07-1.14,2.31-2.23,2.5-2.91.38-1.36-.8-1.17-.83-1.25-.12-.31-.04-1.17,0-1.66l.83-.42c1.48-2.69,3.28-6.29,4.99-8.74.55-.78,1.44-2.21,1.66-2.5.51-.66,2.47-1.77,3.33-2.91.4-.54,3.24-4.69,3.33-4.99.18-.59-.2-1.66,0-2.08.05-.1.65.4.83-1.66.13-1.48.28-4.99,0-6.24-.07-.3-.69-.48-.83-.83-.7-1.75-1.21-3.49-2.91-4.58-.19-.12-.62.13-.83,0-1.12-.67-3.11-2.11-4.16-2.5-.47-.17-1.13.15-1.66,0-.34-.1-.52-.78-.83-.83-1.22-.22-4.56-.19-5.83,0-.44.06-3.69,1.59-4.16,1.66-5.11.83-3.16-.42-3.75-2.91-.02-.1-.74-1.5-.83-1.66-.3-.51-3.24-3.44-3.75-3.75-.18-.11-.58.12-.83,0-.34-.16-.51-.7-.83-.83-.45-.18-1.13.15-1.66,0-.34-.1-.52-.78-.83-.83-1.45-.26-6.87-.26-8.32,0-.24.04-3.81,1.45-4.16,1.66-.86.52-4.14,3.76-5.41,2.5-.86-.85.81-2.76.83-2.91.23-1.27.16-4.2-1.25-4.58-1.18-.32-7.6-.19-9.16,0-.3.04-.51.78-.83.83-2.89.51-6.53.62-9.16,1.66-.33.13-.49.67-.83.83-.26.12-.67-.11-.83,0-1.53.97-2.08,3.36-2.08,4.99,0,2.61,1.02,3.64,3.33,4.99.02.04.69-.15.83.42.54,2.21-.77,3.62-.83,4.16-.54,4.37.51,9.09-.83,13.32l-3.33,3.75c-.02-.55.04-1.12,0-1.66-.12-1.76.51-3.04-1.25-4.16-.2-.13-.63.13-.83,0-3.02-1.91-1.82-7.28-2.08-10.4-.02-.3-.81-.54-.83-.83-.2-2.72.51-6.84,0-9.16-.07-.3-.69-.48-.83-.83-.79-1.99-1.78-4.24-3.75-5.41-.18-.11-.58.12-.83,0-.34-.16-.51-.7-.83-.83-.46-.18-1.15.17-1.66,0-.34-.11-.51-.74-.83-.83-.67-.19-1.73.15-2.5,0-.32-.06-.52-.79-.83-.83-1.23-.18-3.73-.16-4.99,0-.31.04-.51.78-.83.83-1.02.18-2.35-.2-3.33,0-.32.06-.5.75-.83.83-3.42.88-5.46,1.47-8.32,3.33s-3.72,2.92-5.41,5.41c-.39.57-1.55,1.28-1.66,1.66-.15.53.17,1.18,0,1.66-.29.85-.95.8-.83,2.91s.79,1.57.83,1.66c.2.42-.18,1.49,0,2.08.36,1.23,3.98,2.41,5.41,2.08.3-.07.47-.67.83-.83.26-.12.65.11.83,0,.39-.23,2.86-2.72,2.91-2.91.29-1.01.07-1.53.83-2.91.93-1.69,2.59-3.04,2.5-4.99,1.2.13,2.62-.2,3.75,0,.31.05.49.73.83.83.39.11.85-.07,1.25,0,.22,1.33-.61,1.86.83,2.5,1.2.53,1.06,3.92.83,4.16-.08.08-1.65-.23-2.08.83-2.28-.34-4.01.92-5.83,1.66-2.62,1.08-5.43,2.1-7.07,4.58-.12.18.13.61,0,.83-.32.54-1.61,2.23-1.66,2.5-.35,1.61.47,5.19,0,6.24-.02.04-.86-.11-.83.42,0,.17,1.33,2.09,1.66,2.91.24.59.43,2.25.83,2.91.35.58,2.29,2.46,2.91,2.91.17.13.63-.14.83,0,.57.39,1.28,1.55,1.66,1.66.52.15,1.17-.16,1.66,0,.34.11.53.78.83.83.76.14,2.57.14,3.33,0,.31-.06.49-.74.83-.83.53-.15,1.2.17,1.66,0,.35-.13,2.93-1.41,3.33-1.66,1.64-1.05,1.31-4.04,4.16-3.33,2.19,2.73,5.07,2.69,8.32,2.5,1.37-1.6,3.23-2,4.58-3.75,1.03-1.33.79-2.39,1.66-3.75h.83c.02.55-.05,1.12,0,1.66.07.68-.14,1.52,0,2.08s.81.38.83.42c.33.47.54,1.25,1.25,1.66.18.11.57-.12.83,0,.36.16.54.77.83.83,1.37.31,3.44-.19,4.99,0,.31.04.52.79.83.83,2.53.38,3.54-.51,4.99-.83.75-.17,1.81.19,2.5,0,.32-.09,2.79-1.68,2.91-2.08.15-.51-.05-1.4,0-2.08.07-1.09.22-5.36,0-5.83l.83-7.07c.58-2.45,1.87-5.19,2.5-7.49.17-.61-.17-1.91,0-2.08.15-.15.8.19,1.25,0,.35-.15.52-.75.83-.83.65-.18,3.62,1.29,3.75,2.5-.32.71-.42,5.54-.83,7.07-.15.56-1.5,2.75-1.66,3.33-.79,2.77-.3,5.99-3.75,7.91-.39.22-1.09-.16-1.25,0-.18.18-.06,4.06,0,4.99.24,3.64.78,2.82,3.75,4.16,2.47,1.12,3.21,1.14,5.83,1.66.32.06.52.79.83.83,2.14.31,7.86.12,8.74-2.08.17-.42-.12-.96,0-1.25.3-.72.74-1.03.83-1.66.11-.74.16-3.83,0-4.16.8-1.85,1.73-3.8,1.66-5.83.32-.72-.56-1.05.83-1.66s.63-1.15.83-2.5c.3-2.04.79-1.56.83-1.66l2.5-2.91c-.3-1.94.49-.93,1.25-1.25.89-.37.61-.72,2.5-.83,2.94-.18,1.32.36,2.91,1.66-.02,1.7-.7,1.65-.83,2.08-.96,3.12-1.7,4.53-3.33,7.49-.71,1.28-1.73,3.83-2.5,4.99-.95,1.43-5.59,4.96-5.83,5.83-.18.65-.02,2.06,0,2.91.02.68-.14,1.54,0,2.08s.81.38.83.42c1.15,1.61,2.74,3.86,4.58,4.16l4.58,2.5c-.1.04-.52,1.46-1.25,1.66-15.26.14-30.52-.19-45.78,0-1.64.02-3.39-.85-2.91,1.66-.56-.74-1.94-2.26-2.5-2.91-.85-1-6.59-6.94-7.07-7.07-.51-.14-2.82-.14-3.33,0-1.03.28-1.14,1.92-1.25,2.08-1.08,1.53-6.29,6.73-5.83,8.32,3.92,2.91,7.95,5.84,11.65,9.57-1.9-.26-4.5.37-6.24,0-.97-.21-2.55-2.01-3.33-2.5-5.08-3.2-15.98-8.12-21.64-9.16-.68-.12-2.76-.16-3.33,0-1.18.32-2.84,5.55-4.58,5.83-.53-.81-1.12-3.07-2.08-3.33-1.2-.33-2.71.03-4.16-.83-.42-.25-1.78-1.63-2.08-2.08-.22-.33.14-.95,0-1.25l6.24-.83c.99-1.29,2.91-2.48,3.75-3.75.22-.33-.14-.95,0-1.25.05-.1.57.38.83-1.66.07-.53-.1-1.18,0-1.66,2.19-.62,1.58-2.34,1.66-4.16.14-3,.49-4.87,0-7.07-.31-1.4.27-3.5,0-4.99-.06-.31-.75-.5-.83-.83-.44-1.75-.8-4.38-1.66-5.83-.91-1.53-3.49-3.78-4.16-4.99-.22-.39.16-1.09,0-1.25s-.85.22-1.25,0c-.83-.46-1.65-1.99-2.5-2.5-.95-.57-2.39-.57-3.33-.83-.34-.1-.52-.78-.83-.83-1.45-.26-6.87-.26-8.32,0-.31.05-.49.72-.83.83-.5.16-1.14-.15-1.66,0-.39.11-1.1,1.28-1.66,1.66-.2.14-.66-.13-.83,0-2.77,2.01-5.63,5.74-6.24,9.16-1.79.61-2.86-2.25-3.75-2.5-1.22-.34-3.17,1.8-4.16,2.5-3.94,2.77-5.43,5.37-7.91,9.57-2.29,3.9-3.65,5.65-3.33,10.4.05.68-.15,1.57,0,2.08.54,1.83,3.63,2.41,5.41,2.08.32-.06.51-.77.83-.83.68-.12,2.76-.16,3.33,0,1.08.3,5.03,5.75,6.66,6.66.65.36,1.65-.78,1.25,1.66l-.42.83c-2.12.21-4.62-.3-6.66,0-.24.04-1.4,1.47-2.91.83-.2-.16-.92.24-1.25,0-3.76-2.7-8.25-6.16-11.65-9.16-1.86-1.63-8.38-7.98-8.74-9.57-.41-1.84.46-4.96,0-6.66-.26-.95-3.59-2.38-4.58-2.08-.32.1-.48.69-.83.83-.55.22-2.15.6-2.5.83-4.26,2.82-6.93,6.62-9.57,10.4-1.68,2.41-1.69,2.13-2.5,4.99-.1.34-.77.52-.83.83-.18.96-.07,2.67,0,3.75.09,1.41-.1,2.05.83,3.33-.06.53.11,1.56,0,1.66-.51.51-5.43-.87-6.24.83h-1.25s-.7.15-.83-.42c-.41-1.75-1.51-4.14-1.66-4.99-.2-1.14-.2-4.68,0-5.83.06-.31.74-.49.83-.83.15-.53-.17-1.2,0-1.66,2.14-5.83,10.23-14.43,15.4-17.89.45-.3,4.72-2.44,4.99-2.5,1.94-.43,4.95.3,7.07,0,1.32,1.41,4.02,2.93,4.99,4.58.15.25-.11,1.24.83,1.66l.42,7.91c.88-.79,1.52-1.91,2.08-2.91,1.27-2.26,2.66-5.57,4.16-7.49,2.02-2.6,7.15-6.09,8.32-8.74,1.61-.18,3.07-1.07,4.58-1.66,2.07-.82,2.72-.44,4.16-.83.61-.17,7.14-6.91,9.16-7.49.55-.16,1.25.19,1.66,0,.52-.24,2.2-1.6,2.5-1.66.97-.21,2.32.19,3.33,0,.32-.06.51-.77.83-.83,2.78-.51,5.3,1.47,8.32.83,2,1.15,4.67,3.71,6.24,1.25,4.19-6.56,10.71-10.03,17.89-12.07,1.72-.49,2.36-.51,4.16-.83.32-.06.53-.79.83-.83,2.39-.29,8.5-.34,10.82,0,.31.05.51.76.83.83,2.81.61,4.86,1.05,7.49,2.5.59.33,2.71,2.5,3.33,2.5.29,0,1.12-1.36,1.66-1.66,5.34-2.99,11.49-3.4,17.48-4.16.31-.04.53-.8.83-.83,3.68-.4,7.02.31,9.99,1.66s2.95,3.17,7.49,2.5c.31-.05.53-.8.83-.83,1.68-.18,5.04-.24,6.66,0,.31.05.51.77.83.83.77.15,1.82-.19,2.5,0,.32.09.49.72.83.83,1.45.49,3.64.77,4.99,1.66,1.6,1.06,5.22,6.22,6.66,5.83.33-.09.51-.76.83-.83,4-.9,8.38.57,11.65,1.66,2.69.9,5.22,1.63,7.49,3.33.76.57,3.04,3.33,3.33,3.33.63,0,2.12-3.51,2.91-4.16Z"/>
        <path class="cls-12" d="M373.62,163.88v.83c-.86-.23-2.75-.81-2.91-.83-3.35-.42-7.37.3-10.82,0-.7.96-2.07.97-2.91,1.66-1.85-.87-3.02-2.92-4.58-4.16-7.13-5.68-17.28-11.85-25.8-15.81-12.39-5.76-22.61-8.31-35.79-9.99-6.92-.88-14.14-2.1-21.64-1.66-.29.02-.54.81-.83.83-6.72.45-12.83.35-19.14,1.66-16.71,3.49-39.49,13.98-53.27,25.8-1.78,1.53-9.6,8.96-10.4,10.4-.97,1.74-1.24,1.12-1.66,2.08-1.17,2.65-6.3,6.14-8.32,8.74-1.5,1.93-2.89,5.23-4.16,7.49-.56,1-1.2,2.13-2.08,2.91l-.42-7.91c-.94-.42-.68-1.41-.83-1.66-.98-1.64-3.68-3.17-4.99-4.58l1.66-3.75c52.82-68.15,148.5-74.08,208.9-12.07Z"/>
        <path class="cls-4" d="M411.07,267.09s-.15.69.42.83c.73.18,1.76-.17,2.5,0,.3.07.48.68.83.83.85.35,1.58-.76,1.25,1.66-2.59.81-5.26,1.45-7.49,2.5-.19.09-2.75.56-3.75.83-.61.17-1.91-.17-2.08,0s.18,1.48,0,2.08c-.1.33-2.47,2.95-2.91,3.75-1.03.56-2.43.56-3.33.83-.74.22-.78.97-2.91.83s-6.04-2.18-7.91-1.66c-.46.13-1.21,1.54-1.66,1.66-2.19.6-6.66.41-9.16.83-2.11.35-12.22,2.62-13.73,3.33-.64-2.13-2.11-1.58-3.75-1.66-10.52-.56-21.48.41-32.04,0,.57-1.22,2.67-13.02,3.33-15.81,1.78-.19,2.74.7,4.58.83,11.82.84,24.92-.14,36.2-.83.28-.02.56.01.83,0,.88,1.36.63,2.42,1.66,3.75,2.25,2.9,4.59,4.09,7.91,5.41.35.14.53.77.83.83,2.59.57,4.2.2,4.58-2.5.07-.53-.02-1.12,0-1.66l3.75-1.66c6.21-1.53,13.03-1.58,19.14-3.33.65-.19,1.47-2.37,2.91-1.66Z"/>
        <path class="cls-28" d="M141.41,224.64c1.42.23.63,1.46.83,1.66.33.33,8.14.2,9.16-.83l3.33,3.33v1.66c-.16.43.15,1.51,0,1.66-.2.21-2.35-.48-2.91.83-6.26.43-12.43,1.1-18.31,2.5-.92.22-3.15,1.33-4.16,1.66-.88.3-2.39.27-3.33.83-.26.16-2.81,2.34-2.91,2.5-2.03-.14-4.24.2-6.24,0-.3-.03-.53-.8-.83-.83-1.72-.19-3.65.13-5.41,0,1.09-2.22,1.77-4.96,3.33-7.07.51-.69,2.25-2.47,2.91-2.91.35-.23,1.97-.6,2.5-.83.7-.32,2.86-1.57,3.33-1.66,4.35-.9,8.84-1.07,13.32-1.66.31-.04.53-.8.83-.83,1.18-.14,3.46-.18,4.58,0Z"/>
        <path class="cls-14" d="M401.08,214.65c-.1,1.04-1.15,3.02-.83,3.33.15.15.8-.19,1.25,0,.36.15.53.77.83.83.86.18,2.37-.25,2.91,0,3.04,1.42,5.8,4.4,8.32,6.66.47,2.51-1.28,1.64-2.91,1.66-1.93.02-3.9-.12-5.83,0-1.82.11-2.89.37-4.58.83-.22-.15-.86.21-1.25,0-1.93-1.07-2.21-1.11-4.16-1.66-.34-.1-.52-.78-.83-.83-2.66-.48-5.83.69-7.07,3.33-.41-.41-3.35,1.05-2.5-1.66.82-.7,2.58-3.12,3.33-4.16.03-.04.64.16.83-.42.17-.52-.2-1.23,0-1.66.24-.53,1.56-2.12,1.66-2.5.15-.54-.05-1.4,0-2.08,1.49-.66.61-1.45.83-1.66.35-.35,8.43.26,9.99,0Z"/>
        <path class="cls-17" d="M123.1,240.45c-.15.22.21.86,0,1.25-2.72,4.92-4.07,9.28-4.99,14.56h-12.48c.26-.56.39-6.23.83-7.91.82-3.09,2.93-6.21,4.16-8.74,1.76.13,3.68-.19,5.41,0,.3.03.53.8.83.83,2,.2,4.21-.14,6.24,0Z"/>
        <path class="cls-28" d="M424.39,239.62h-12.9l-.42.83c-.73-1.48-8.98-11.24-10.82-12.48,1.69-.47,2.76-.72,4.58-.83,1.92-.12,3.89.02,5.83,0,1.64-.02,3.39.85,2.91-1.66,5.59,5.01,7.67,7.32,10.82,14.15Z"/>
        <path class="cls-1" d="M424.39,239.62c2.03,4.4,1.82,5.04,2.5,9.57.05.31.8.53.83.83.13,1.15.03,2.55,0,3.75h-13.32c-.07-.95.12-2,0-2.91-.04-.31-.77-.51-.83-.83-.19-1.01.21-2.36,0-3.33-.07-.3-1.49-2.03-1.66-2.5-.29-.76-.42-2.92-.83-3.75l.42-.83h12.9Z"/>
        <path class="cls-26" d="M427.72,253.77c-.02.94.14,2.05,0,2.91-.05.31-.76.5-.83.83-.17.74.19,1.8,0,2.5s-1.93,3.23-2.5,4.16c-.13.21.12.65,0,.83-.44.67-2.22,2.4-2.91,2.91-.17.13-.64-.14-.83,0-2.06,1.45-2.04,1.71-4.58,2.5.33-2.42-.4-1.31-1.25-1.66-.36-.15-.53-.76-.83-.83-.73-.17-1.77.18-2.5,0-.57-.14-.37-.81-.42-.83.17-.94,1.38-2.2,1.66-2.91.17-.41-.12-.94,0-1.25,1.15-3.1,1.47-2.91,1.66-6.66.04-.81.06-1.69,0-2.5h13.32Z"/>
        <path class="cls-15" d="M118.11,256.27c-.66,3.8-.83,6.64-.83,10.82v4.16c-1.61.04-2.62,1.29-4.58.83-.32-.07-.5-.74-.83-.83-.54-.16-1.21.18-1.66,0-.33-.13-.49-.67-.83-.83-.26-.12-.65.11-.83,0-1.69-1-2.24-2.88-2.91-4.58-.14-.35-.77-.53-.83-.83-.22-1.02-.23-7.36,0-8.32.14-.57.81-.37.83-.42h12.48Z"/>
        <path class="cls-15" d="M166.38,272.08v.83c-.81,0-.95.76-1.25.83-.96.22-3.02.79-3.33.83-1.28.19-10.73.24-11.24,0-.04-.02.17-.58-.42-.83-3.39-1.43-6.36-2.23-9.57-3.33-2.71-.93-5.07-2.2-7.91-2.5l-4.58-1.66c5.95-1.91,8.98-.19,14.56.83,8.16,1.49,15.98,2.61,23.72,4.99Z"/>
        <path class="cls-14" d="M145.57,212.99c.1,1.68-.48,1.88,1.66,1.66.08.25-.08.58,0,.83.28.88.5,1.56.83,2.5,1.31,3.71,2.86,4.76,3.33,7.49-1.02,1.03-8.82,1.16-9.16.83-.21-.21.59-1.44-.83-1.66v-1.25c-2.35-2.93-3.03-6.56-4.16-9.57h1.25c.81-1.7,5.74-.33,6.24-.83.11-.11-.06-1.13,0-1.66h.83c.09.49-.03,1.12,0,1.66Z"/>
        <path class="cls-6" d="M167.21,272.08h-.83c-7.74-2.38-15.56-3.51-23.72-4.99-5.59-1.02-8.62-2.75-14.56-.83-.4.13-1.13-.07-1.66,0v-.83c.49-.56,1.34-2.29,2.08-2.5,1.17-.32,6.76-.16,8.32,0,8.13.84,17.02,4.15,24.97,5.83l4.16.83c1.4.68.99,1.95,1.25,2.5Z"/>
        <path class="cls-18" d="M392.76,188.85c.57,1.6,1.78,3.12,2.5,4.58.67,1.36,1.1,3.35,1.66,4.58v.83c-1.55-.59-2.48-2.35-3.75-3.33-.4-.31-1.68-1.09-2.5-1.66-1.16-.82-2-.75-2.08-.83-.83-.83,2.81-4.8,4.16-4.16Z"/>
        <path class="cls-18" d="M405.25,218.81c-.54-.25-2.06.18-2.91,0-.3-.06-.47-.68-.83-.83-.45-.19-1.1.15-1.25,0-.32-.31.73-2.29.83-3.33s.2-5.41,0-5.83h.83c1.12,3.03,1.95,5.98,3.33,8.74v1.25Z"/>
        <path class="cls-6" d="M123.1,269.58h.83c-.16.16.22.85,0,1.25-.86,1.55-2.84,2.56-4.58,2.08-.67-.18-1.17-1.6-1.25-1.66-.01-.55.03-1.12,0-1.66h1.25c1.32,1.86,2.02-.19,3.75,0Z"/>
        <path class="cls-23" d="M126.43,266.25l-.83,3.33c-.53.06-1.56-.11-1.66,0h-.83c.06-.92,1.17-1.4,1.66-2.08.67-.92.86-1.15,1.66-2.08v.83Z"/>
        <path class="cls-23" d="M401.92,208.83h-.83c-.77-1.65-1.13-3.03-1.66-4.99l.83.42c.69,1.58,1.14,3.15,1.66,4.58Z"/>
        <path class="cls-29" d="M160.55,327.01h-1.25c-.65-.22-1.17-1.6-1.25-1.66l.83-.83c.57.81,1.19,1.81,1.66,2.5Z"/>
        <path class="cls-23" d="M118.11,269.58c.03.55-.01,1.11,0,1.66-.08-.07-.56,0-.83,0v-4.16l.83.42c.02.69-.04,1.4,0,2.08Z"/>
        <path class="cls-29" d="M396.92,314.53c-.21.16-.34,1.08-1.66,1.66v-1.25c.14-.55.81-.37.83-.42h.83Z"/>
        <path class="cls-23" d="M398.59,201.34l-.83-.42-.83-2.08v-.83c.45.98,1.03,1.67,1.66,3.33Z"/>
        <path class="cls-23" d="M375.28,165.55c-.73-.25-.95-.65-1.66-.83v-.83c.26.27,1.8.65,1.66,1.66Z"/>
        <path class="cls-23" d="M399.42,203l-.83-.83c.02.06.5-.32.83.83Z"/>
        <path class="cls-13" d="M312.86,387.77c.08.08-.23,1.65.83,2.08.19,3.13,1.39,6.37,2.5,9.16-.42,1.62,1.29,2.6.83,4.16-.49,1.67-3.72,1.64-4.16,0-.19-.71.19-1.79,0-2.5-.14-.53-1.55-2.84-1.66-3.33-.25-1.03.77-3.08-.83-2.91-.13,1.48.18,3.14,0,4.58-.04.31-.8.53-.83.83-.2,1.71.14,3.66,0,5.41-1.77-.03-3.6,2.2-3.33-.42l-4.16-5.41c.16,1.45-.24,3.21,0,4.58.04.25,1.3.84.83,2.5-.26.91-1.92,1.54-2.91,1.25-1.89-.54-1.04-3.99-1.25-5.41-.16-1.1-1.55-4.79-1.66-5.83-.1-.91-.19-5.22,0-5.41.17-.17,1.47.17,2.08,0,.33-.09.5-.74.83-.83,2.66-.74,1.79.72,2.08,1.25.89,1.59,3.11,3.48,3.33,5.83l1.66,2.08c.32-2.7-.45-6.19,0-8.74.05-.29.68-.47.83-.83.19-.45-.15-1.1,0-1.25s.8.19,1.25,0c.36-.15.53-.77.83-.83.54-.11,2.81-.1,2.91,0ZM302.04,398.59c.53-.63-.27-2.33-.83-1.66-.53.63.27,2.33.83,1.66Z"/>
        <path class="cls-13" d="M190.52,375.28c-.71-.77-4.17,5.45-5.41,5.83-1.35.41-2.47-1.62-2.08-2.91.09-.31.67-.48.83-.83.12-.25-.11-.65,0-.83.75-1.25,3.06-2.83,4.16-4.16.14-.17-.14-.67,0-.83,1.38-1.66,2.56-2.03,3.33-4.16.47-1.31,4.72.66,4.99,1.66.53,1.95-.64,2.66-.83,3.33-.24.81.42,1.81-.83,2.5l-.42,3.75c2.94-1.45,5.62-5.97,9.16-4.99.14.04,2.04,1.94,2.08,2.08.46,1.59-2.13,4.46-3.33,5.83-.15,2.06-2.23,3.3-2.5,4.99l-3.75,2.91c-3.08-2.39.14-4.32,1.25-6.24.5-.87.62-2.63,1.66-3.33l-2.91,1.25c-.77,1.58-5.87,4.55-7.07,3.33-.22-.22-.24-4.27.83-4.58-.29-1.59.81-2.16.83-3.75l.83-.42v-1.25l-.83.83ZM191.77,372.79c-.54,0-.54.83,0,.83s.54-.83,0-.83Z"/>
        <path class="cls-13" d="M211.32,390.26c-.64,1.07-2.94,5.61-3.75,5.83-.26.07-.54.05-.83,0-.24-.96-2.87-.43-2.08-2.08.61-1.29,1.96-2.42,2.5-3.33,1.17-1.98,2.17-4.68,3.33-6.66.34-.59,1.35-1.09,1.66-1.66.48-.86-.58-1.97,2.91-1.25.3.06.47.68.83.83.45.19,1.1-.15,1.25,0,.19.19.11,4.51,0,5.41-.04.3-.78.52-.83.83-.19,1.14.12,2.54,0,3.75,3.15-1.58,4.94-6.66,8.74-5.83.37.08.73,1.29,2.08.83-.12.92.19,2.1,0,2.91-.57,2.44-3.7,7.11-4.99,9.99-.22.5.24,2.49-1.25,2.91-1.04.3-1.55-1.26-2.91-.83-.19-1.02.09-1.62.42-2.5.6-1.6,1.44-3.6,2.08-4.99.05-.1,1.89-.61.83-1.66s-1.58.77-1.66.83c-2.29,1.6-2.34,2.24-3.75,4.16-.47.65-1.62,1.93-2.5,1.66-.15-.05-2.04-1.94-2.08-2.08-.48-1.66.76-2.18.83-2.5.27-1.19.75-3.55.83-4.58.05-.54-.02-1.12,0-1.66-.99.02-1.27,1-1.66,1.66ZM213.82,387.77c.53-.63-.27-2.33-.83-1.66-.53.63.27,2.33.83,1.66ZM221.73,391.1c-.54,0-.54.83,0,.83s.54-.83,0-.83Z"/>
        <path class="cls-13" d="M344.49,375.28c.15.15-.19.8,0,1.25.14.33.67.49.83.83,1.5,3.23,2.92,6.89,4.99,9.99l.83,2.91c-1.7.1-2.7,1.27-4.58.83-.3-.07-.47-.67-.83-.83-1.89-.86-1.96-1.56-3.33-2.5-.19-.13-.64.13-.83,0-1.01-.69-2.01-1.88-3.33-2.5l.42,2.91c1.06,1.07,3.43,6.14,2.5,7.07-.12.12-3.21.12-3.33,0-.15-.15.19-.8,0-1.25-.14-.33-.67-.49-.83-.83-1.5-3.23-2.92-6.89-4.99-9.99l-.83-2.91c1.91-.36,3.32-1.22,5.41-.83.89,1.06,6.37,4.87,7.07,4.16s-3.65-6.34-2.5-8.32c.8.13,3.13-.2,3.33,0ZM344.07,384.44c-.54,0-.54.83,0,.83s.54-.83,0-.83Z"/>
        <path class="cls-13" d="M178.03,356.14c.68.07,1.55-.16,2.08,0,2.65.79,2.12,5.56,2.08,7.91-1.44.95-.59,2.49-.83,3.75-.14.74-1.4,1.82-.83,2.5.66.79,1.1-1.66,1.66-2.5,1.62-1.56,3.81-5.68,6.24-4.99.44.12,1.51,1.36,1.25,2.08l-9.57,11.24c-1.19.18-3.4.02-3.75-1.25-.7-2.57,1.45-4.83.83-7.49l.83-3.75c-2.51.63-4.86,6.23-6.24,6.66-.89.28-2.91-1.89-2.91-2.08,0-.12,1.02-1.77,1.25-2.08.96-1.3,2.67-2.44,3.75-3.75.14-.17-.14-.67,0-.83,1.57-1.87,4.01-3,4.16-5.41-.92-.09-2.17.2-2.91,0-.46-.13-1.2-1.53-1.66-1.66-2.63-.78-1.79.73-2.08,1.25-.32.57-6.6,6.93-7.07,7.07-.99.3-2.65-.35-2.91-1.25-.46-1.61.45-1.97,1.25-2.91,1.05-1.24,6.06-5.6,6.24-6.24.67-2.32-3.78-3.78-.42-6.24l9.57,7.91c-.03.69.04,1.4,0,2.08ZM178.45,361.97c-.54,0-.54.83,0,.83s.54-.83,0-.83Z"/>
        <path class="cls-13" d="M233.38,390.26c2.04-.48,2.62.63,3.33.83.54.16,1.21-.18,1.66,0,.32.13.49.67.83.83.26.12.67-.11.83,0,1.2.77.98,1.61,1.25,2.08,1.26,2.27,2.32,3.7,1.66,6.66-.07.3-.69.48-.83.83-.79,1.99-1.78,4.24-3.75,5.41-.18.11-.57-.12-.83,0-.36.16-.54.77-.83.83-.78.17-3.32.15-4.16,0-.31-.05-.49-.72-.83-.83-.5-.16-1.14.15-1.66,0-.2-.06-2.68-2.53-2.91-2.91-.11-.18.12-.57,0-.83-.16-.36-.77-.54-.83-.83-.18-.81-.18-4.18,0-4.99.07-.3.69-.48.83-.83.58-1.47,2.23-4.97,3.75-5.41.52-.15,1.17.16,1.66,0,.34-.11.52-.76.83-.83ZM237.96,394.43c-1.52.2-2.19-1.28-3.75-.83-.2.06-2.68,2.53-2.91,2.91-.11.18.12.57,0,.83-.16.36-.77.54-.83.83-.42,1.87.09,5.69,2.08,6.24s4.42-1.24,5.41-2.91c.11-.18-.12-.57,0-.83.16-.36.77-.54.83-.83.45-2.03-.52-3.54-.83-5.41Z"/>
        <path class="cls-13" d="M243.78,410.24c-.1-.11-.11-2.37,0-2.91.34-1.65,1.48-5.12,1.66-6.66.23-1.92-.75-6.5,1.25-7.07,1.66-.48,2.26.79,2.5.83,1.26.22,2.98-.26,4.16,0,.3.07.47.67.83.83.26.12.65-.11.83,0,1.82,1.09,2.64,3.36,2.08,5.41-.13.46-1.54,1.21-1.66,1.66-.3,1.07,2.21,3.22,1.66,4.99-.09.31-.67.48-.83.83-.12.25.11.65,0,.83-2.04,3.42-6.84,1.7-10.4,2.08-.43-1.06-2-.75-2.08-.83ZM248.78,401.08c.36.36,3.79.08,4.16-1.25.28-1.01-.32-2.62-1.25-2.91-1.96-.62-2.04.15-2.5,1.66-.18.61-.81,2.1-.42,2.5ZM252.94,407.74c1.21-1.27-2.02-5.21-4.16-4.16-.78,3.3-2.49,5.74,2.08,4.99.43-1.07,2-.75,2.08-.83Z"/>
        <path class="cls-13" d="M322.43,383.61c.8-.18,4.19-.18,4.99,0,.3.07.47.67.83.83.26.12.65-.11.83,0,.46.27,2.64,2.46,2.91,2.91.11.18-.12.57,0,.83.16.36.77.54.83.83.21.94.21,5.72,0,6.66-.07.3-.67.47-.83.83-.12.26.11.65,0,.83-.25.41-1.65,1.81-2.08,2.08-.19.12-.62-.13-.83,0-1.65.98-2.88,2.16-4.99,1.66-.32-.07-.49-.72-.83-.83-.5-.16-1.14.15-1.66,0-.25-.07-3.67-3.49-3.75-3.75-.15-.52.16-1.17,0-1.66-.11-.35-.78-.53-.83-.83-.17-.95-.2-4.12,0-4.99.07-.3.67-.47.83-.83.12-.26-.11-.65,0-.83.27-.46,2.46-2.64,2.91-2.91.18-.11.57.12.83,0,.36-.16.54-.77.83-.83ZM322.43,386.94c-1.55.42-1.61,5.76-1.25,7.07.06.2,2.42,2.53,2.91,2.91.81.63,1.19,1.22,2.5.83.2-.06,2.86-2.71,2.91-2.91.53-1.93-.6-2.6-.83-3.33-.16-.5.15-1.14,0-1.66-.06-.2-2.71-2.86-2.91-2.91-.51-.14-2.81-.14-3.33,0Z"/>
        <path class="cls-13" d="M359.47,376.95l-4.99,2.91c1.39,1.95.36,2.79,3.33,1.66,2.37-.89,6.43-4.41,4.99.83-.27.98-3.14,1.58-3.75,2.91-1.22.06-4.5,2.58-5.41,1.66-.16-.16.22-.85,0-1.25-.32-.57-1.32-1.08-1.66-1.66-1.26-2.15-2.02-4.93-4.16-6.66,0-1.71-2.29-2.06-1.66-4.16.17-.57,2.16-1.62,2.91-2.08.2-.12.63.12.83,0,1.3-.79,2.95-3.09,4.99-2.5.47.14,1.47,1.35,1.25,2.08-.43,1.44-5.67,2.12-4.99,4.16,1.11,3.32,4.26-.33,4.58-.42,1.83-.5,4.02.25,3.75,2.5Z"/>
        <path class="cls-13" d="M289.56,396.09c-.47.47-5.95-.99-6.66,1.25-.96,3.03,6.37,1.8,6.66,2.08.12.12.12,3.21,0,3.33-.33.33-5.49-.33-5.83,0-.56.56.09,4.76,2.08,4.16.34-.1.52-.76.83-.83.65-.14,4.42-.16,4.58,0,.12.12.12,3.21,0,3.33-.22.22-3.53-.14-4.58,0-.31.04-.53.8-.83.83-.91.1-5.22.19-5.41,0-.22-.22.14-3.53,0-4.58-.24-1.85-1.42-5.64-1.66-7.49-.11-.8-.16-4.42,0-4.58.22-.22,3.53.14,4.58,0,.31-.04.52-.79.83-.83.87-.13,3.45-.19,4.16,0,1.04.28,1.71,2.87,1.25,3.33Z"/>
        <path class="cls-13" d="M366.96,358.64c.22.26-.15,2.8,0,3.75.05.31.78.52.83.83.38,2.23.16,4.31.83,6.66.07.26,1.82,1.89,2.5,3.33.17.35.73.52.83.83.79,2.49-2.51,4.28-4.16,1.66-.13-.21.12-.66,0-.83-2.35-3.33-7.82-5.25-11.65-6.24-.46-2.95.2-2.01,2.08-3.33,1.21-.67,6.02,2.76,6.24,2.5.85-.98-.81-2.76-.83-2.91-.13-.87-.19-3.46,0-4.16.15-.57,2.74-2.75,3.33-2.08Z"/>
        <path class="cls-13" d="M270.42,394.43c.31.31-.17,7.15,0,8.74.03.3.78.52.83.83.5,3.19-1.49,4.6,3.75,3.75.15-.02,2.07-1.7,2.91-.83.43.44,0,3.81-1.25,4.16-.73.2-9.23.34-9.57,0-.31-.31.11-7.16,0-8.74-.02-.3-.81-.53-.83-.83-.1-1.13-.25-6.82,0-7.07.15-.15,4.01-.15,4.16,0Z"/>
        <path class="cls-13" d="M263.76,395.26c.25.25-.12,5.72,0,7.07.03.3.81.54.83.83.1,1.33.31,8.43,0,8.74-.15.15-4.01.15-4.16,0-.34-.34.13-7.88,0-9.57-.02-.3-.8-.53-.83-.83-.1-1.02-.22-6.02,0-6.24.15-.15,4.01-.15,4.16,0Z"/>
        <path class="cls-28" d="M212.99,390.26h-1.66c.4-.67.67-1.65,1.66-1.66-.02.55.05,1.12,0,1.66Z"/>
        <path class="cls-17" d="M219.65,393.59c.09-.06.63-1.87,1.66-.83s-.79,1.57-.83,1.66l-.83-.83Z"/>
        <path class="cls-28" d="M190.52,376.12c0-.27.06-.76,0-.83l.83-.83v1.25l-.83.42Z"/>
        <path class="cls-28" d="M182.19,367.79c-.56.84-1,3.29-1.66,2.5-.57-.68.69-1.75.83-2.5h.83Z"/>
        <path class="cls-29" d="M251.27,274.58c.69.47,3.78,1.53,5.41,2.5,5.95,3.52,13.14,8.05,18.31,12.48,5.63,4.82,10.58,11.53,16.23,16.23.52.43,1.82,1.99,2.5,1.25.3-.32.09-7.4,0-8.74-.59-8.25-2.33-17.17-4.16-24.97-.49-2.07-1.44-3.94-1.66-4.99-.7-3.22-1.22-6.74-2.5-9.99-2.81-7.14-7.19-13.72-10.82-19.97l-8.32-9.57c1.59.26,4.04-.38,5.41,0,.54.15,6.99,6.83,7.91,7.91,3.17,3.74,5.78,8.43,8.32,12.48.55.88,1.33,2.53,2.08,2.91,1.48.75,1.48-1.3,1.25-2.08-1.5-5.03-3.29-10.8-5.83-15.81.4-1.17-1.58-3.84-.83-4.58.22-.22,5.22-.1,6.24,0,5.52.55,15.16,1.91,19.97.83.8-.18,4.19-.18,4.99,0,.3.07.47.67.83.83.26.12.65-.11.83,0,.39.23,1.85,1.69,2.08,2.08.11.18-.12.57,0,.83.16.36.77.54.83.83.23,1.03.17,4.66,0,5.83-.08.54-1.48,3.45-1.66,4.16-10.81,41.96-21.17,83.95-32.46,125.67-.52,1.93-.46,4.08-.83,5.83-.06.28-1.37,1.96-1.66,2.5-.13.23.12.65,0,.83-.79,1.24-2.43,1.56-3.75,2.08-.35.14-.53.77-.83.83-1.59.35-7.27.19-9.16,0-3.84-.4-8.78-2.26-12.48-3.33-7.78-2.25-15.45-5.23-23.3-7.49-.25-.07-3.48-3.3-3.75-3.75-.11-.18.12-.57,0-.83-.16-.36-.77-.54-.83-.83-.36-1.62-.27-9.79,0-11.65.15-1.04,1.27-3.89,1.66-5.41,5.45-21.09,11.83-41.61,16.65-62.84l1.66-2.08c-.45,9.36.34,18.92,0,28.3l40.78,6.66c.52-2.77-1.24-4.85-2.5-7.07-6.82-12.07-19.52-20.83-32.04-26.22-1.74-.75-4.1-1.57-6.24-1.66.11-2.28.29-4.98.83-7.07.11-.44,1.44-1.34.83-2.91ZM291.22,256.27c.3,2.28,1.79,4.28,1.66,6.66,1.41.21.94-2.99.83-3.75-.12-.82-.75-2.72-1.66-2.91.5-4.66-1.43-4.44-.83,0ZM251.69,321.19c-.32.08-.51.76-.83.83-.74.17-1.8-.19-2.5,0-.2.05-2.86,2.71-2.91,2.91-.5,1.8.4,2.38.83,3.33.12.26-.11.65,0,.83,1,1.69,2.88,2.24,4.58,2.91.35.14.53.77.83.83.95.21,7.5.23,8.32,0,.2-.05,2.86-2.71,2.91-2.91.14-.51.14-2.82,0-3.33-.07-.26-3.3-3.48-3.75-3.75-.16-.09-1.57-.81-1.66-.83-.7-.19-1.76.18-2.5,0-.58-.14-1.27-1.31-3.33-.83ZM275.83,328.68c-.3.07-.47.67-.83.83-.26.12-.65-.11-.83,0-1.82,1.09-2.64,3.36-2.08,5.41.07.26,3.3,3.48,3.75,3.75.17.1,1.42.74,1.66.83.45.18,1.13-.15,1.66,0,.34.1.52.78.83.83.9.16,3.26.16,4.16,0,.31-.05.49-.72.83-.83.5-.16,1.14.15,1.66,0,.83-.24,3.16-3.73,2.91-4.58-.09-.3-.65-.47-.83-.83-.12-.24.11-.65,0-.83-.28-.45-3.49-3.67-3.75-3.75-.52-.15-1.17.16-1.66,0-.35-.11-.53-.78-.83-.83-1.13-.2-5.62-.23-6.66,0ZM257.93,346.99c.15-.15-.19-.8,0-1.25.15-.36.76-.53.83-.83.43-1.89-.37-2.32-.83-3.33-.12-.26.11-.65,0-.83-1-1.69-2.88-2.24-4.58-2.91-.35-.14-.53-.77-.83-.83-1.01-.22-6.49-.22-7.49,0-.3.07-.47.67-.83.83-.26.12-.65-.11-.83,0-3.9,2.32-1.46,7.3,1.66,9.16.18.11.57-.12.83,0,.36.16.53.75.83.83.69.19,1.74-.17,2.5,0,.33.07.52.77.83.83.76.14,2.57.14,3.33,0,.31-.06.5-.75.83-.83.55-.14,1.2.17,1.66,0,.33-.12.49-.69.83-.83.45-.19,1.1.15,1.25,0ZM271.66,343.66c-.3.07-.47.67-.83.83-.26.12-.65-.11-.83,0-2.02,1.2-2.69,4.03-2.08,6.24.05.2,2.52,2.68,2.91,2.91.17.1,1.42.74,1.66.83.45.18,1.13-.15,1.66,0,.34.1.52.78.83.83,1.04.19,4.87.22,5.83,0,.3-.07.47-.67.83-.83.26-.12.65.11.83,0,2.02-1.2,2.69-4.03,2.08-6.24-.05-.2-2.52-2.68-2.91-2.91-.17-.1-1.42-.74-1.66-.83-.45-.18-1.13.15-1.66,0-.34-.1-.52-.78-.83-.83-1.04-.19-4.87-.22-5.83,0ZM241.7,352.81c-.3.07-.47.67-.83.83-.26.12-.65-.11-.83,0-2.02,1.2-2.69,4.03-2.08,6.24.05.2,2.52,2.68,2.91,2.91.17.1,1.42.74,1.66.83.45.18,1.13-.15,1.66,0,.34.1.52.78.83.83,1.04.19,4.87.22,5.83,0,.3-.07.47-.67.83-.83.26-.12.65.11.83,0,2.02-1.2,2.69-4.03,2.08-6.24-.05-.2-2.52-2.68-2.91-2.91-.17-.1-1.42-.74-1.66-.83-.45-.18-1.13.15-1.66,0-.34-.1-.52-.78-.83-.83-1.04-.19-4.87-.22-5.83,0ZM269.17,359.47c-.31.06-.49.72-.83.83-.5.16-1.14-.15-1.66,0-.2.06-2.86,2.71-2.91,2.91-.5,1.8.4,2.38.83,3.33.12.26-.11.65,0,.83,1,1.69,2.88,2.24,4.58,2.91.35.14.53.77.83.83,1.01.22,6.49.22,7.49,0,.3-.07.47-.67.83-.83.26-.12.65.11.83,0,3.9-2.32,1.46-7.3-1.66-9.16-.18-.11-.57.12-.83,0-.36-.16-.53-.75-.83-.83-.69-.19-1.74.17-2.5,0-.33-.07-.52-.77-.83-.83-.76-.14-2.57-.14-3.33,0Z"/>
        <path class="cls-9" d="M393.59,281.24l-.83,4.58c-10.76,40-44.29,73.04-83.64,84.48-1.16-.4-3.84,1.58-4.58.83-.1-.1-.11-2.36,0-2.91,1.3-6.32,3.52-12.84,4.99-19.14,3.35-14.35,6.61-28.61,9.99-42.86,1.87.3,2.54-1.61,3.75-2.5,6.74-4.97,14.44-8.94,22.47-12.48,4.95-2.18,11.06-3.79,15.4-5.83,1.51-.71,11.62-2.97,13.73-3.33,2.49-.42,6.97-.23,9.16-.83.46-.13,1.21-1.54,1.66-1.66,1.86-.51,5.78,1.53,7.91,1.66Z"/>
        <path class="cls-9" d="M183.03,287.06c8.19,2.87,15.41,6.34,23.72,9.99.43.19,1.04-.14,1.25,0,7.42,5.07,16.16,9.52,22.89,14.98,2.16,1.76,3.85,5.36,7.07,4.99-2.44,9.6-5.17,18.81-6.66,28.71-.04.28-.75,3.56-.83,3.75-1.52,3.23-3.27,6.67-4.16,10.4-.45,1.89.65,2.77.83,4.16.38,2.88-2.81.02-3.75-.42-33.03-15.29-56.87-43-67-77.82l-.83-4.58c.64.13,1.45-.14,2.08,0,.3.07.87,1.33,2.5.83,6.2-1.89,16.73,2.84,22.89,4.99Z"/>
        <path class="cls-19" d="M178.87,200.5c-.32-4.75,1.04-6.5,3.33-10.4,2.47-4.21,3.96-6.8,7.91-9.57.99-.7,2.94-2.83,4.16-2.5.89.25,1.96,3.1,3.75,2.5.61-3.41,3.48-7.14,6.24-9.16.17-.13.63.14.83,0,.57-.39,1.28-1.55,1.66-1.66.52-.15,1.17.16,1.66,0,.35-.11.53-.78.83-.83,1.45-.26,6.87-.26,8.32,0,.31.06.49.74.83.83.93.27,2.38.27,3.33.83.85.51,1.67,2.04,2.5,2.5.39.22,1.09-.16,1.25,0s-.22.85,0,1.25c.67,1.21,3.25,3.47,4.16,4.99s1.23,4.08,1.66,5.83c.08.33.78.52.83.83.27,1.49-.31,3.59,0,4.99.49,2.21.14,4.08,0,7.07l-.83.42c.56,1.7-.62,2.72-.83,3.75-.1.49.07,1.13,0,1.66-1.01-.14-1.4,1.4-1.66,1.66-1.87,1.82-4.42,3.7-7.07,3.33-.62,1.33-2.68.62-2.91.83-1.06,1,.79,1.58.83,1.66.14.3-.22.92,0,1.25.3.45,1.66,1.83,2.08,2.08,1.45.86,2.96.51,4.16.83.96.26,1.55,2.52,2.08,3.33-.44,2.83-3.3,5.05-4.99,7.49l-4.58,1.66c-3.38.91-6.22,1.3-9.57,0l-1.66-1.66c-.63-1.48.82-2.75.83-2.91.04-.52-.81-.37-.83-.42-.21-.46.21-1.56,0-2.08-1.21-3-6.6-7.15-9.16-9.99-1.89-2.1-2.48-2.69-4.58-4.58-.97-.88-4.5-4.86-4.99-4.99-2.14-.59-3.9.82-5.83.83-2.24,0-2.13-.79-3.75-1.66ZM203,188.02c.2,3.01,3.28,5.14,4.16,7.91,1.45.72,3.55,5.96,4.58,6.24,2.52.69,5.26-1.82,5.41-4.16s-.78-2.36-.83-2.5c-.12-.31.16-.84,0-1.25-.53-1.35-1.68-3.87-2.5-4.99-.52-.72-3.1-3.36-3.75-3.75-.18-.11-.57.12-.83,0-.36-.16-.54-.77-.83-.83-3.13-.7-5.65-.23-5.41,3.33Z"/>
        <path class="cls-11" d="M247.94,272.91c.14.88.16,2.89,0,3.75-.06.31-.76.5-.83.83-.62,2.64-1.01,5.27-1.66,7.91-19.82.18-39.68-.24-59.51,0-1.64.02-3.39-.85-2.91,1.66-6.16-2.15-16.68-6.88-22.89-4.99-1.63.5-2.19-.76-2.5-.83-.63-.14-1.44.13-2.08,0-1.73-.35-4.12-4.13-4.99-5.41v-1.25c.51.24,9.96.19,11.24,0,.31-.04,2.37-.61,3.33-.83.3-.07.44-.83,1.25-.83s.92.92,1.66.83c.04.27-.02.56,0,.83s-.05.58,0,.83c.48,2.65,1.63,3.03,4.58,2.5.33-.06.74-1.29,2.08-.83l.83-3.33c.27-.03.56.01.83,0,22.06-1,44.85.75,67,0l3.75-1.66c.15.11.66-.27.83.83Z"/>
        <path class="cls-9" d="M245.86,228.8c.98-.15,3.22-.17,4.16,0,.31.06.49.74.83.83.53.15,1.2-.17,1.66,0,1.71.63,3.53,2.3,4.99,3.33.2.14.67-.13.83,0,1.44,1.09,1.52,2.12,2.08,2.91.42.6,1.34,1.1,1.66,1.66.11.2-.12.6,0,.83.28.53,1.6,2.21,1.66,2.5.25,1.16.25,8,0,9.16-.07.3-.69.48-.83.83-.43,1.09-1.13,3.36-1.66,4.16-2.24,3.37-6.25,5.11-9.57,7.07-2.57-.31-5.9.43-8.32,0-.31-.06-.49-.74-.83-.83-.53-.15-1.2.17-1.66,0-.32-.12-.49-.68-.83-.83-.53-.24-2.15-.6-2.5-.83-.78-.52-4.06-3.8-4.58-4.58-.12-.18.13-.62,0-.83-.51-.83-2.38-3.62-2.5-4.16-.25-1.16-.25-8.01,0-9.16.07-.3.69-.48.83-.83.24-.61.57-2.03.83-2.5.32-.56,1.25-1.07,1.66-1.66.14-.2-.13-.67,0-.83,1.36-1.8,3.71-2.8,5.41-3.75.54-.3,2.22-1.6,2.5-1.66.97-.21,2.31.18,3.33,0,.32-.06.52-.79.83-.83Z"/>
        <path class="cls-15" d="M200.5,260.43c3.95.26,6.74.28,10.4.83,11.83,1.78,22.83,4.07,34.12,9.16.44.2,1.3.63,1.66.83.6.32.38.8.42.83l-3.75,1.66c-22.15.75-44.94-1-67,0v-1.25c2.15-2.74,2.28-6.24,2.5-9.57.23-.1.67.15.83-.42l-.83-.42c-.02-.81.1-1.7,0-2.5,6.76.25,13.63-.34,20.39,0,.2.01.42.78,1.25.83Z"/>
        <path class="cls-14" d="M332.01,211.32c.16.16-.16,1.51,0,1.66.21.21,2.48-.16,3.33,0,1.29.25,2.39,2.64,4.99,1.66.02.27-.04.57,0,.83.25,1.49.95,2.26.83,3.75l.83.42c.04.27-.03.56,0,.83.05.54-.13,1.39,0,1.66l-2.08,2.5c-17.47.16-34.96-.21-52.43,0-1.64.02-3.39-.85-2.91,1.66-1.5-.1-2.33.3-3.33-1.25-.58-.9-1.09-3.2-1.66-4.16-.98-1.63-3.07-4.79-4.16-6.24-.47-2.51,1.27-1.64,2.91-1.66,15.25-.19,30.52.14,45.78,0,.73-.2,1.15-1.62,1.25-1.66.3-.14,6.42-.24,6.66,0Z"/>
        <path class="cls-26" d="M364.46,252.94c.2.89,1.34,2.85,2.08,3.33.21.13.66-.12.83,0,1.19.85,2.13,2.12,3.75,2.5-.19.26-.79,1.15-.83,1.25-.55,1.31-.78,3.81-.83,5.41-.03.83.02,1.67,0,2.5-11.29.69-24.39,1.67-36.2.83-1.84-.13-2.8-1.02-4.58-.83,1.25-5.33,1.98-11.17,4.16-15.81,8.45-.05,16.93.06,25.38,0,1.3,0,4.04.6,4.58-.83l1.66,1.66Z"/>
        <path class="cls-17" d="M209.66,244.62c-2.08,3.08-4.41,7.88-6.66,11.24-1.01,1.51-3.17,1.98-2.5,4.58-.83-.06-1.05-.82-1.25-.83-6.76-.34-13.63.25-20.39,0-.35-2.73-2.58-4.11-5.41-3.33-1.18.32-2.59,3.25-5.83,2.5-.32-.08-.51-.75-.83-.83-3.54-.84-7.15-1.17-10.82-2.5-.29-.11-2.09-1.14-2.08-1.66,1.57-.48,2.92-.69,4.58-.83,6.89-.59,15.03-.35,21.64-1.66,2.73-.54,3.07,1.38,2.91-2.5-.05-1.33.05-2.24-.83-3.33l3.75-1.66c3.31.14,6.68-.19,9.99,0,.29.02.54.82.83.83,4.28.22,8.63-.16,12.9,0Z"/>
        <path class="cls-10" d="M207.16,227.14c.05.02.8.78.83.83.14.24-.21.87,0,1.25,1.11,1.96,5.01,2.39,7.07,2.08.31-.05.52-.78.83-.83,1.57-.26,3.02.47,4.58-.83-3.59,5.12-7.65,10.3-10.82,14.98-4.28-.16-8.62.22-12.9,0-.29-.01-.54-.82-.83-.83-3.31-.19-6.67.14-9.99,0l-3.75,1.66c-.78-.97-3.01-2.42-4.16-3.75-3-3.45-5.63-7.41-8.32-11.24l1.66-1.66c2.33,1.13,8.28,3.75,9.99,5.83,1.21,1.47,1.21,3.22,1.66,4.58.19.57.81.38.83.42.28.38.65,1.5,1.25,1.66.56.15,3.6.15,4.16,0s7.1-6.89,7.91-7.91c.25-.32,2.44-3.12,2.5-3.33.26-.9-.59-1.85.83-2.08.91-.15,2.02.16,2.91,0,.31-.06.51-.77.83-.83.53-.11,2.58-.14,2.91,0Z"/>
        <path class="cls-5" d="M367.79,233.8v.83c-.89,1.02-1.91,1.82-2.5,2.5-1.86.53-3.13-.62-4.58-.83-2.35-.34-3.59.77-4.16.83-5.48.59-12.58-.04-18.31,0-1.3,0-4.04-.6-4.58.83l-5.41-5.83c-1.25-.27-2.01-1.06-3.33-1.66-1.07-.5-4.09-2.25-4.99-2.5-.69-.19-1.74.16-2.5,0-.33-.07-.56-.83-.83-.83h-22.47c-.28,0-.54-.82-.83-.83-2.89-.16-5.86.19-8.74,0-.47-2.51,1.27-1.64,2.91-1.66,17.47-.21,34.96.16,52.43,0l2.08-2.5c.05.09,1.46.51,1.66,1.25.15.51-.15,1.15,0,1.66.09.31,4,4.2,4.58,4.58.82.54,3.07,1.22,4.16,1.66,4.95,2.03,9.54,2.64,15.4,2.5Z"/>
        <path class="cls-1" d="M365.3,237.12c-.66.76-2.16,2.9-2.5,3.75-.18.45.16,1.13,0,1.66-.1.34-.77.52-.83.83-.16.79,0,2,0,2.91,0,2.12.35,3.18.83,4.99-.54,1.43-3.28.82-4.58.83-8.46.06-16.94-.05-25.38,0,.24-.51.52-5.67.83-7.07.07-.33.77-.52.83-.83.46-2.51-.93-4.01-.83-6.24.54-1.43,3.28-.82,4.58-.83,5.73-.04,12.83.59,18.31,0,.57-.06,1.81-1.17,4.16-.83,1.45.21,2.71,1.36,4.58.83Z"/>
        <path class="cls-27" d="M361.13,285.4c-4.34,2.04-10.45,3.64-15.4,5.83-8.03,3.54-15.73,7.52-22.47,12.48-1.21.89-1.87,2.79-3.75,2.5,1.72-7.26,2.83-16.1,5.83-22.47,10.56.41,21.52-.56,32.04,0,1.63.09,3.11-.47,3.75,1.66Z"/>
        <path class="cls-8" d="M251.27,274.58c.61,1.58-.72,2.48-.83,2.91-.55,2.09-.72,4.79-.83,7.07,2.14.1,4.51.92,6.24,1.66,12.53,5.38,25.23,14.15,32.04,26.22,1.25,2.22,3.02,4.3,2.5,7.07l-40.78-6.66c.34-9.38-.45-18.94,0-28.3l-1.66,2.08c-4.81,21.23-11.2,41.75-16.65,62.84h-.83c.09-.19.79-3.47.83-3.75,1.49-9.91,4.22-19.11,6.66-28.71,1.38-5.42,2.2-10.7,3.33-16.23.18-.87.73-4.35.83-4.58,1.48-3.15,2.42-7.16,3.33-10.82.65-2.63,1.05-5.27,1.66-7.91.08-.33.77-.52.83-.83.16-.85.14-2.86,0-3.75,2.5-.78,2.62,1.18,3.33,1.66Z"/>
        <path class="cls-6" d="M220.48,229.63c-1.56,1.31-3,.57-4.58.83-.32.05-.52.79-.83.83-2.06.31-5.96-.12-7.07-2.08-.21-.38.14-1.01,0-1.25h.83c3.36,1.3,6.19.91,9.57,0l4.58-1.66c-.87,1.25-1.85,2.41-2.5,3.33Z"/>
        <path class="cls-19" d="M186.36,213.82c1.53,1.19,6.62,6.41,8.74,5.83.63-.17,1.37-1.37,3.33-.83.2.05,2.86,2.71,2.91,2.91.16.59.08,2.15,0,2.91l-.83.42c.09.74-.45,1.52-.83,2.08-1.16,1.71-9.13,11.3-10.4,11.65-1.37.38-3.82-.26-5.41,0,.11-1.55-1.24-3.21-1.66-4.16-.13-.3.22-.92,0-1.25-.44-.67-2.22-2.4-2.91-2.91-1.86-1.39-5.33-2.95-7.49-4.16-1.27-.71-3.84-2.92-4.58-.42-.58,1.97.79,1.98.83,2.08.13.32-.22.93,0,1.25.51.75,1.6,1.16,1.66,1.25,2.69,3.82,5.32,7.79,8.32,11.24,1.15,1.32,3.38,2.77,4.16,3.75.88,1.09.78,2,.83,3.33-1.84-.59-3.22.72-4.58.83-5,.43-10.33.4-14.98.83-2.1.19-4.73-.34-6.66,0-.31.05-.49.72-.83.83-.77.24-1.68-.47-2.5.83-.54.86-.84,1.51.42,1.66,0,.53,1.79,1.56,2.08,1.66,3.67,1.32,7.28,1.65,10.82,2.5.33.08.51.76.83.83,3.23.76,4.65-2.17,5.83-2.5,2.83-.78,5.06.59,5.41,3.33.1.8-.02,1.68,0,2.5,0,.27.02.56,0,.83-1.57.68-.49,1.63-.83,2.91-.15.55-1.51,2.77-1.66,3.33-.44,1.63.26,2.82-1.66,4.58-1.72.57-2.75,2.64-5.83,1.66l-.83-.83c-.02-.27.04-.57,0-.83-.31-2-.79-1.57-.83-1.66-.26-.55.15-1.81-1.25-2.5l-4.16-.83c-7.95-1.68-16.83-4.99-24.97-5.83-1.57-.16-7.16-.32-8.32,0-.74.2-1.59,1.93-2.08,2.5-.8.93-1,1.16-1.66,2.08-.5.69-1.6,1.16-1.66,2.08-1.73-.19-2.43,1.86-3.75,0h-1.25c-.04-.69.02-1.39,0-2.08l-.83-.42c0-4.18.17-7.02.83-10.82.92-5.29,2.27-9.64,4.99-14.56.21-.39-.15-1.03,0-1.25.11-.16,2.65-2.34,2.91-2.5.94-.56,2.44-.54,3.33-.83,1.01-.34,3.24-1.45,4.16-1.66,5.88-1.39,12.05-2.07,18.31-2.5.56-1.31,2.71-.63,2.91-.83.15-.15-.16-1.24,0-1.66.02-.04.69.15.83-.42.34-1.39-.79-1.17-.83-1.25-.2-.42.18-1.49,0-2.08-.15-.51-2.83-3.32-3.33-4.16-.89-1.51-1.61-3.11-2.5-4.58-.38-.62-.93-1.29-.83-2.08l-.83-.42c-.08-.25.08-.58,0-.83-.24-.78-.81-1.6-1.66-1.66-.03-.55.09-1.18,0-1.66-.17-.91-1.3-1.51-.83-2.91l-.83-.42c-.07-1.08-.18-2.78,0-3.75.06-.31.74-.49.83-.83.81-2.87.82-2.59,2.5-4.99,2.64-3.79,5.31-7.58,9.57-10.4.35-.23,1.94-.61,2.5-.83.35-.14.51-.74.83-.83.99-.3,4.32,1.13,4.58,2.08.46,1.7-.41,4.82,0,6.66.36,1.59,6.88,7.94,8.74,9.57,3.4,2.99,7.9,6.45,11.65,9.16.33.24,1.05-.16,1.25,0Z"/>
        <path class="cls-19" d="M273.75,163.88c0-1.63.55-4.02,2.08-4.99.17-.11.57.12.83,0,.34-.16.51-.7.83-.83,2.63-1.05,6.27-1.15,9.16-1.66.32-.06.53-.79.83-.83,1.56-.19,7.97-.32,9.16,0,1.41.38,1.48,3.31,1.25,4.58-.03.15-1.69,2.06-.83,2.91,1.27,1.26,4.55-1.98,5.41-2.5.35-.21,3.92-1.62,4.16-1.66,1.45-.26,6.87-.26,8.32,0,.31.06.49.74.83.83.54.15,1.21-.18,1.66,0,.33.13.49.67.83.83.26.12.65-.11.83,0,.51.3,3.44,3.24,3.75,3.75.1.16.81,1.57.83,1.66.59,2.49-1.36,3.74,3.75,2.91.47-.08,3.72-1.6,4.16-1.66,1.27-.19,4.61-.22,5.83,0,.31.06.49.74.83.83.53.15,1.2-.17,1.66,0,1.06.39,3.04,1.82,4.16,2.5.21.13.64-.12.83,0,1.7,1.09,2.22,2.83,2.91,4.58.14.35.77.53.83.83.28,1.25.13,4.77,0,6.24l-.83.42c-.13.45.12.99,0,1.25-.04.09-1.45.51-1.66,1.25-1.07,3.63-1.11,1.16-2.5,3.33-.63.99-2.08,4.03-2.5,4.58-.9,1.2-2.03.55-2.5,3.33-.05.29-2.98,2.52-3.33,3.75-.49,1.7-1.55,4.04-1.66,5.41-.04.49-.12,1.36,0,1.66-1.54.84-3.64,3.04-5.41,2.5-.63-.19-1.62-1.45-3.33-.83l-8.74-4.99v-1.25l-.83-.42c-.02-.86-.18-2.26,0-2.91.24-.86,4.88-4.4,5.83-5.83.77-1.16,1.79-3.71,2.5-4.99,1.63-2.96,2.37-4.37,3.33-7.49.13-.43.82-.38.83-2.08.02-1.57-.99-1.9-.83-3.33-1.36.45-1.65-.71-2.08-.83-1.13-.33-3.88.99-4.58,2.08-.05.08-.74,1.44-.83,1.66-.29.73-.46,2.81-.83,3.75-.04.1-.53-.38-.83,1.66l-.83.42v2.08c-1.39.61-.52.95-.83,1.66-.55,1.25-2.88,3.91-2.5,5.41.15.57.81.37.83.42.16.34.11,3.42,0,4.16l-1.66,1.66c-4.78,1.95-9.12.11-13.73-.83l-4.58-2.5c-.06-.93-.18-4.82,0-4.99.16-.16.85.22,1.25,0,3.44-1.92,2.96-5.14,3.75-7.91.16-.58,1.52-2.77,1.66-3.33.41-1.53.52-6.36.83-7.07.02-.04.87.11.83-.42-.02-.29-.74-.49-.83-.83-.14-.52.15-1.16,0-1.66-.49-1.7-4.73-1.9-5.83,0-.22.38.15,1.02,0,1.25-.06.09-1.47.55-1.66,1.25-.24.89.2,2.34,0,3.33-.82,3.99-3.48,8.21-1.66,12.07.22.47.07,4.73,0,5.83-1.75,1.85-2.77,1.24-4.58,1.66-.33.08-.53.79-.83.83-2.05.3-6.09.35-7.49-.83l-6.24-.83v-1.25l-.83-.42c-.05-.54.02-1.12,0-1.66-.01-.28.01-.56,0-.83l3.33-3.75c1.34-4.22.29-8.94.83-13.32.07-.54,1.37-1.96.83-4.16-.14-.57-.81-.37-.83-.42-.2-.42.18-1.49,0-2.08-.13-.45-2.54-2.62-3.33-2.91Z"/>
        <path class="cls-24" d="M356.97,165.55c-.8.65-2.28,4.17-2.91,4.16-.29,0-2.57-2.76-3.33-3.33-2.27-1.7-4.8-2.43-7.49-3.33-3.27-1.09-7.65-2.56-11.65-1.66-.32.07-.5.74-.83.83-1.44.4-5.06-4.77-6.66-5.83-1.35-.9-3.54-1.18-4.99-1.66-.34-.11-.51-.74-.83-.83-.68-.19-1.73.15-2.5,0-.32-.06-.52-.79-.83-.83-1.61-.24-4.98-.18-6.66,0-.3.03-.52.79-.83.83-4.54.67-4.48-1.13-7.49-2.5s-6.3-2.06-9.99-1.66c-.3.03-.52.79-.83.83-5.99.76-12.14,1.17-17.48,4.16-.55.31-1.38,1.66-1.66,1.66-.62,0-2.74-2.17-3.33-2.5-2.63-1.45-4.68-1.89-7.49-2.5-.33-.07-.52-.79-.83-.83-2.32-.34-8.43-.29-10.82,0-.3.04-.51.78-.83.83-1.8.32-2.44.34-4.16.83-7.18,2.04-13.7,5.51-17.89,12.07-1.58,2.47-4.24-.1-6.24-1.25-3.02.64-5.55-1.34-8.32-.83-.32.06-.51.77-.83.83-1.01.19-2.36-.21-3.33,0-.3.06-1.98,1.42-2.5,1.66-.42.19-1.11-.16-1.66,0-2.01.58-8.54,7.32-9.16,7.49-1.44.4-2.09,0-4.16.83-1.5.6-2.96,1.49-4.58,1.66.43-.96.69-.34,1.66-2.08.81-1.45,8.62-8.87,10.4-10.4,13.78-11.82,36.56-22.31,53.27-25.8,6.31-1.32,12.42-1.21,19.14-1.66.29-.02.54-.82.83-.83,7.5-.44,14.72.79,21.64,1.66,13.18,1.67,23.4,4.23,35.79,9.99,8.52,3.96,18.67,10.13,25.8,15.81,1.56,1.24,2.73,3.29,4.58,4.16Z"/>
        <path class="cls-19" d="M387.77,183.03c-3.3,2.23-5.73,4.9-8.74,7.49-.16.14-.68-.14-.83,0-.89.78-4.24,3.9-4.58,4.58-.81,1.65,1.16,1.09,1.66,1.25,2.23.7,5.09,1.36,7.07,2.5.49.28,2.15,1.41,2.5,1.66.75.56,2.37,2.16,2.91,2.91.13.17-.14.63,0,.83.39.57,1.55,1.28,1.66,1.66.15.52-.16,1.17,0,1.66.11.35.78.53.83.83.32,1.79.15,5.93,0,7.91-1.52.67-.5,1.21-.83,2.08-.31.79-1.87,3.04-2.5,3.75-2.04,2.3-6.74,5.53-9.57,6.66s-5.71,1.2-8.32,1.66c-.32.06-.53.79-.83.83-2.02.25-6.31.25-8.32,0-.3-.04-.51-.78-.83-.83-1.02-.18-2.35.2-3.33,0-.32-.06-.5-.75-.83-.83-1.19-.31-3.01-.49-4.16-.83-.15-.05-2.28-1.5-2.5-1.66-2.22-1.62-4.33-4.64-6.24-6.66-.03-.27.04-.56,0-.83-.21-1.45-.22-2.49-.83-3.75l-.83-.42c-.04-.27.02-.56,0-.83-.05-.7.13-2.37,0-2.5-.31-.31-3.13.62-3.75-.83h-1.25c0-.66-.14-1.6,0-2.08.23-.77,8.51-8.32,9.99-9.99,2.82-3.17,5.63-7.5,8.32-10.82,2.05-2.52,4.46-5.08,6.66-7.49-.29-1,.7-1.19.83-2.08.17-1.11-.33-1.57-.83-2.5-.39-.72-.67-1.61-1.66-1.66-.15-1.68.27-4.49,2.08-4.99.9-.25,5.5-.17,6.66,0,3.69.54,9.53,3.6,13.32,5.83.7.41,2.78,1.25,3.33,1.66s3.67,3.49,3.75,3.75c.18.59-.2,1.66,0,2.08ZM351.98,216.32s-.69-.15-.83.42c-.54,2.12.79,1.96.83,2.08.15.45-.15,1.51,0,1.66.08.08,1.65-.23,2.08.83l4.16-.83c4.59-2.46,8.54-5.06,11.24-9.57.69-1.16,1.87-2.4,1.66-3.75-.87-1.07-.76-3.81-2.08-4.16-.55-.15-2.72-.14-3.33,0-.3.07-.47.67-.83.83-.26.12-.65-.11-.83,0-1.39.83-3.52,3.68-4.99,4.99-1.79,1.59-4.51,3.08-6.24,5.41-.07.1-.43,1.52-.83,2.08Z"/>
        <path class="cls-2" d="M272.91,188.85l-.83.42c.09.74-.45,1.52-.83,2.08-2.78,4.07-5.36,5.64-10.4,4.99-1.41-.67-3.3-3-4.99-2.5s-1.12,3.2-1.25,3.33c-.18.18-1.48-.18-2.08,0-.47.14-1.21,1.54-1.66,1.66-.7.19-1.75-.17-2.5,0-.33.08-.52.77-.83.83-.76.14-2.57.14-3.33,0-.31-.06-.49-.74-.83-.83-.54-.15-1.21.18-1.66,0-.33-.13-.49-.67-.83-.83-.26-.12-.65.11-.83,0-.59-.35-2.42-2.26-2.91-2.91-.11-.15-.73-1.08-.83-1.25-.59-.96-1.08-1.73-.83-2.91l-.83-.42c.47-1.06-.35-4.63,0-6.24.06-.27,1.35-1.96,1.66-2.5.13-.22-.12-.65,0-.83,1.64-2.47,4.45-3.5,7.07-4.58,1.82-.75,3.54-2.01,5.83-1.66.43-1.06,2-.75,2.08-.83.23-.25.37-3.63-.83-4.16-.05-1.23.47-2.28-.83-2.5-.38-2.31-1.97-4.04-4.58-3.33-.63.17-1.08,1.5-1.25,1.66-.2.2-1.24.52-1.66,1.25-.72,1.23-.8,3.01-1.66,4.58-.77,1.39-2.27,3.24-3.75,3.33-.69,1.92-5.87-.04-6.24-.83-.12-.26.13-.8,0-1.25l-.83-.42c-.12-2.11.54-2.06.83-2.91.17-.48-.15-1.14,0-1.66.11-.39,1.28-1.1,1.66-1.66,1.69-2.49,2.69-3.65,5.41-5.41,2.86-1.86,4.91-2.45,8.32-3.33.33-.09.52-.77.83-.83.98-.2,2.31.18,3.33,0,.32-.06.53-.79.83-.83,1.26-.16,3.76-.18,4.99,0,.31.05.51.77.83.83.77.15,1.82-.19,2.5,0,.32.09.49.72.83.83.51.17,1.2-.18,1.66,0,.33.13.49.67.83.83.26.12.65-.11.83,0,1.96,1.17,2.96,3.42,3.75,5.41.14.35.77.53.83.83.51,2.32-.2,6.44,0,9.16.02.3.81.53.83.83.26,3.13-.93,8.49,2.08,10.4.2.13.64-.13.83,0,1.75,1.12,1.13,2.41,1.25,4.16ZM252.94,182.19c-.2-.51,0-2.15-1.25-2.5-1.08-.3-1.2.64-1.66.83s-1.1-.15-1.25,0c-.22.22.24,1.99,0,2.5-.05.1-.86-.4-.83,1.66.02,1.64.44,1.33.83,2.08.12.24-.11.65,0,.83.2.33,1.93,2.04,2.08,2.08,2.94.84,2.9-2.01,2.91-4.16,0-.89.18-2.19,0-2.91-.14-.57-.81-.37-.83-.42Z"/>
        <path class="cls-14" d="M207.16,222.98s.87-.11.83.42c-.01.16-1.47,1.43-.83,2.91v.83c-.33-.14-2.38-.11-2.91,0-.32.07-.52.78-.83.83-.89.16-2-.15-2.91,0v-.83c.62-1.05.72-1.33.83-2.5.08-.77.16-2.32,0-2.91-.05-.2-2.71-2.86-2.91-2.91-1.96-.54-2.7.66-3.33.83-2.12.58-7.21-4.63-8.74-5.83,1.51.63,2.67-.8,2.91-.83,2.03-.3,4.54.21,6.66,0l.42-.83,10.82,10.82Z"/>
        <path class="cls-6" d="M207.16,222.98l-10.82-10.82c.4-2.44-.6-1.3-1.25-1.66-1.63-.91-5.57-6.36-6.66-6.66-.57-.16-2.65-.12-3.33,0-.32.06-.51.77-.83.83-1.78.32-4.87-.25-5.41-2.08-.15-.51.05-1.4,0-2.08,1.61.87,1.51,1.67,3.75,1.66,1.92,0,3.68-1.42,5.83-.83.49.14,4.02,4.12,4.99,4.99,2.1,1.89,2.69,2.48,4.58,4.58,2.55,2.84,7.95,6.98,9.16,9.99.21.52-.21,1.62,0,2.08Z"/>
        <path class="cls-6" d="M312.86,199.67h.83c-.12.29.17.83,0,1.25-.88,2.2-6.6,2.39-8.74,2.08-.31-.05-.51-.77-.83-.83-2.62-.52-3.36-.55-5.83-1.66-2.97-1.34-3.5-.52-3.75-4.16l4.58,2.5c4.61.94,8.95,2.78,13.73.83Z"/>
        <path class="cls-6" d="M235.46,193.85h.83c.11.17.72,1.1.83,1.25.49.65,2.33,2.56,2.91,2.91.18.11.58-.12.83,0,.34.16.51.7.83.83.45.18,1.13-.15,1.66,0,.34.1.52.78.83.83.76.14,2.57.14,3.33,0,.31-.06.5-.76.83-.83.74-.17,1.8.19,2.5,0,.46-.13,1.2-1.53,1.66-1.66.6-.18,1.9.18,2.08,0,.13-.13-.4-2.84,1.25-3.33s3.59,1.83,4.99,2.5c5.05.65,7.63-.92,10.4-4.99h.83c-.88,1.36-.63,2.42-1.66,3.75-1.35,1.74-3.21,2.14-4.58,3.75-3.25.19-6.13.23-8.32-2.5-2.85-.71-2.52,2.28-4.16,3.33-.4.26-2.98,1.53-3.33,1.66-.47.17-1.13-.15-1.66,0-.34.1-.52.78-.83.83-.76.14-2.57.14-3.33,0-.31-.06-.49-.72-.83-.83-.5-.16-1.14.15-1.66,0-.39-.11-1.1-1.28-1.66-1.66-.2-.14-.66.13-.83,0-.63-.46-2.56-2.33-2.91-2.91-.41-.66-.59-2.32-.83-2.91Z"/>
        <path class="cls-6" d="M273.75,195.51v-.83l6.24.83c1.4,1.19,5.44,1.13,7.49.83.31-.04.5-.76.83-.83,1.81-.42,2.83.19,4.58-1.66-.05.68.15,1.57,0,2.08-.12.41-2.59,1.99-2.91,2.08-.69.19-1.74-.17-2.5,0-1.45.32-2.46,1.21-4.99.83-.31-.05-.53-.79-.83-.83-1.55-.19-3.62.31-4.99,0-.3-.07-.47-.67-.83-.83-.26-.12-.65.11-.83,0-.71-.42-.91-1.2-1.25-1.66Z"/>
        <path class="cls-6" d="M333.67,207.16c.03.08,1.21-.11.83,1.25-.19.68-2.43,1.77-2.5,2.91-.24-.24-6.35-.14-6.66,0l-4.58-2.5c-1.84-.3-3.43-2.55-4.58-4.16v-.83l8.74,4.99c1.71-.62,2.7.64,3.33.83,1.77.54,3.87-1.66,5.41-2.5Z"/>
        <path class="cls-6" d="M375.28,196.34c-.51-.16-2.48.4-1.66-1.25.34-.68,3.68-3.79,4.58-4.58.15-.14.67.14.83,0,3-2.59,5.44-5.26,8.74-7.49.04.08,1.21-.1.83,1.25l-13.32,12.07Z"/>
        <path class="cls-6" d="M230.47,173.87c.37.79,5.55,2.76,6.24.83,1.47-.09,2.98-1.94,3.75-3.33h.83c-.76,1.38-.54,1.91-.83,2.91-.06.2-2.53,2.68-2.91,2.91-.18.11-.57-.12-.83,0-.36.16-.54.76-.83.83-1.43.33-5.05-.86-5.41-2.08-.18-.59.2-1.66,0-2.08Z"/>
        <path class="cls-6" d="M229.63,205.5c-.14.3.22.92,0,1.25-.84,1.27-2.76,2.45-3.75,3.75l-6.24.83c-.04-.08-1.89-.66-.83-1.66.23-.22,2.29.5,2.91-.83,2.65.37,5.2-1.51,7.07-3.33h.83Z"/>
        <path class="cls-6" d="M318.69,182.19c.37-.94.54-3.02.83-3.75.09-.23.78-1.58.83-1.66.69-1.09,3.45-2.41,4.58-2.08.43.13.72,1.28,2.08.83-.15,1.43.85,1.76.83,3.33-1.6-1.3.03-1.85-2.91-1.66-1.89.12-1.61.46-2.5.83-.76.32-1.55-.69-1.25,1.25l-2.5,2.91Z"/>
        <path class="cls-6" d="M249.61,167.21c-.4-.07-.86.11-1.25,0-.34-.1-.52-.78-.83-.83-1.13-.2-2.55.13-3.75,0v-.83c.17-.17.61-1.49,1.25-1.66,2.6-.71,4.2,1.02,4.58,3.33Z"/>
        <path class="cls-6" d="M341.16,193.85v-.83c.42-.55,1.86-3.59,2.5-4.58,1.39-2.17,1.42.3,2.5-3.33.22-.74,1.62-1.15,1.66-1.25-.2.42.18,1.49,0,2.08-.09.31-2.92,4.45-3.33,4.99-.85,1.14-2.82,2.26-3.33,2.91Z"/>
        <path class="cls-6" d="M302.04,173.04c-.12-1.21-3.1-2.68-3.75-2.5-.31.09-.48.68-.83.83-.45.19-1.1-.15-1.25,0,.15-.22-.22-.87,0-1.25,1.09-1.9,5.34-1.7,5.83,0,.15.51-.14,1.14,0,1.66.09.34.81.54.83.83.04.52-.81.37-.83.42Z"/>
        <path class="cls-6" d="M335.33,211.32h1.25c.61,1.45,3.44.53,3.75.83.13.13-.05,1.79,0,2.5-2.6.98-3.7-1.41-4.99-1.66v-1.66Z"/>
        <path class="cls-23" d="M292.89,188.02c-1.82-3.86.84-8.08,1.66-12.07.2-.99-.24-2.44,0-3.33.19-.7,1.61-1.16,1.66-1.25-.17.17.17,1.47,0,2.08-.63,2.3-1.92,5.04-2.5,7.49l-.83,7.07Z"/>
        <path class="cls-6" d="M277.07,168.88c-2.31-1.35-3.33-2.38-3.33-4.99.79.29,3.2,2.46,3.33,2.91.18.59-.2,1.66,0,2.08Z"/>
        <path class="cls-6" d="M333.67,205.5c.11-1.37,1.18-3.71,1.66-5.41.35-1.22,3.28-3.46,3.33-3.75h.83c-1.71,2.45-3.52,6.05-4.99,8.74l-.83.42Z"/>
        <path class="cls-23" d="M243.78,166.38c.09,1.95-1.56,3.31-2.5,4.99h-.83c.87-1.57.94-3.35,1.66-4.58.43-.73,1.46-1.05,1.66-1.25v.83Z"/>
        <path class="cls-23" d="M341.16,193.85c-.22.29-1.12,1.71-1.66,2.5h-.83c.46-2.78,1.59-2.13,2.5-3.33v.83Z"/>
        <path class="cls-23" d="M314.53,193.85s-.69.15-.83-.42c-.38-1.5,1.94-4.16,2.5-5.41.07,2.03-.86,3.98-1.66,5.83Z"/>
        <path class="cls-23" d="M230.47,202.17c.21-1.03,1.39-2.04.83-3.75l.83-.42c-.08,1.82.52,3.54-1.66,4.16Z"/>
        <path class="cls-23" d="M272.91,190.52c.01.28-.01.56,0,.83h-1.66c.38-.56.92-1.34.83-2.08l.83-.42c.04.55-.02,1.12,0,1.66Z"/>
        <path class="cls-23" d="M236.29,193.85h-.83c-.34-.82-1.66-2.75-1.66-2.91-.03-.53.81-.37.83-.42l.83.42c-.24,1.18.24,1.96.83,2.91Z"/>
        <path class="cls-6" d="M361.13,178.87c-1.78-.23-1.37-1.84-1.66-2.5h.83c.5.93,1,1.39.83,2.5Z"/>
        <path class="cls-23" d="M360.3,176.37h-.83c-.04-.1-.65.41-.83-1.66.99.06,1.28.95,1.66,1.66Z"/>
        <path class="cls-23" d="M145.57,211.32h-.83c-.93-1.28-.75-1.92-.83-3.33l.83.42c-.47,1.4.66,2,.83,2.91Z"/>
        <path class="cls-23" d="M250.44,169.71c-1.45-.64-.62-1.17-.83-2.5,1.3.22.78,1.26.83,2.5Z"/>
        <path class="cls-23" d="M317.02,186.36v-2.08l.83-.42c-.2,1.35.6,1.87-.83,2.5Z"/>
        <path class="cls-23" d="M273.75,194.68v.83s-.69.15-.83-.42.07-1.4,0-2.08l.83.42v1.25Z"/>
        <path class="cls-23" d="M316.19,203.83v.83s-.69.15-.83-.42.02-1.4,0-2.08l.83.42v1.25Z"/>
        <path class="cls-23" d="M229.63,205.5h-.83c.27-.26.65-1.8,1.66-1.66-.26,2.04-.79,1.57-.83,1.66Z"/>
        <path class="cls-23" d="M230.47,173.87c-.05-.1-.72.41-.83-1.66l.83.42c.13.45-.12.99,0,1.25Z"/>
        <path class="cls-23" d="M347.82,183.86c.12-.26-.13-.8,0-1.25l.83-.42c-.18,2.07-.79,1.57-.83,1.66Z"/>
        <path class="cls-23" d="M313.69,199.67h-.83l1.66-1.66c-.09.63-.53.94-.83,1.66Z"/>
        <path class="cls-2" d="M400.25,227.97c1.84,1.25,10.09,11,10.82,12.48.41.82.55,2.99.83,3.75.18.46,1.6,2.19,1.66,2.5.21.97-.19,2.32,0,3.33.06.32.79.53.83.83.12.91-.07,1.96,0,2.91.06.81.04,1.69,0,2.5l-.83.42c.39,2.5-.48,4.15-1.66,6.24-1.29-.11-.67,1.5-.83,1.66-.31.31-3.78,1.41-4.58,1.66s-3.59,1.58-4.16,1.66c-4.35.64-9.16.53-13.32,1.66-.38.1-1.98,1.45-2.5,1.66-.45.19-1.1-.15-1.25,0-.11.11.02,1.81,0,2.5-.02.55.07,1.14,0,1.66-1.75.02-3.27.17-4.99-.42-3.58-1.22-7.06-3.84-9.16-7.07-.38-.59-.93-1.32-.83-2.08l-.83-.42c.05-1.6.28-4.1.83-5.41.04-.1.64-.98.83-1.25.03-.04.69.15.83-.42.46-1.87-3.65-3.12-4.58-4.58l-2.91-1.66c-.47-1.8-.58-3.47-1.66-5.41l-.83-.42c0-.92-.16-2.12,0-2.91.06-.31.73-.49.83-.83.16-.54-.18-1.21,0-1.66.33-.84,1.84-2.98,2.5-3.75.58-.68,1.6-1.48,2.5-2.5.04-.04.35.27.83-.83.41-.03.83.03,1.25,0l.42-.83c.54-.06,1.12.02,1.66,0,1.79-.05,4.65-.28,6.24,0,.31.06.49.74.83.83.93.27,2.39.26,3.33.83.58.35,1.07,1.25,1.66,1.66.34.23,1.05-.16,1.25,0,.57.44,3.65,4.56,4.16,5.41.9,1.51,1.58,4.4,2.5,5.83.83,1.28,2.26,1.58,3.75,1.25.31-.07,1.98-1.42,2.5-1.66.42-.19,1.12.16,1.66,0,.9-.26,2.91-2.83,2.91-4.16,0-1.51-1.01-3.21-2.08-4.16l-4.16-.83c-1.31-1.28-3.43-.75-4.99-1.66l-4.58-4.16c-.12-.85.19-3.14,0-3.33,1.25-2.64,4.42-3.81,7.07-3.33.31.06.49.74.83.83,1.95.55,2.23.6,4.16,1.66.39.21,1.03-.15,1.25,0ZM376.12,251.27c.2.5,0,2.15,1.25,2.5,1.97.54,2.79-.7,3.33-.83.74-.18,1.8.19,2.5,0,.31-.08.48-.68.83-.83.26-.11.65.1.83,0,.59-.33.38-.8.42-.83s.7.14.83-.42c.34-1.39-.8-1.17-.83-1.25-.38-.86-.02-2.68-2.08-2.5-.94-2.28-7.55.89-7.91,2.08-.58,1.97.79,1.98.83,2.08Z"/>
        <path class="cls-6" d="M412.74,262.93c-.12.31.17.84,0,1.25-.29.71-1.49,1.97-1.66,2.91-1.44-.71-2.26,1.48-2.91,1.66-6.11,1.75-12.93,1.8-19.14,3.33l-3.75,1.66c.02-.69-.11-2.38,0-2.5.15-.15.8.19,1.25,0,.52-.22,2.11-1.56,2.5-1.66,4.16-1.13,8.97-1.03,13.32-1.66.57-.08,3.35-1.41,4.16-1.66s4.27-1.35,4.58-1.66c.16-.16-.46-1.78.83-1.66h.83Z"/>
        <path class="cls-6" d="M385.27,275.41c-.38,2.7-1.99,3.07-4.58,2.5-.3-.07-.48-.69-.83-.83-3.32-1.32-5.65-2.51-7.91-5.41-1.03-1.33-.79-2.39-1.66-3.75h.83c2.1,3.23,5.57,5.86,9.16,7.07,1.73.59,3.24.44,4.99.42Z"/>
        <path class="cls-23" d="M371.12,267.92h-.83c-.28.01-.56-.02-.83,0,.02-.83-.03-1.67,0-2.5l.83.42c-.09.76.45,1.49.83,2.08Z"/>
        <path class="cls-6" d="M154.73,228.8l-3.33-3.33c-.47-2.73-2.02-3.78-3.33-7.49h.83c.89,1.47,1.61,3.07,2.5,4.58.5.85,3.18,3.65,3.33,4.16.18.59-.2,1.66,0,2.08Z"/>
        <path class="cls-23" d="M154.73,230.47v-1.66c.04.08,1.17-.14.83,1.25-.14.57-.82.37-.83.42Z"/>
        <path class="cls-6" d="M386.94,222.14l.83.83c-.75,1.04-2.51,3.47-3.33,4.16-2.06,1.75-5.77,2.95-7.91,4.16l-4.58,1.66c-.55.02-1.13-.06-1.66,0-1.16.13-1.14-.36-1.66.83-.28.02-.56,0-.83,0-5.86.15-10.45-.46-15.4-2.5-1.09-.45-3.35-1.12-4.16-1.66-.57-.38-4.49-4.27-4.58-4.58-.15-.51.15-1.15,0-1.66-.21-.73-1.62-1.15-1.66-1.25-.13-.27.05-1.13,0-1.66,1.91,2.01,4.02,5.04,6.24,6.66.22.16,2.34,1.62,2.5,1.66,1.15.34,2.97.53,4.16.83.33.09.52.77.83.83.98.2,2.31-.18,3.33,0,.32.06.53.79.83.83,2.02.25,6.31.25,8.32,0,.3-.04.51-.78.83-.83,2.61-.46,5.64-.6,8.32-1.66,2.83-1.12,7.53-4.36,9.57-6.66Z"/>
        <path class="cls-28" d="M384.44,227.14c-.85,2.71,2.08,1.25,2.5,1.66.19.19-.12,2.48,0,3.33.21,1.41.83,2.04.83,3.33h-2.08l-.42.83c-.2-.16-.91.23-1.25,0-.6-.41-1.09-1.32-1.66-1.66-.94-.57-2.4-.57-3.33-.83-.34-.1-.52-.78-.83-.83-1.6-.28-4.45-.05-6.24,0l4.58-1.66c2.14-1.21,5.84-2.41,7.91-4.16Z"/>
        <path class="cls-23" d="M387.77,222.98l-.83-.83c.63-.71,2.19-2.96,2.5-3.75.34-.87-.69-1.41.83-2.08-.05.68.15,1.54,0,2.08-.1.38-1.43,1.96-1.66,2.5-.2.44.17,1.14,0,1.66-.19.57-.81.38-.83.42Z"/>
        <path class="cls-23" d="M412.74,262.93h-.83c1.18-2.09,2.06-3.75,1.66-6.24l.83-.42c-.19,3.75-.51,3.56-1.66,6.66Z"/>
        <path class="cls-23" d="M168.05,273.75c-.74.09-.85-.84-1.66-.83v-.83h.83c.05.1.52-.33.83,1.66Z"/>
        <path class="cls-23" d="M147.24,214.65c-2.15.22-1.56.02-1.66-1.66.86.07,1.42.88,1.66,1.66Z"/>
        <path class="cls-23" d="M148.9,217.98h-.83c-.33-.94-.55-1.62-.83-2.5l.83.42c-.1.79.46,1.46.83,2.08Z"/>
        <path class="cls-17" d="M302.04,398.59c-.56.67-1.36-1.03-.83-1.66.56-.67,1.36,1.03.83,1.66Z"/>
        <path class="cls-28" d="M191.77,372.79c.54,0,.54.83,0,.83s-.54-.83,0-.83Z"/>
        <path class="cls-28" d="M213.82,387.77c-.56.67-1.36-1.03-.83-1.66.56-.67,1.36,1.03.83,1.66Z"/>
        <path class="cls-17" d="M221.73,391.1c.54,0,.54.83,0,.83s-.54-.83,0-.83Z"/>
        <path class="cls-22" d="M344.07,384.44c.54,0,.54.83,0,.83s-.54-.83,0-.83Z"/>
        <path class="cls-3" d="M178.45,361.97c.54,0,.54.83,0,.83s-.54-.83,0-.83Z"/>
        <path class="cls-22" d="M237.96,394.43c.31,1.87,1.29,3.38.83,5.41-.07.3-.67.47-.83.83-.12.26.11.65,0,.83-.99,1.67-3.36,3.48-5.41,2.91s-2.5-4.38-2.08-6.24c.07-.3.67-.47.83-.83.12-.26-.11-.65,0-.83.23-.39,2.72-2.86,2.91-2.91,1.56-.45,2.23,1.04,3.75.83Z"/>
        <path class="cls-27" d="M252.94,407.74c-.08.08-1.65-.23-2.08.83-4.57.75-2.86-1.69-2.08-4.99,2.14-1.05,5.38,2.89,4.16,4.16Z"/>
        <path class="cls-27" d="M248.78,401.08c-.39-.4.23-1.89.42-2.5.46-1.52.54-2.28,2.5-1.66.93.29,1.53,1.9,1.25,2.91-.37,1.33-3.81,1.61-4.16,1.25Z"/>
        <path class="cls-7" d="M322.43,386.94c.52-.14,2.82-.14,3.33,0,.2.05,2.86,2.72,2.91,2.91.15.52-.16,1.17,0,1.66.23.73,1.36,1.4.83,3.33-.05.2-2.72,2.85-2.91,2.91-1.31.39-1.68-.2-2.5-.83-.49-.38-2.86-2.71-2.91-2.91-.36-1.31-.3-6.66,1.25-7.07Z"/>
        <path class="cls-20" d="M251.69,321.19c2.06-.48,2.75.69,3.33.83.74.18,1.8-.19,2.5,0,.1.03,1.51.74,1.66.83.44.26,3.67,3.49,3.75,3.75.14.51.14,2.82,0,3.33-.05.2-2.71,2.86-2.91,2.91-.82.23-7.37.21-8.32,0-.3-.07-.48-.69-.83-.83-1.69-.67-3.57-1.23-4.58-2.91-.11-.18.12-.57,0-.83-.43-.95-1.33-1.53-.83-3.33.05-.2,2.71-2.86,2.91-2.91.7-.19,1.76.17,2.5,0,.32-.08.51-.76.83-.83Z"/>
        <path class="cls-20" d="M257.93,346.99c-.15.15-.8-.19-1.25,0-.34.14-.51.71-.83.83-.46.17-1.12-.14-1.66,0-.33.08-.52.78-.83.83-.76.14-2.57.14-3.33,0-.32-.06-.51-.76-.83-.83-.75-.17-1.81.19-2.5,0-.31-.08-.48-.67-.83-.83-.26-.12-.65.11-.83,0-3.12-1.86-5.57-6.83-1.66-9.16.18-.11.57.12.83,0,.36-.16.54-.77.83-.83,1-.22,6.48-.22,7.49,0,.3.07.48.69.83.83,1.69.67,3.57,1.23,4.58,2.91.11.18-.12.57,0,.83.46,1.01,1.26,1.44.83,3.33-.07.3-.68.48-.83.83-.19.45.15,1.1,0,1.25Z"/>
        <path class="cls-20" d="M269.17,359.47c.76-.14,2.57-.14,3.33,0,.32.06.51.76.83.83.75.17,1.81-.19,2.5,0,.31.08.48.67.83.83.26.12.65-.11.83,0,3.12,1.86,5.57,6.83,1.66,9.16-.18.11-.57-.12-.83,0-.36.16-.54.77-.83.83-1,.22-6.48.22-7.49,0-.3-.07-.48-.69-.83-.83-1.69-.67-3.57-1.23-4.58-2.91-.11-.18.12-.57,0-.83-.43-.95-1.33-1.53-.83-3.33.05-.2,2.72-2.86,2.91-2.91.52-.15,1.17.16,1.66,0,.34-.11.53-.78.83-.83Z"/>
        <path class="cls-20" d="M271.66,343.66c.96-.22,4.78-.19,5.83,0,.31.06.49.74.83.83.54.15,1.21-.18,1.66,0,.24.1,1.5.73,1.66.83.39.23,2.86,2.71,2.91,2.91.61,2.22-.06,5.04-2.08,6.24-.18.11-.57-.12-.83,0-.36.16-.54.77-.83.83-.96.22-4.78.19-5.83,0-.31-.06-.49-.74-.83-.83-.54-.15-1.21.18-1.66,0-.24-.1-1.5-.73-1.66-.83-.39-.23-2.86-2.71-2.91-2.91-.61-2.22.06-5.04,2.08-6.24.18-.11.57.12.83,0,.36-.16.54-.77.83-.83Z"/>
        <path class="cls-20" d="M241.7,352.81c.96-.22,4.78-.19,5.83,0,.31.06.49.74.83.83.54.15,1.21-.18,1.66,0,.24.1,1.5.73,1.66.83.39.23,2.86,2.71,2.91,2.91.61,2.22-.06,5.04-2.08,6.24-.18.11-.57-.12-.83,0-.36.16-.54.77-.83.83-.96.22-4.78.19-5.83,0-.31-.06-.49-.74-.83-.83-.54-.15-1.21.18-1.66,0-.24-.1-1.5-.73-1.66-.83-.39-.23-2.86-2.71-2.91-2.91-.61-2.22.06-5.04,2.08-6.24.18-.11.57.12.83,0,.36-.16.54-.77.83-.83Z"/>
        <path class="cls-20" d="M275.83,328.68c1.04-.23,5.53-.2,6.66,0,.31.05.49.72.83.83.5.16,1.14-.15,1.66,0,.25.07,3.47,3.29,3.75,3.75.11.18-.12.59,0,.83.18.36.75.53.83.83.24.84-2.08,4.34-2.91,4.58-.52.15-1.17-.16-1.66,0-.35.11-.53.78-.83.83-.9.16-3.26.16-4.16,0-.31-.06-.49-.74-.83-.83-.54-.15-1.21.18-1.66,0-.24-.1-1.5-.73-1.66-.83-.44-.26-3.67-3.49-3.75-3.75-.56-2.05.26-4.32,2.08-5.41.18-.11.57.12.83,0,.36-.16.54-.77.83-.83Z"/>
        <path class="cls-24" d="M292.06,256.27c.91.2,1.55,2.09,1.66,2.91.11.75.57,3.95-.83,3.75.13-2.38-1.36-4.38-1.66-6.66h.83Z"/>
        <path class="cls-18" d="M292.06,256.27h-.83c-.59-4.44,1.33-4.66.83,0Z"/>
        <path class="cls-27" d="M245.45,285.4c-.91,3.66-1.85,7.67-3.33,10.82-9.84.05-19.7-.07-29.55,0-1.3,0-4.04-.6-4.58.83-.21-.14-.82.19-1.25,0-8.31-3.65-15.53-7.12-23.72-9.99-.47-2.51,1.27-1.64,2.91-1.66,19.83-.24,39.69.18,59.51,0Z"/>
        <path class="cls-7" d="M242.12,296.22c-.1.22-.66,3.71-.83,4.58-1.13,5.53-1.95,10.81-3.33,16.23-3.22.37-4.91-3.24-7.07-4.99-6.73-5.46-15.47-9.91-22.89-14.98.54-1.43,3.28-.82,4.58-.83,9.85-.07,19.71.05,29.55,0Z"/>
        <path class="cls-3" d="M215.49,195.51c.38.79.98,1.23.83,2.08l.83.42c-.15,2.34-2.89,4.85-5.41,4.16-1.03-.28-3.13-5.52-4.58-6.24-.88-2.76-3.96-4.9-4.16-7.91,1.41-.94,2.93-1.07,4.58-.83,4,.57,5.17,4.68,7.91,7.07.17.43-.13.98,0,1.25Z"/>
        <path class="cls-6" d="M216.32,195.51h-.83c-.13-.27.17-.82,0-1.25-2.74-2.39-3.9-6.5-7.91-7.07-1.64-.23-3.16-.1-4.58.83-.24-3.56,2.28-4.03,5.41-3.33.3.07.47.67.83.83.26.12.65-.11.83,0,.65.38,3.22,3.03,3.75,3.75.82,1.13,1.97,3.64,2.5,4.99.16.41-.12.94,0,1.25Z"/>
        <path class="cls-23" d="M217.15,198.01l-.83-.42c.15-.86-.46-1.3-.83-2.08h.83c.05.14.99.1.83,2.5Z"/>
        <path class="cls-23" d="M208.83,227.97h-.83c-.03-.05-.78-.81-.83-.83v-.83l1.66,1.66Z"/>
        <path class="cls-6" d="M175.54,273.75l-.83,3.33c-1.34-.46-1.75.77-2.08.83-2.94.53-4.1.15-4.58-2.5h.83c3.08.97,4.11-1.1,5.83-1.66.21-.07.54.03.83,0Z"/>
        <path class="cls-23" d="M176.37,273.75c-.28.01-.56-.03-.83,0-.29.03-.62-.07-.83,0,1.92-1.76,1.22-2.95,1.66-4.58.15-.55,1.52-2.78,1.66-3.33.34-1.28-.73-2.23.83-2.91-.21,3.33-.35,6.83-2.5,9.57v1.25Z"/>
        <path class="cls-23" d="M168.88,275.41h-.83c-.05-.26.02-.55,0-.83l.83.83Z"/>
        <path class="cls-17" d="M178.87,262.93c.02-.27,0-.56,0-.83l.83.42c-.16.57-.61.32-.83.42Z"/>
        <path class="cls-23" d="M341.99,219.65l-.83-.42c.12-1.48-.58-2.25-.83-3.75l.83.42c.61,1.26.62,2.3.83,3.75Z"/>
        <path class="cls-6" d="M364.46,252.11l2.91,1.66c.93,1.45,5.03,2.7,4.58,4.58-.14.56-.8.38-.83.42-1.62-.37-2.55-1.65-3.75-2.5-.17-.12-.62.13-.83,0-.74-.47-1.88-2.44-2.08-3.33-.06-.27.07-.58,0-.83Z"/>
        <path class="cls-23" d="M364.46,252.11c.07.26-.06.57,0,.83l-1.66-1.66c-.49-1.82-.83-2.87-.83-4.99l.83.42c1.08,1.94,1.19,3.61,1.66,5.41Z"/>
        <path class="cls-6" d="M183.03,248.78c.16,3.87-.19,1.95-2.91,2.5-6.61,1.32-14.75,1.07-21.64,1.66-1.66.14-3.01.35-4.58.83-1.26-.15-.96-.81-.42-1.66.82-1.3,1.72-.59,2.5-.83.34-.11.53-.78.83-.83,1.93-.34,4.56.19,6.66,0,4.65-.43,9.98-.41,14.98-.83,1.36-.12,2.73-1.42,4.58-.83Z"/>
        <path class="cls-6" d="M200.5,227.97c-1.43.23-.57,1.18-.83,2.08-.06.21-2.24,3.01-2.5,3.33-.81,1.01-7.37,7.76-7.91,7.91s-3.6.15-4.16,0c-.6-.16-.97-1.28-1.25-1.66v-.83c1.59-.26,4.04.38,5.41,0,1.28-.35,9.24-9.95,10.4-11.65h.83v.83Z"/>
        <path class="cls-6" d="M182.19,234.63h-.83c-1.71-2.07-7.66-4.69-9.99-5.83-.04-.02.18-.55-.42-.83s-1.78-.69-2.5-.83l-.42.83c-.04-.1-1.41-.11-.83-2.08.74-2.51,3.31-.3,4.58.42,2.16,1.21,5.63,2.77,7.49,4.16.69.52,2.47,2.24,2.91,2.91.22.33-.13.95,0,1.25Z"/>
        <path class="cls-28" d="M171.37,228.8l-1.66,1.66c-.06-.09-1.16-.5-1.66-1.25-.22-.32.13-.93,0-1.25l.42-.83c.72.14,1.88.54,2.5.83s.37.81.42.83Z"/>
        <path class="cls-23" d="M183.86,238.79v.83s-.64.16-.83-.42c-.46-1.36-.45-3.11-1.66-4.58h.83c.43.95,1.78,2.62,1.66,4.16Z"/>
        <path class="cls-17" d="M367.79,234.63v-.83c.28,0,.56.02.83,0-.48,1.1-.79.79-.83.83Z"/>
        <path class="cls-23" d="M200.5,227.14h-.83c.38-.56.92-1.34.83-2.08l.83-.42c-.12,1.17-.22,1.45-.83,2.5Z"/>
        <path class="cls-3" d="M371.12,207.16c.2,1.34-.97,2.59-1.66,3.75-2.7,4.51-6.65,7.11-11.24,9.57l-4.16.83c-.43-1.06-2-.75-2.08-.83-.15-.16.15-1.22,0-1.66v-1.66l12.9-11.65c2.68-.23,4.23-.16,6.24,1.66Z"/>
        <path class="cls-6" d="M371.12,207.16c-2.01-1.83-3.57-1.9-6.24-1.66l-12.9,11.65v-.83c.4-.56.76-1.98.83-2.08,1.73-2.33,4.45-3.82,6.24-5.41,1.48-1.31,3.6-4.16,4.99-4.99.18-.11.57.12.83,0,.36-.16.54-.77.83-.83.6-.14,2.77-.15,3.33,0,1.32.35,1.21,3.09,2.08,4.16Z"/>
        <path class="cls-23" d="M351.98,217.15v1.66c-.04-.12-1.37.04-.83-2.08.14-.56.81-.38.83-.42v.83Z"/>
        <path class="cls-3" d="M252.94,182.19c.19.19-.13,2.18,0,2.91l.83.42c0,2.15.02,5-2.91,4.16-.15-.04-1.88-1.75-2.08-2.08-.11-.18.12-.59,0-.83-.39-.75-.81-.44-.83-2.08l.83-.42c.11-.46-.12-1.13,0-1.25.15-.15.8.19,1.25,0s2.09-1.66,2.91-.83Z"/>
        <path class="cls-6" d="M252.94,182.19c-.83-.83-2.45.64-2.91.83s-1.1-.15-1.25,0c.24-.5-.22-2.28,0-2.5.15-.15.8.19,1.25,0s.59-1.13,1.66-.83c1.25.35,1.04,1.99,1.25,2.5Z"/>
        <path class="cls-23" d="M253.77,185.52l-.83-.42c-.13-.73.19-2.72,0-2.91.02.04.69-.15.83.42.18.72,0,2.02,0,2.91Z"/>
        <path class="cls-23" d="M247.94,184.69c-.03-2.06.79-1.57.83-1.66-.12.12.11.78,0,1.25l-.83.42Z"/>
        <path class="cls-1" d="M387.77,235.46c.03,1.45,1.76,1.44,2.08,1.66.57.39,1.27,1.55,1.66,1.66,2.54.75,5.01,1.53,7.49,1.66l3.75,2.5c0,1.33-2.02,3.9-2.91,4.16-.55.16-1.25-.19-1.66,0-.52.24-2.19,1.6-2.5,1.66-1.48.33-2.92.03-3.75-1.25-.92-1.42-1.6-4.31-2.5-5.83-.51-.85-3.6-4.97-4.16-5.41l.42-.83h2.08Z"/>
        <path class="cls-17" d="M385.27,250.44v.83s.18.5-.42.83c-.19.1-.57-.11-.83,0-.35.15-.52.75-.83.83-.7.19-1.76-.18-2.5,0-.54.13-1.36,1.38-3.33.83-1.26-.35-1.04-2-1.25-2.5.38-2,1.94-1.35,2.91-1.66.34-.11.52-.76.83-.83,2.05-.48,3.64.84,5.41,1.66Z"/>
        <path class="cls-6" d="M402.75,242.95l-3.75-2.5c-2.48-.14-4.95-.92-7.49-1.66-.39-.12-1.1-1.27-1.66-1.66-.32-.22-2.05-.21-2.08-1.66,0-1.29-.63-1.92-.83-3.33l4.58,4.16c1.57.92,3.68.39,4.99,1.66l4.16.83c1.07.95,2.09,2.65,2.08,4.16Z"/>
        <path class="cls-6" d="M385.27,249.61v.83c-1.77-.82-3.36-2.14-5.41-1.66-.32.07-.49.72-.83.83-.98.31-2.53-.33-2.91,1.66-.04-.1-1.41-.11-.83-2.08.35-1.19,6.96-4.36,7.91-2.08,2.06-.18,1.7,1.64,2.08,2.5Z"/>
        <path class="cls-5" d="M370.29,232.96l-.42.83c-.42.03-.84-.03-1.25,0,.52-1.2.5-.7,1.66-.83Z"/>
        <path class="cls-23" d="M385.27,251.27v-1.66c.04.08,1.17-.14.83,1.25-.14.56-.8.38-.83.42Z"/>
      </g>
    </g>
  </g>
</svg>