<svg width="73" height="73" viewBox="0 0 73 73" fill="none" xmlns="http://www.w3.org/2000/svg">
<g clip-path="url(#clip0_9331_623)">
<mask id="mask0_9331_623" style="mask-type:luminance" maskUnits="userSpaceOnUse" x="0" y="0" width="73" height="73">
<path d="M72.6425 0.178223H0V72.8207H72.6425V0.178223Z" fill="white"/>
</mask>
<g mask="url(#mask0_9331_623)">
<path d="M54.4819 0.178223H18.1606C8.13079 0.178223 0 8.30901 0 18.3389V54.6601C0 64.6899 8.13079 72.8207 18.1606 72.8207H54.4819C64.5117 72.8207 72.6425 64.6899 72.6425 54.6601V18.3389C72.6425 8.30901 64.5117 0.178223 54.4819 0.178223Z" fill="#0078D4"/>
<path fill-rule="evenodd" clip-rule="evenodd" d="M35.5682 33.9648C27.8748 45.1053 16.5322 59.5798 -3.97121 59.5798C-6.66966 59.5798 -8.85718 57.4131 -8.85718 54.7407C-8.85718 52.0682 -6.66966 49.9015 -3.97121 49.9015C11.0599 49.9015 19.8163 39.631 27.5023 28.5011C28.2112 27.4743 28.9248 26.4175 29.6431 25.3542C32.5413 21.0614 35.5119 16.6618 38.5441 13.7089C40.5242 11.7807 42.9877 9.97962 46.0256 9.29105C49.2513 8.55991 52.4274 9.2343 55.3973 10.9991C57.5986 12.3073 59.2746 14.0992 60.2927 16.3318C61.2858 18.51 61.5159 20.8044 61.3587 22.9648C61.0559 27.1338 59.239 31.6196 57.1762 35.7837C55.3906 39.3876 53.1799 43.2065 51.0516 46.884C50.6728 47.5382 50.2963 48.1882 49.9256 48.8319C47.4114 53.1953 45.1258 57.2953 43.5554 61.0091C41.9677 64.7634 41.0259 67.5368 40.9003 69.6226C40.8433 70.5725 40.9766 71.1473 41.1388 71.5095C41.2824 71.8306 41.5596 72.242 42.2685 72.7098C43.095 73.2559 43.6233 73.3308 43.9964 73.3212C44.4545 73.3096 45.1687 73.1499 46.2861 72.5402C48.3282 71.4257 50.4975 69.5557 53.5027 66.965C54.1594 66.3992 54.8563 65.7987 55.6002 65.1639C63.4561 58.4633 74.5891 49.9015 91.9714 49.9015C94.6698 49.9015 96.8571 52.0682 96.8571 54.7407C96.8571 57.4131 94.6698 59.5798 91.9714 59.5798C78.2609 59.5798 69.4319 66.1385 61.977 72.4973C61.399 72.9903 60.8127 73.498 60.2201 74.0111C57.2165 76.6119 54.0524 79.3517 51.0022 81.0162C49.0498 82.0822 46.7821 82.9321 44.2453 82.9961C41.6235 83.0621 39.1437 82.2782 36.8481 80.7625C34.7533 79.3794 33.1726 77.5945 32.2042 75.4295C31.2544 73.3057 31.0219 71.1057 31.1458 69.0472C31.382 65.1174 32.9887 60.9437 34.5421 57.2706C36.372 52.9429 38.9408 48.3697 41.4387 44.0347C41.8307 43.3543 42.2208 42.68 42.6076 42.0118C44.743 38.3209 46.7691 34.8193 48.4031 31.5206C50.3733 27.5436 51.4523 24.4703 51.6122 22.2696C51.6865 21.2449 51.5403 20.6513 51.3867 20.3148C51.2581 20.0327 51.0172 19.683 50.37 19.2983C49.1757 18.5886 48.562 18.6443 48.2059 18.7252C47.6616 18.8486 46.7505 19.29 45.3956 20.6094C43.1483 22.7982 40.9399 26.0592 38.128 30.2111C37.3284 31.3916 36.48 32.6444 35.5682 33.9648Z" fill="#FFFFFF" fill-opacity="0.12"/>
<path d="M34.3846 34.5629H25.0886C22.9193 34.5629 21.8347 34.5629 21.0061 34.9851C20.2773 35.3564 19.6848 35.949 19.3134 36.6778C18.8913 37.5063 18.8913 38.591 18.8913 40.7602V53.9296M53.7513 53.9296V25.2669C53.7513 23.0976 53.7513 22.013 53.3291 21.1845C52.9577 20.4556 52.3652 19.8631 51.6364 19.4917C50.8078 19.0696 49.7232 19.0696 47.5539 19.0696H40.5819C38.4127 19.0696 37.328 19.0696 36.4995 19.4917C35.7707 19.8631 35.1781 20.4556 34.8068 21.1845C34.3846 22.013 34.3846 23.0976 34.3846 25.2669V53.9296M55.6879 53.9296H16.9546M41.1629 26.8162H46.9729M41.1629 34.5629H46.9729M41.1629 42.3096H46.9729" stroke="#FFFFFF" stroke-width="3.2" stroke-linecap="round" stroke-linejoin="round"/>
</g>
</g>
<defs>
<clipPath id="clip0_9331_623">
<rect width="73" height="73" fill="white"/>
</clipPath>
</defs>
</svg>
