<svg width="73" height="73" viewBox="0 0 73 73" fill="none" xmlns="http://www.w3.org/2000/svg">
<g clip-path="url(#clip0_3622_2243)">
<mask id="mask0_3622_2243" style="mask-type:luminance" maskUnits="userSpaceOnUse" x="0" y="0" width="73" height="73">
<path d="M72.6425 0.178223H0V72.8207H72.6425V0.178223Z" fill="white"/>
</mask>
<g mask="url(#mask0_3622_2243)">
<path d="M54.4819 0.178223H18.1606C8.13079 0.178223 0 8.30901 0 18.3389V54.6601C0 64.6899 8.13079 72.8207 18.1606 72.8207H54.4819C64.5117 72.8207 72.6425 64.6899 72.6425 54.6601V18.3389C72.6425 8.30901 64.5117 0.178223 54.4819 0.178223Z" fill="#0078D4"/>
<path fill-rule="evenodd" clip-rule="evenodd" d="M35.5454 33.9648C27.8312 45.1053 16.458 59.5798 -4.10082 59.5798C-6.80657 59.5798 -9 57.4131 -9 54.7407C-9 52.0682 -6.80657 49.9015 -4.10082 49.9015C10.9709 49.9015 19.7509 39.631 27.4578 28.5011C28.1686 27.4743 28.8841 26.4175 29.6043 25.3542C32.5104 21.0614 35.489 16.6618 38.5293 13.7089C40.5148 11.7807 42.985 9.97962 46.0311 9.29105C49.2655 8.55991 52.4502 9.2343 55.4281 10.9991C57.6354 12.3073 59.3159 14.0992 60.3367 16.3318C61.3325 18.51 61.5633 20.8044 61.4057 22.9648C61.102 27.1338 59.2802 31.6196 57.2119 35.7837C55.4214 39.3876 53.2048 43.2065 51.0707 46.884C50.6909 47.5382 50.3134 48.1882 49.9416 48.8319C47.4207 53.1953 45.1288 57.2953 43.5542 61.0091C41.9622 64.7634 41.0179 67.5368 40.892 69.6226C40.8348 70.5725 40.9685 71.1473 41.1311 71.5095C41.2751 71.8306 41.553 72.242 42.2638 72.7098C43.0926 73.2559 43.6224 73.3308 43.9965 73.3212C44.4558 73.3096 45.1719 73.1499 46.2923 72.5402C48.3399 71.4257 50.5151 69.5557 53.5285 66.965C54.1868 66.3992 54.8856 65.7987 55.6315 65.1639C63.5087 58.4633 74.6718 49.9015 92.1011 49.9015C94.8067 49.9015 97 52.0682 97 54.7407C97 57.4131 94.8067 59.5798 92.1011 59.5798C78.3536 59.5798 69.5006 66.1385 62.0256 72.4973C61.4461 72.9903 60.8582 73.498 60.2639 74.0111C57.2523 76.6119 54.0796 79.3517 51.0212 81.0162C49.0634 82.0822 46.7897 82.9321 44.246 82.9961C41.6171 83.0621 39.1306 82.2782 36.8288 80.7625C34.7284 79.3794 33.1434 77.5945 32.1723 75.4295C31.22 73.3057 30.9869 71.1057 31.1111 69.0472C31.3479 65.1174 32.959 60.9437 34.5166 57.2706C36.3514 52.9429 38.9272 48.3697 41.4318 44.0347C41.8249 43.3543 42.2161 42.68 42.6039 42.0118C44.745 38.3209 46.7766 34.8193 48.4151 31.5206C50.3906 27.5436 51.4725 24.4703 51.6328 22.2696C51.7073 21.2449 51.5607 20.6513 51.4067 20.3148C51.2778 20.0327 51.0362 19.683 50.3872 19.2983C49.1897 18.5886 48.5744 18.6443 48.2173 18.7252C47.6715 18.8486 46.7579 19.29 45.3994 20.6094C43.146 22.7982 40.9317 26.0592 38.1121 30.2111C37.3104 31.3916 36.4597 32.6444 35.5454 33.9648Z" fill="#FFFFFF" fill-opacity="0.12"/>
<path fill-rule="evenodd" clip-rule="evenodd" d="M36.1931 38.1669C38.2438 40.2228 41.5755 40.2228 43.6261 38.1669L49.8203 31.9727C51.871 29.922 51.871 26.5956 49.8203 24.5397C47.7697 22.489 44.438 22.489 42.3873 24.5397L39.0767 27.8555C37.743 27.3811 36.3513 27.1439 34.9543 27.1439C34.9121 27.1439 34.87 27.1439 34.8278 27.1439L39.9096 22.062C43.3309 18.646 48.8767 18.646 52.298 22.062C55.7193 25.4833 55.7193 31.0291 52.298 34.4504L46.1038 40.6445C42.6825 44.0658 37.1368 44.0658 33.7155 40.6445C33.2937 40.2228 32.9195 39.7642 32.6032 39.2844L33.7155 38.1669C34.0581 37.8242 34.5062 37.6555 34.9543 37.6555C35.4024 37.6555 35.8505 37.8242 36.1931 38.1669ZM25.0436 49.3164C27.0996 51.367 30.426 51.367 32.4766 49.3164L35.7872 46.0058C37.1209 46.4802 38.5127 46.7174 39.9096 46.7174C39.9518 46.7174 39.994 46.7174 40.0362 46.7122L34.9543 51.794C31.533 55.2153 25.9873 55.2153 22.566 51.794C19.1447 48.3727 19.1447 42.827 22.566 39.4057L28.7601 33.2115C32.1814 29.7902 37.7272 29.7902 41.1485 33.2115C41.5755 33.6385 41.9445 34.0919 42.2661 34.5769L41.1485 35.6892C40.8058 36.0318 40.3577 36.2058 39.9096 36.2058C39.4616 36.2058 39.0135 36.0318 38.6708 35.6892C36.6201 33.6385 33.2885 33.6385 31.2378 35.6892L25.0436 41.8834C22.993 43.9393 22.993 47.2657 25.0436 49.3164Z" fill="#FFFFFF"/>
</g>
</g>
<defs>
<clipPath id="clip0_3622_2243">
<rect width="73" height="73" fill="white"/>
</clipPath>
</defs>
</svg>
