<svg width="98" height="21" viewBox="0 0 98 21" fill="none" xmlns="http://www.w3.org/2000/svg">
<g clip-path="url(#clip0_254_2270)">
<path d="M11.6357 10.5009C10.2445 11.8921 8.85333 13.2894 7.45607 14.6806C7.42583 14.7108 7.39558 14.7471 7.35929 14.7774C7.0629 15.0798 6.99032 15.5395 7.18388 15.9145L8.39967 18.3098C8.69606 18.8965 8.99245 19.4772 9.28883 20.0579H21.2169C18.0232 16.8763 14.8295 13.6886 11.6357 10.5009Z" fill="#0078D4"/>
<path d="M6.06389 18.4008C6.06389 18.4008 6.03364 18.3584 6.02155 18.3342L4.80575 15.9389C4.77551 15.8845 4.75132 15.824 4.73317 15.7635C4.63639 15.4308 4.72712 15.0558 4.98117 14.8018C5.01746 14.7715 5.0477 14.7352 5.07795 14.705C5.7554 14.0578 6.62642 13.217 7.61841 12.2371C9.14269 10.731 10.2436 9.58778 10.6367 9.18856C13.3647 6.43639 16.0927 3.68423 18.8146 0.938108H5.06585C4.70293 0.938108 4.37025 1.14376 4.20693 1.4704L2.77943 4.32539C2.71895 4.44637 2.65846 4.56734 2.59797 4.68831C2.59797 4.69436 2.59192 4.69436 2.59192 4.70041C1.81769 6.24888 1.04345 7.79131 0.275264 9.33978C-0.0937078 10.0717 -0.0937078 10.9306 0.275264 11.6625C1.04345 13.2049 1.81769 14.7534 2.59192 16.2958C3.22099 17.5539 3.84401 18.806 4.47307 20.0581H6.86837C6.7353 19.7678 6.42681 19.1327 6.06994 18.4129C6.06994 18.4129 6.06389 18.4129 6.06389 18.4008Z" fill="#0078D4"/>
</g>
<g clip-path="url(#clip1_254_2270)">
<path d="M28.5671 15.5059C28.0935 15.0914 27.7382 14.5388 27.5409 13.8481C27.3238 13.1574 27.2251 12.4271 27.2251 11.6575C27.2251 11.0457 27.304 10.4141 27.4817 9.80232C27.6593 9.19052 27.9158 8.65767 28.2908 8.26296C28.8829 7.57221 29.6526 7.17751 30.5999 7.03936C31.5472 6.92094 32.3958 6.98015 33.1457 7.25645C34.0141 7.59195 34.6654 8.20375 35.0798 9.05237C35.4745 9.80232 35.6719 10.6904 35.6719 11.6969C35.6719 12.4271 35.5929 13.0587 35.4351 13.5915C35.2772 14.1244 35.0601 14.5586 34.8233 14.9335C34.2707 15.6835 33.5799 16.1571 32.7313 16.3348C31.9813 16.5321 31.2117 16.5519 30.442 16.394C29.6723 16.2163 29.0605 15.9203 28.6066 15.5059H28.5671ZM30.2249 9.44708C29.7512 9.97994 29.5341 10.7694 29.5736 11.7956C29.6131 12.8416 29.8104 13.5718 30.1657 13.9862C30.3038 14.1639 30.5407 14.3217 30.8959 14.4599C31.2314 14.5783 31.5866 14.598 31.9419 14.4994C32.2971 14.4007 32.6129 14.1441 32.8892 13.7297C33.1655 13.3152 33.3036 12.6442 33.3431 11.7364C33.3431 10.9075 33.2049 10.2957 32.9484 9.88126C32.6918 9.46682 32.3761 9.21026 32.0406 9.09185C31.705 8.97343 31.3498 8.97343 31.0143 9.09185C30.6788 9.19052 30.4222 9.32867 30.2644 9.48655L30.2249 9.44708Z" fill="black"/>
<path d="M43.798 16.3346H42.5942C42.2587 16.3346 41.9626 16.2162 41.7456 15.9991C41.5285 15.782 41.41 15.5057 41.41 15.1504V10.4731C41.41 9.92054 41.2522 9.52583 40.9167 9.26927C40.5812 9.01271 40.2062 8.8943 39.7917 8.8943C39.3773 8.8943 39.0023 9.01271 38.6866 9.26927C38.3708 9.52583 38.2129 9.92054 38.2129 10.4731V16.3148H35.8052V10.9468C35.8052 9.38768 36.2196 8.3417 37.0288 7.80885C37.8379 7.27599 38.7458 6.99969 39.7325 6.94049C40.739 6.94049 41.6666 7.19705 42.5152 7.72991C43.3639 8.26276 43.7783 9.32848 43.7783 10.9271V16.2951L43.798 16.3346Z" fill="black"/>
<path d="M50.4244 13.5128H52.1414C51.8849 14.4799 51.4112 15.2101 50.7007 15.7232C49.9903 16.2561 49.1022 16.5126 48.0167 16.5126C46.7142 16.5126 45.6879 16.0982 44.9577 15.2496C44.2275 14.4207 43.8525 13.2365 43.8525 11.7169C43.8525 10.1973 44.2078 9.09209 44.9183 8.28294C45.6485 7.43431 46.6747 7.01987 47.9773 7.01987C49.3587 7.01987 50.4244 7.43431 51.1744 8.2632C51.9046 9.11183 52.2796 10.296 52.2796 11.7958V12.1708C52.2796 12.2892 52.2796 12.3682 52.2401 12.4076H46.2997C46.3195 13.1181 46.4971 13.651 46.8129 13.9865C47.1089 14.3615 47.5628 14.5391 48.1549 14.5391C48.5496 14.5391 48.8851 14.4601 49.1416 14.3023C49.2206 14.2825 49.2798 14.243 49.339 14.1838C49.3982 14.1246 49.4574 14.0654 49.5364 13.9865C49.5561 13.9273 49.6548 13.8286 49.7929 13.7102C49.9508 13.5918 50.1482 13.5326 50.4244 13.5326V13.5128ZM46.2997 10.8288H49.8126C49.7732 10.217 49.6153 9.74336 49.339 9.44733C49.043 9.13156 48.6088 8.97368 48.0759 8.97368C47.5628 8.97368 47.1681 9.13156 46.8326 9.44733C46.5168 9.7631 46.3392 10.217 46.3195 10.8288H46.2997Z" fill="black"/>
<path d="M52.6051 16.3343V5.73637C52.6051 5.40087 52.7235 5.10484 52.9603 4.86801C53.1972 4.63119 53.4932 4.51278 53.8287 4.51278H55.0326V9.3677L59.6309 4.51278H62.6899L57.9337 9.28876L63.0846 16.3343H60.1243L57.1245 12.1307C56.5917 11.4399 56.118 11.1636 55.6641 11.3215C55.2102 11.4794 54.9931 11.7557 54.9931 12.1701V16.3343H52.5459H52.6051Z" fill="black"/>
<path d="M68.9855 9.76337C68.65 9.28972 68.1763 9.03316 67.5843 9.03316C66.933 9.03316 66.4396 9.26999 66.1041 9.7239C65.7686 10.1778 65.591 10.8094 65.591 11.6185V16.3353H63.2622V4.494H64.4266C64.7424 4.494 65.0187 4.61242 65.2555 4.82951C65.4923 5.06633 65.591 5.34263 65.591 5.6584V8.38189C66.0054 7.69115 66.5975 7.25697 67.3474 7.07935C68.0974 6.90173 68.8276 6.9412 69.5183 7.2175C70.1696 7.49379 70.7025 7.92797 71.1367 8.52004C71.5708 9.1121 71.7879 9.94099 71.7879 10.987V16.3155H69.4789V11.5593C69.4789 11.2238 69.4591 10.908 69.3999 10.612C69.3407 10.3357 69.2026 10.0397 69.0052 9.74364L68.9855 9.76337Z" fill="black"/>
<path d="M80.1211 7.17798V12.546C80.1211 14.1841 79.7066 15.2498 78.858 15.7432C78.0094 16.2563 77.0818 16.4931 76.0753 16.4931C75.0885 16.4536 74.1807 16.1773 73.3715 15.6642C72.5624 15.1511 72.1479 14.1249 72.1479 12.5263V7.17798H74.5557V13.0197C74.5557 13.5723 74.7136 13.967 75.0293 14.2235C75.3451 14.4801 75.7201 14.5985 76.1345 14.5985C76.549 14.5985 76.9239 14.4801 77.2594 14.2235C77.5949 13.967 77.7528 13.5723 77.7528 13.0197V8.34237C77.7528 8.0266 77.8515 7.75031 78.0883 7.51348C78.3252 7.27666 78.5817 7.17798 78.937 7.17798H80.1408H80.1211Z" fill="black"/>
<path d="M80.1724 13.295H82.5011C82.5209 13.7489 82.6985 14.1041 83.0143 14.3212C83.3498 14.558 83.8234 14.6567 84.3958 14.6567C84.8102 14.6567 85.1654 14.5778 85.4615 14.4199C85.7378 14.262 85.8759 14.0449 85.8759 13.7686C85.8759 13.3542 85.4023 13.0384 84.4352 12.841C84.0208 12.7818 83.705 12.7029 83.5077 12.6437C82.2841 12.3477 81.4749 11.9924 81.0605 11.578C80.6065 11.1635 80.3697 10.6109 80.3697 9.92019C80.3697 9.05183 80.7052 8.32162 81.3762 7.74929C82.067 7.21643 82.9551 6.95987 84.0602 6.95987C85.2444 6.95987 86.2114 7.21643 86.9219 7.74929C87.5929 8.32162 87.9481 9.07157 87.9876 9.9794H86.5074C86.0733 9.9794 85.7378 9.78204 85.5009 9.38734L85.2246 9.11104C84.9483 8.91368 84.5734 8.79527 84.08 8.79527C83.5866 8.79527 83.2708 8.87421 83.0537 8.99263C82.8564 9.13077 82.738 9.32813 82.738 9.60443C82.738 9.9794 83.33 10.2754 84.5339 10.532C84.6721 10.5715 84.7905 10.6109 84.8891 10.6307C84.9878 10.6504 85.0865 10.6701 85.1852 10.6701C86.3496 10.9662 87.1587 11.3214 87.6324 11.6964C88.0666 12.1108 88.2836 12.6634 88.2836 13.3542C88.2836 14.3607 87.9087 15.1501 87.1785 15.6829C86.4877 16.1961 85.4615 16.4329 84.08 16.4329C82.6985 16.4329 81.7907 16.1763 81.1591 15.6435C80.4881 15.1106 80.1724 14.3409 80.1724 13.3344V13.2358V13.295Z" fill="black"/>
<path d="M94.2463 15.9395C93.7726 16.1961 93.2595 16.354 92.7069 16.4132C92.1741 16.4724 91.7004 16.4921 91.286 16.4921C90.4571 16.4921 89.7466 16.275 89.1151 15.8211C88.4835 15.3672 88.1875 14.637 88.1875 13.6107C88.1875 12.6437 88.4638 11.9529 89.0361 11.5385C89.6085 11.1241 90.3189 10.8478 91.1873 10.7096C91.3057 10.7096 91.4439 10.7096 91.6017 10.6504C91.7596 10.6109 91.9372 10.5912 92.1543 10.5715C93.1608 10.4333 93.674 10.1373 93.674 9.68337C93.674 9.34786 93.4963 9.11104 93.1411 9.01236C92.7859 8.91368 92.4504 8.85448 92.1543 8.85448C91.8386 8.85448 91.5425 8.89395 91.286 8.99263C91.0294 9.0913 90.8518 9.24919 90.7334 9.50575H88.4243C88.523 8.79527 88.8388 8.20321 89.3914 7.74929C90.0032 7.21643 90.8913 6.95987 92.0359 6.95987C93.3187 6.95987 94.2858 7.17696 94.9173 7.61114C95.5883 8.06506 95.9041 8.71633 95.9041 9.54522V12.6832C95.9041 13.591 95.7462 14.3212 95.4107 14.8343C95.0752 15.3474 94.6805 15.7224 94.2266 15.9592L94.2463 15.9395ZM93.6937 11.7161C93.3779 11.874 92.924 12.0319 92.3517 12.17L91.5623 12.3477C91.1478 12.4661 90.8518 12.6042 90.6742 12.8016C90.5163 13.0581 90.4373 13.295 90.4373 13.5515C90.4373 13.887 90.536 14.1633 90.7531 14.3804C90.9702 14.558 91.2662 14.6567 91.6412 14.6567C92.2925 14.6567 92.7859 14.4791 93.1608 14.1041C93.5358 13.7291 93.7134 13.2358 93.7134 12.5845V11.7161H93.6937Z" fill="black"/>
<path d="M96.8678 14.658C97.0059 14.658 97.1046 14.6778 97.223 14.737C97.3612 14.7962 97.4599 14.8751 97.5191 14.9541C97.6177 15.033 97.6769 15.1317 97.7164 15.2501C97.7756 15.3882 97.7954 15.4869 97.7954 15.6053C97.7954 15.7238 97.7756 15.8422 97.7164 15.9606C97.6572 16.079 97.598 16.1777 97.5191 16.2566C97.4204 16.3553 97.3217 16.4145 97.223 16.4737C97.0651 16.5132 96.9467 16.5329 96.8678 16.5329C96.7494 16.5329 96.631 16.5132 96.5126 16.454C96.4139 16.4145 96.2955 16.3553 96.2165 16.2566C96.1376 16.1579 96.0586 16.0593 96.0192 15.9606C95.9797 15.8619 95.96 15.7435 95.96 15.6251C95.96 15.5659 95.96 15.4672 95.9994 15.3685C95.9994 15.329 96.0192 15.3093 96.0389 15.2698C96.0389 15.2304 96.0784 15.1909 96.0981 15.1514C96.1771 14.9935 96.2757 14.8949 96.4336 14.8357C96.552 14.7567 96.7099 14.6975 96.8875 14.6975L96.8678 14.658ZM96.8678 14.8159C96.8678 14.8159 96.6704 14.8159 96.5718 14.8554C96.5323 14.8949 96.4928 14.9146 96.4336 14.9343C96.3941 14.9541 96.3547 14.9738 96.3152 15.0133C96.256 15.0725 96.1968 15.1712 96.1376 15.2698C96.0981 15.408 96.0784 15.5067 96.0784 15.5659C96.0784 15.6251 96.0981 15.7238 96.1376 15.8619C96.1573 15.9211 96.2165 16 96.2955 16.0987C96.3547 16.1579 96.4533 16.2171 96.552 16.2763C96.6507 16.3158 96.7494 16.3158 96.8481 16.3158C96.9467 16.3158 97.0454 16.3158 97.1441 16.2763C97.2428 16.2171 97.3414 16.1579 97.4006 16.0987C97.4796 16.0198 97.5388 15.9408 97.5585 15.8619C97.598 15.783 97.6177 15.6843 97.6177 15.5659C97.6177 15.4475 97.6177 15.3685 97.5783 15.2698C97.5191 15.1712 97.4599 15.0725 97.4006 15.0133C97.3414 14.9541 97.2625 14.8949 97.1638 14.8357C97.0651 14.7962 96.9665 14.7962 96.8678 14.7962V14.8159ZM96.4731 16.079V15.1712C96.4731 15.1712 96.5126 15.0725 96.5915 15.0725H96.9862C97.1046 15.0725 97.1836 15.0922 97.223 15.1317C97.2822 15.1712 97.302 15.2501 97.302 15.3488C97.302 15.4277 97.302 15.4672 97.2625 15.4869C97.223 15.5461 97.1836 15.5659 97.1441 15.5856C97.1836 15.6053 97.223 15.6251 97.2428 15.6448C97.2625 15.6843 97.2822 15.7435 97.2822 15.783V16C97.2822 16 97.2822 16.0198 97.2822 16.0395C97.2822 16.0395 97.2822 16.0593 97.3217 16.0593H97.0849V16V15.8224C97.0849 15.8224 97.0454 15.7238 97.0454 15.6843C97.0257 15.6645 96.9862 15.6448 96.927 15.6448H96.7099V16.0395H96.4928L96.4731 16.079ZM96.6902 15.4869H96.9467C96.9467 15.4869 97.0454 15.4869 97.0651 15.4475C97.0849 15.4475 97.1046 15.408 97.1046 15.3488C97.1046 15.2896 97.1046 15.2698 97.0651 15.2501C97.0257 15.2106 96.9862 15.2106 96.9467 15.2106H96.6902V15.4869Z" fill="black"/>
</g>
<defs>
<clipPath id="clip0_254_2270">
<rect width="21.225" height="19.12" fill="white" transform="translate(0 0.939999)"/>
</clipPath>
<clipPath id="clip1_254_2270">
<rect width="70.574" height="12.0189" fill="white" transform="translate(27.2251 4.49055)"/>
</clipPath>
</defs>
</svg>
