<svg width="98" height="21" viewBox="0 0 98 21" fill="none" xmlns="http://www.w3.org/2000/svg">
<g clip-path="url(#clip0_332_4878)">
<path d="M11.6367 10.5009C10.2455 11.8921 8.8543 13.2894 7.45705 14.6806C7.4268 14.7108 7.39656 14.7471 7.36027 14.7774C7.06388 15.0798 6.9913 15.5395 7.18486 15.9145L8.40065 18.3098C8.69703 18.8965 8.99342 19.4772 9.28981 20.0579H21.2179C18.0242 16.8763 14.8304 13.6886 11.6367 10.5009Z" fill="white"/>
<path d="M6.06438 18.4008C6.06438 18.4008 6.03413 18.3584 6.02204 18.3342L4.80624 15.9389C4.776 15.8845 4.7518 15.824 4.73366 15.7635C4.63688 15.4308 4.72761 15.0558 4.98166 14.8018C5.01795 14.7715 5.04819 14.7352 5.07843 14.705C5.75589 14.0578 6.62691 13.217 7.6189 12.2371C9.14317 10.731 10.244 9.58778 10.6372 9.18856C13.3652 6.43639 16.0932 3.68423 18.8151 0.938108H5.06634C4.70341 0.938108 4.37073 1.14376 4.20742 1.4704L2.77992 4.32539C2.71943 4.44637 2.65895 4.56734 2.59846 4.68831C2.59846 4.69436 2.59241 4.69436 2.59241 4.70041C1.81818 6.24888 1.04394 7.79131 0.275752 9.33978C-0.0932195 10.0717 -0.0932195 10.9306 0.275752 11.6625C1.04394 13.2049 1.81818 14.7534 2.59241 16.2958C3.22148 17.5539 3.8445 18.806 4.47356 20.0581H6.86886C6.73578 19.7678 6.4273 19.1327 6.07043 18.4129C6.07043 18.4129 6.06438 18.4129 6.06438 18.4008Z" fill="white"/>
</g>
<g clip-path="url(#clip1_332_4878)">
<path d="M28.5666 15.5059C28.093 15.0914 27.7377 14.5388 27.5404 13.8481C27.3233 13.1574 27.2246 12.4271 27.2246 11.6575C27.2246 11.0457 27.3036 10.4141 27.4812 9.80232C27.6588 9.19052 27.9154 8.65767 28.2903 8.26296C28.8824 7.57221 29.6521 7.17751 30.5994 7.03936C31.5467 6.92094 32.3953 6.98015 33.1452 7.25645C34.0136 7.59195 34.6649 8.20375 35.0793 9.05237C35.474 9.80232 35.6714 10.6904 35.6714 11.6969C35.6714 12.4271 35.5924 13.0587 35.4346 13.5915C35.2767 14.1244 35.0596 14.5586 34.8228 14.9335C34.2702 15.6835 33.5794 16.1571 32.7308 16.3348C31.9809 16.5321 31.2112 16.5519 30.4415 16.394C29.6718 16.2163 29.06 15.9203 28.6061 15.5059H28.5666ZM30.2244 9.44708C29.7507 9.97994 29.5337 10.7694 29.5731 11.7956C29.6126 12.8416 29.81 13.5718 30.1652 13.9862C30.3033 14.1639 30.5402 14.3217 30.8954 14.4599C31.2309 14.5783 31.5861 14.598 31.9414 14.4994C32.2966 14.4007 32.6124 14.1441 32.8887 13.7297C33.165 13.3152 33.3031 12.6442 33.3426 11.7364C33.3426 10.9075 33.2045 10.2957 32.9479 9.88126C32.6913 9.46682 32.3756 9.21026 32.0401 9.09185C31.7046 8.97343 31.3493 8.97343 31.0138 9.09185C30.6783 9.19052 30.4218 9.32867 30.2639 9.48655L30.2244 9.44708Z" fill="white"/>
<path d="M43.7976 16.3346H42.5937C42.2582 16.3346 41.9622 16.2162 41.7451 15.9991C41.528 15.782 41.4096 15.5057 41.4096 15.1504V10.4731C41.4096 9.92054 41.2517 9.52583 40.9162 9.26927C40.5807 9.01271 40.2057 8.8943 39.7913 8.8943C39.3768 8.8943 39.0018 9.01271 38.6861 9.26927C38.3703 9.52583 38.2124 9.92054 38.2124 10.4731V16.3148H35.8047V10.9468C35.8047 9.38768 36.2191 8.3417 37.0283 7.80885C37.8374 7.27599 38.7453 6.99969 39.732 6.94049C40.7386 6.94049 41.6661 7.19705 42.5147 7.72991C43.3634 8.26276 43.7778 9.32848 43.7778 10.9271V16.2951L43.7976 16.3346Z" fill="white"/>
<path d="M50.4235 13.5128H52.1405C51.8839 14.4799 51.4102 15.2101 50.6998 15.7232C49.9893 16.2561 49.1012 16.5126 48.0157 16.5126C46.7132 16.5126 45.687 16.0982 44.9567 15.2496C44.2265 14.4207 43.8516 13.2365 43.8516 11.7169C43.8516 10.1973 44.2068 9.09209 44.9173 8.28294C45.6475 7.43431 46.6737 7.01987 47.9763 7.01987C49.3578 7.01987 50.4235 7.43431 51.1734 8.2632C51.9036 9.11183 52.2786 10.296 52.2786 11.7958V12.1708C52.2786 12.2892 52.2786 12.3682 52.2391 12.4076H46.2988C46.3185 13.1181 46.4961 13.651 46.8119 13.9865C47.1079 14.3615 47.5618 14.5391 48.1539 14.5391C48.5486 14.5391 48.8841 14.4601 49.1407 14.3023C49.2196 14.2825 49.2788 14.243 49.338 14.1838C49.3972 14.1246 49.4564 14.0654 49.5354 13.9865C49.5551 13.9273 49.6538 13.8286 49.7919 13.7102C49.9498 13.5918 50.1472 13.5326 50.4235 13.5326V13.5128ZM46.2988 10.8288H49.8117C49.7722 10.217 49.6143 9.74336 49.338 9.44733C49.042 9.13156 48.6078 8.97368 48.075 8.97368C47.5618 8.97368 47.1671 9.13156 46.8316 9.44733C46.5158 9.7631 46.3382 10.217 46.3185 10.8288H46.2988Z" fill="white"/>
<path d="M52.6051 16.3343V5.73637C52.6051 5.40087 52.7235 5.10484 52.9603 4.86801C53.1972 4.63119 53.4932 4.51278 53.8287 4.51278H55.0326V9.3677L59.6309 4.51278H62.6899L57.9337 9.28876L63.0846 16.3343H60.1243L57.1245 12.1307C56.5917 11.4399 56.118 11.1636 55.6641 11.3215C55.2102 11.4794 54.9931 11.7557 54.9931 12.1701V16.3343H52.5459H52.6051Z" fill="white"/>
<path d="M68.985 9.76337C68.6495 9.28972 68.1759 9.03316 67.5838 9.03316C66.9325 9.03316 66.4391 9.26999 66.1036 9.7239C65.7681 10.1778 65.5905 10.8094 65.5905 11.6185V16.3353H63.2617V4.494H64.4261C64.7419 4.494 65.0182 4.61242 65.255 4.82951C65.4918 5.06633 65.5905 5.34263 65.5905 5.6584V8.38189C66.0049 7.69115 66.597 7.25697 67.347 7.07935C68.0969 6.90173 68.8271 6.9412 69.5179 7.2175C70.1691 7.49379 70.702 7.92797 71.1362 8.52004C71.5703 9.1121 71.7874 9.94099 71.7874 10.987V16.3155H69.4784V11.5593C69.4784 11.2238 69.4587 10.908 69.3994 10.612C69.3402 10.3357 69.2021 10.0397 69.0047 9.74364L68.985 9.76337Z" fill="white"/>
<path d="M80.1206 7.17798V12.546C80.1206 14.1841 79.7061 15.2498 78.8575 15.7432C78.0089 16.2563 77.0813 16.4931 76.0748 16.4931C75.088 16.4536 74.1802 16.1773 73.3711 15.6642C72.5619 15.1511 72.1475 14.1249 72.1475 12.5263V7.17798H74.5552V13.0197C74.5552 13.5723 74.7131 13.967 75.0288 14.2235C75.3446 14.4801 75.7196 14.5985 76.134 14.5985C76.5485 14.5985 76.9234 14.4801 77.2589 14.2235C77.5944 13.967 77.7523 13.5723 77.7523 13.0197V8.34237C77.7523 8.0266 77.851 7.75031 78.0878 7.51348C78.3247 7.27666 78.5812 7.17798 78.9365 7.17798H80.1403H80.1206Z" fill="white"/>
<path d="M80.1719 13.295H82.5007C82.5204 13.7489 82.698 14.1041 83.0138 14.3212C83.3493 14.558 83.8229 14.6567 84.3953 14.6567C84.8097 14.6567 85.1649 14.5778 85.461 14.4199C85.7373 14.262 85.8754 14.0449 85.8754 13.7686C85.8754 13.3542 85.4018 13.0384 84.4347 12.841C84.0203 12.7818 83.7045 12.7029 83.5072 12.6437C82.2836 12.3477 81.4744 11.9924 81.06 11.578C80.6061 11.1635 80.3692 10.6109 80.3692 9.92019C80.3692 9.05183 80.7047 8.32162 81.3757 7.74929C82.0665 7.21643 82.9546 6.95987 84.0598 6.95987C85.2439 6.95987 86.2109 7.21643 86.9214 7.74929C87.5924 8.32162 87.9476 9.07157 87.9871 9.9794H86.507C86.0728 9.9794 85.7373 9.78204 85.5005 9.38734L85.2242 9.11104C84.9479 8.91368 84.5729 8.79527 84.0795 8.79527C83.5861 8.79527 83.2703 8.87421 83.0533 8.99263C82.8559 9.13077 82.7375 9.32813 82.7375 9.60443C82.7375 9.9794 83.3296 10.2754 84.5334 10.532C84.6716 10.5715 84.79 10.6109 84.8886 10.6307C84.9873 10.6504 85.086 10.6701 85.1847 10.6701C86.3491 10.9662 87.1582 11.3214 87.6319 11.6964C88.0661 12.1108 88.2832 12.6634 88.2832 13.3542C88.2832 14.3607 87.9082 15.1501 87.178 15.6829C86.4872 16.1961 85.461 16.4329 84.0795 16.4329C82.698 16.4329 81.7902 16.1763 81.1586 15.6435C80.4876 15.1106 80.1719 14.3409 80.1719 13.3344V13.2358V13.295Z" fill="white"/>
<path d="M94.2453 15.9395C93.7717 16.1961 93.2585 16.354 92.7059 16.4132C92.1731 16.4724 91.6994 16.4921 91.285 16.4921C90.4561 16.4921 89.7456 16.275 89.1141 15.8211C88.4826 15.3672 88.1865 14.637 88.1865 13.6107C88.1865 12.6437 88.4628 11.9529 89.0351 11.5385C89.6075 11.1241 90.318 10.8478 91.1863 10.7096C91.3047 10.7096 91.4429 10.7096 91.6008 10.6504C91.7586 10.6109 91.9363 10.5912 92.1534 10.5715C93.1599 10.4333 93.673 10.1373 93.673 9.68337C93.673 9.34786 93.4954 9.11104 93.1401 9.01236C92.7849 8.91368 92.4494 8.85448 92.1534 8.85448C91.8376 8.85448 91.5416 8.89395 91.285 8.99263C91.0284 9.0913 90.8508 9.24919 90.7324 9.50575H88.4234C88.522 8.79527 88.8378 8.20321 89.3904 7.74929C90.0022 7.21643 90.8903 6.95987 92.0349 6.95987C93.3177 6.95987 94.2848 7.17696 94.9163 7.61114C95.5873 8.06506 95.9031 8.71633 95.9031 9.54522V12.6832C95.9031 13.591 95.7452 14.3212 95.4097 14.8343C95.0742 15.3474 94.6795 15.7224 94.2256 15.9592L94.2453 15.9395ZM93.6927 11.7161C93.377 11.874 92.923 12.0319 92.3507 12.17L91.5613 12.3477C91.1468 12.4661 90.8508 12.6042 90.6732 12.8016C90.5153 13.0581 90.4364 13.295 90.4364 13.5515C90.4364 13.887 90.535 14.1633 90.7521 14.3804C90.9692 14.558 91.2653 14.6567 91.6402 14.6567C92.2915 14.6567 92.7849 14.4791 93.1599 14.1041C93.5348 13.7291 93.7125 13.2358 93.7125 12.5845V11.7161H93.6927Z" fill="white"/>
<path d="M96.8668 14.658C97.005 14.658 97.1036 14.6778 97.2221 14.737C97.3602 14.7962 97.4589 14.8751 97.5181 14.9541C97.6168 15.033 97.676 15.1317 97.7154 15.2501C97.7746 15.3882 97.7944 15.4869 97.7944 15.6053C97.7944 15.7238 97.7746 15.8422 97.7154 15.9606C97.6562 16.079 97.597 16.1777 97.5181 16.2566C97.4194 16.3553 97.3207 16.4145 97.2221 16.4737C97.0642 16.5132 96.9458 16.5329 96.8668 16.5329C96.7484 16.5329 96.63 16.5132 96.5116 16.454C96.4129 16.4145 96.2945 16.3553 96.2155 16.2566C96.1366 16.1579 96.0577 16.0593 96.0182 15.9606C95.9787 15.8619 95.959 15.7435 95.959 15.6251C95.959 15.5659 95.959 15.4672 95.9984 15.3685C95.9984 15.329 96.0182 15.3093 96.0379 15.2698C96.0379 15.2304 96.0774 15.1909 96.0971 15.1514C96.1761 14.9935 96.2747 14.8949 96.4326 14.8357C96.551 14.7567 96.7089 14.6975 96.8865 14.6975L96.8668 14.658ZM96.8668 14.8159C96.8668 14.8159 96.6695 14.8159 96.5708 14.8554C96.5313 14.8949 96.4918 14.9146 96.4326 14.9343C96.3932 14.9541 96.3537 14.9738 96.3142 15.0133C96.255 15.0725 96.1958 15.1712 96.1366 15.2698C96.0971 15.408 96.0774 15.5067 96.0774 15.5659C96.0774 15.6251 96.0971 15.7238 96.1366 15.8619C96.1563 15.9211 96.2155 16 96.2945 16.0987C96.3537 16.1579 96.4524 16.2171 96.551 16.2763C96.6497 16.3158 96.7484 16.3158 96.8471 16.3158C96.9458 16.3158 97.0444 16.3158 97.1431 16.2763C97.2418 16.2171 97.3405 16.1579 97.3997 16.0987C97.4786 16.0198 97.5378 15.9408 97.5576 15.8619C97.597 15.783 97.6168 15.6843 97.6168 15.5659C97.6168 15.4475 97.6168 15.3685 97.5773 15.2698C97.5181 15.1712 97.4589 15.0725 97.3997 15.0133C97.3405 14.9541 97.2615 14.8949 97.1628 14.8357C97.0642 14.7962 96.9655 14.7962 96.8668 14.7962V14.8159ZM96.4721 16.079V15.1712C96.4721 15.1712 96.5116 15.0725 96.5905 15.0725H96.9852C97.1036 15.0725 97.1826 15.0922 97.2221 15.1317C97.2813 15.1712 97.301 15.2501 97.301 15.3488C97.301 15.4277 97.301 15.4672 97.2615 15.4869C97.2221 15.5461 97.1826 15.5659 97.1431 15.5856C97.1826 15.6053 97.222 15.6251 97.2418 15.6448C97.2615 15.6843 97.2813 15.7435 97.2813 15.783V16C97.2813 16 97.2813 16.0198 97.2813 16.0395C97.2813 16.0395 97.2813 16.0593 97.3207 16.0593H97.0839V16V15.8224C97.0839 15.8224 97.0444 15.7238 97.0444 15.6843C97.0247 15.6645 96.9852 15.6448 96.926 15.6448H96.7089V16.0395H96.4918L96.4721 16.079ZM96.6892 15.4869H96.9458C96.9458 15.4869 97.0444 15.4869 97.0642 15.4475C97.0839 15.4475 97.1036 15.408 97.1036 15.3488C97.1036 15.2896 97.1036 15.2698 97.0642 15.2501C97.0247 15.2106 96.9852 15.2106 96.9458 15.2106H96.6892V15.4869Z" fill="white"/>
</g>
<defs>
<clipPath id="clip0_332_4878">
<rect width="21.225" height="19.12" fill="white" transform="translate(0 0.939999)"/>
</clipPath>
<clipPath id="clip1_332_4878">
<rect width="70.574" height="12.0189" fill="white" transform="translate(27.2246 4.49055)"/>
</clipPath>
</defs>
</svg>
