<svg width="22" height="21" viewBox="0 0 22 21" fill="none" xmlns="http://www.w3.org/2000/svg">
<g clip-path="url(#clip0_1065_215)">
<path d="M12.1357 10.5009C10.7445 11.8921 9.35333 13.2894 7.95607 14.6806C7.92583 14.7108 7.89558 14.7471 7.85929 14.7774C7.5629 15.0798 7.49032 15.5395 7.68388 15.9145L8.89967 18.3098C9.19606 18.8965 9.49245 19.4772 9.78883 20.0579H21.7169C18.5232 16.8763 15.3295 13.6886 12.1357 10.5009Z" fill="#0078D4"/>
<path d="M6.56389 18.4008C6.56389 18.4008 6.53364 18.3584 6.52155 18.3342L5.30575 15.9389C5.27551 15.8845 5.25132 15.824 5.23317 15.7635C5.13639 15.4308 5.22712 15.0558 5.48117 14.8018C5.51746 14.7715 5.5477 14.7352 5.57795 14.705C6.2554 14.0578 7.12642 13.217 8.11841 12.2371C9.64269 10.731 10.7436 9.58778 11.1367 9.18856C13.8647 6.4364 16.5927 3.68423 19.3146 0.93811H5.56585C5.20293 0.93811 4.87025 1.14377 4.70693 1.4704L3.27943 4.32539C3.21895 4.44637 3.15846 4.56734 3.09797 4.68832C3.09797 4.69436 3.09192 4.69436 3.09192 4.70041C2.31769 6.24889 1.54345 7.79131 0.775264 9.33978C0.406292 10.0717 0.406292 10.9306 0.775264 11.6625C1.54345 13.2049 2.31769 14.7534 3.09192 16.2958C3.72099 17.5539 4.34401 18.806 4.97307 20.0581H7.36837C7.2353 19.7678 6.92681 19.1327 6.56994 18.4129C6.56994 18.4129 6.56389 18.4129 6.56389 18.4008Z" fill="#0078D4"/>
</g>
<defs>
<clipPath id="clip0_1065_215">
<rect width="21.225" height="19.12" fill="white" transform="translate(0.5 0.940002)"/>
</clipPath>
</defs>
</svg>
