<svg width="829" height="984" viewBox="0 0 829 984" fill="none" xmlns="http://www.w3.org/2000/svg">
<rect width="829" height="984" fill="#0078D4"/>
<path fill-rule="evenodd" clip-rule="evenodd" d="M286.979 385.628C218.982 484.092 118.732 612.023 -62.4841 612.023C-86.3339 612.023 -105.668 592.873 -105.668 569.253C-105.668 545.633 -86.3339 526.483 -62.4841 526.483C70.3656 526.483 147.758 435.709 215.69 337.338C221.956 328.264 228.262 318.924 234.61 309.525C260.226 271.584 286.481 232.698 313.28 206.6C330.782 189.558 352.555 173.639 379.405 167.554C407.915 161.092 435.986 167.052 462.235 182.65C481.692 194.212 496.504 210.049 505.502 229.782C514.279 249.034 516.314 269.313 514.924 288.407C512.248 325.254 496.19 364.901 477.958 401.705C462.176 433.557 442.638 467.31 423.826 499.813C420.478 505.595 417.151 511.34 413.874 517.029C391.653 555.594 371.452 591.832 357.572 624.655C343.54 657.837 335.216 682.35 334.106 700.785C333.602 709.18 334.78 714.26 336.214 717.462C337.483 720.299 339.933 723.936 346.198 728.071C353.503 732.897 358.173 733.559 361.471 733.474C365.519 733.372 371.832 731.961 381.707 726.572C399.756 716.721 418.93 700.193 445.491 677.296C451.294 672.295 457.454 666.988 464.028 661.377C533.462 602.155 631.859 526.483 785.49 526.483C809.339 526.483 828.671 545.633 828.671 569.253C828.671 592.873 809.339 612.023 785.49 612.023C664.312 612.023 586.278 669.991 520.389 726.193C515.281 730.549 510.099 735.037 504.861 739.572C478.314 762.559 450.349 786.774 423.39 801.485C406.134 810.907 386.091 818.419 363.67 818.985C340.498 819.568 318.58 812.639 298.291 799.243C279.777 787.019 265.806 771.243 257.247 752.108C248.852 733.337 246.797 713.893 247.892 695.699C249.98 660.966 264.18 624.078 277.91 591.613C294.083 553.363 316.787 512.944 338.864 474.63C342.329 468.617 345.777 462.656 349.196 456.751C368.069 424.129 385.976 393.181 400.418 364.026C417.831 328.876 427.368 301.713 428.781 282.263C429.438 273.205 428.146 267.96 426.788 264.985C425.652 262.492 423.523 259.401 417.802 256.001C407.246 249.728 401.823 250.221 398.675 250.936C393.864 252.026 385.812 255.928 373.837 267.589C353.974 286.934 334.456 315.757 309.603 352.452C302.537 362.886 295.037 373.958 286.979 385.628Z" fill="white" fill-opacity="0.15"/>
<path d="M155.26 552.654L148.134 546.17L180.679 510.406L80.0102 482.403L186.359 436.146L68.6562 329.578L219.142 386.573L144.908 270.405L297.868 348.148L307.269 273.914L316.83 275.122L305.714 362.946L172.082 295.028L242.923 405.888L112.915 356.649L203.901 439.031L108.777 480.399L198.343 505.317L155.26 552.654Z" fill="url(#paint0_linear_730_6517)"/>
<path d="M544.975 476.106V518.007C542.893 514.66 540.799 511.338 538.723 508.009C533.204 499.213 526.952 490.493 518.226 484.594C509.121 478.452 496.687 477.648 485.937 481.298C486.46 474.018 485.133 466.724 482.082 460.094C486.564 458.828 491.144 457.941 495.775 457.44C503.903 456.56 512.269 457.048 520.057 459.67C529.92 462.966 538.055 468.871 544.975 476.106Z" fill="#68CDB5"/>
<path d="M578.306 530.434L556.118 536.584C552.539 530.344 548.78 524.169 544.977 518.039V476.106C554.082 485.603 561.137 497.426 567.466 508.767C571.341 515.816 574.727 523.173 578.306 530.434Z" fill="#68CDB5"/>
<path d="M456.449 384.677C442.075 391.341 429.263 401.114 417.048 411.125C385.563 436.936 354.855 463.943 327.566 494.233C295.438 529.862 269.897 571.256 249.206 614.198C242.858 627.37 236.786 640.748 231.446 654.383C208.68 625.603 199.203 587.043 201.889 547.61C207.781 460.062 300.951 363.762 410.185 372.951C426.153 374.251 441.79 378.214 456.449 384.677Z" fill="#FE6B1B"/>
<path d="M547.866 536.545C545.02 615.142 446.169 729.478 329.346 711.757C299.994 707.304 274.806 695.513 255.902 677.669C273.393 689.621 294.513 699.323 318.661 702.729C435.605 719.101 532.027 606.988 536.487 527.71C539.294 477.526 523.635 437.367 495.851 410.971C530.273 437.02 549.935 479.499 547.866 536.545Z" fill="#112231"/>
<path d="M537.187 525.686C534.34 604.283 435.361 721.099 318.66 702.703C291.191 698.372 270.064 688.503 252.908 675.472C244.888 669.377 237.672 662.291 231.434 654.383C236.773 640.748 242.845 627.396 249.194 614.198C269.884 571.256 295.458 529.862 327.585 494.233C354.875 463.943 385.589 436.936 417.068 411.125C429.276 401.114 442.127 391.341 456.469 384.677C470.99 391.11 484.3 399.986 495.819 410.919C523.597 437.341 539.024 474.821 537.187 525.686Z" fill="#FF4F40"/>
<path d="M348.21 678.704C341.047 678.704 333.895 678.165 326.813 677.091C294.73 672.227 268.462 657.307 250.85 633.95C233.424 610.818 225.514 580.933 227.969 547.456C229.44 527.344 236.322 505.799 247.888 485.128C259.683 464.092 275.329 445.462 294.01 430.209C310.299 416.978 327.989 407.205 346.578 401.172C366.509 394.625 387.662 392.67 408.456 395.453C476.258 404.564 513.635 453.328 511.065 529.329C510.423 547.809 504.376 567.921 493.562 587.493C482.348 607.557 467.516 625.371 449.817 640.035C419.296 665.371 383.884 678.704 348.21 678.704ZM390.323 397.477C357.315 397.477 324.39 409.685 296.022 432.721C259.576 462.324 234.124 507.457 231.169 547.687C226.253 614.763 263.984 664.31 327.295 673.917C369.061 680.252 411.861 667.343 447.735 637.561C482.973 608.299 506.567 565.775 507.852 529.22C510.423 455.088 474.028 407.501 408.051 398.659C402.175 397.87 396.252 397.475 390.323 397.477Z" fill="#FFA9DF"/>
<path d="M642.354 651.935L514.01 690.141C511.96 690.753 509.758 690.598 507.814 689.705C505.871 688.812 504.318 687.243 503.446 685.29L455.897 578.51C455.378 577.346 455.112 576.086 455.117 574.812C455.122 573.537 455.398 572.279 455.926 571.119C456.453 569.959 457.222 568.925 458.179 568.084C459.137 567.244 460.263 566.617 461.481 566.244L591.001 526.515C593.384 525.784 595.952 525.944 598.226 526.965C600.501 527.987 602.326 529.799 603.363 532.066L650.206 634.618C650.954 636.257 651.343 638.037 651.346 639.839C651.348 641.641 650.965 643.422 650.221 645.063C649.477 646.704 648.389 648.167 647.032 649.352C645.675 650.538 644.08 651.418 642.354 651.935Z" fill="#2EAFC0"/>
<path d="M230.453 670.421C237.61 670.421 243.413 664.619 243.413 657.461C243.413 650.303 237.61 644.5 230.453 644.5C223.295 644.5 217.492 650.303 217.492 657.461C217.492 664.619 223.295 670.421 230.453 670.421Z" fill="#112231"/>
<path d="M228.152 670.421C235.31 670.421 241.112 664.619 241.112 657.461C241.112 650.303 235.31 644.5 228.152 644.5C220.994 644.5 215.191 650.303 215.191 657.461C215.191 664.619 220.994 670.421 228.152 670.421Z" fill="#FFA9DF"/>
<path d="M456.58 569.964L446.852 579.198C445.112 580.851 443.928 583.003 443.46 585.357C442.993 587.711 443.267 590.152 444.243 592.344L491.407 698.276C492.67 701.134 494.936 703.431 497.777 704.733C500.618 706.036 503.838 706.253 506.828 705.344L629.029 668.269C634.426 666.63 639.002 663.007 641.835 658.129L646.757 649.647C645.468 650.7 643.983 651.487 642.388 651.961L514.012 690.141C511.962 690.753 509.76 690.598 507.816 689.705C505.872 688.812 504.32 687.243 503.448 685.29L455.899 578.51C455.287 577.145 455.025 575.648 455.137 574.156C455.249 572.664 455.732 571.223 456.542 569.964H456.58Z" fill="#BBF6E2"/>
<path d="M518.583 595.878C520.511 607.175 531.306 615.027 543.842 615.014L553.892 651.639L581.521 642.097L596.763 637.15L566.923 607.181C566.961 607.22 569.249 604.611 569.422 604.373C573.689 599.406 573.92 593.636 572.493 587.48C569.608 574.816 555.652 565.781 541.073 568.249C533.698 569.403 527.074 573.412 522.631 579.41C520.893 581.746 519.639 584.407 518.944 587.235C518.249 590.063 518.126 593.002 518.583 595.878Z" fill="#BBF6E2"/>
<path d="M518.583 595.878C520.511 607.175 531.306 615.027 543.842 615.014L551.148 652.449L581.104 642.239L554.226 614.917C559.09 609.719 561.551 602.863 560.368 595.872C558.197 583.066 544.626 574.668 530.04 577.167C527.484 577.594 524.994 578.348 522.631 579.41C520.893 581.746 519.639 584.407 518.944 587.235C518.249 590.063 518.126 593.002 518.583 595.878Z" fill="#112231"/>
<path d="M465.683 521.94L470.039 518.136L478.245 547.468C478.245 547.468 465.329 524.009 465.683 521.94Z" fill="#112231"/>
<path d="M427.676 534.996C429.806 535.495 431.972 535.824 434.153 535.979C429.745 536.328 425.308 535.996 421 534.996C412.962 533.139 405.174 529.548 399.288 523.758C384.4 509.114 383.867 483.823 393.685 466.294C403.966 447.892 425.421 435.311 446.606 436.788C427.715 438.029 409.569 449.832 400.342 466.294C390.537 483.823 391.057 509.114 405.952 523.758C411.85 529.548 419.638 533.139 427.676 534.996Z" fill="#FF945A"/>
<path d="M479.325 455.165C475.588 453.182 471.578 451.762 467.425 450.95C463.319 450.153 459.125 449.901 454.953 450.198C436.056 451.439 417.916 463.242 408.689 479.705C401.621 492.382 399.906 509.127 405.155 522.948C391.019 508.208 390.717 483.509 400.342 466.294C409.55 449.832 427.696 438.022 446.606 436.788C448.548 436.91 450.48 437.159 452.389 437.534C462.747 439.551 472.611 445.579 478.734 454.24C478.94 454.561 479.132 454.863 479.325 455.165Z" fill="#ED5E11"/>
<path d="M485.937 481.298C485.853 482.583 485.731 483.791 485.564 485.031C484.838 490.346 483.383 495.535 481.239 500.453C477.646 508.618 472.331 515.91 465.657 521.83C459.937 526.996 453.238 530.962 445.957 533.493C442.143 534.814 438.177 535.641 434.153 535.954C431.974 535.799 429.81 535.47 427.683 534.971C419.638 533.114 411.85 529.522 405.971 523.732C405.701 523.463 405.431 523.193 405.174 522.923C399.931 509.101 401.614 492.357 408.708 479.679C417.916 463.217 436.055 451.407 454.972 450.173C459.144 449.875 463.337 450.127 467.444 450.925C471.596 451.736 475.606 453.157 479.344 455.14C480.388 456.708 481.312 458.354 482.107 460.062C485.155 466.704 486.472 474.01 485.937 481.298Z" fill="#0078D4"/>
<path d="M482.089 460.087C485.14 466.718 486.466 474.012 485.944 481.292C477.276 484.222 469.713 490.056 465.877 498.326C462.33 505.966 463.114 514.062 465.665 521.85C467.921 528.738 471.557 535.395 474.822 541.287C478.137 547.276 481.459 553.258 484.948 559.144L463.519 565.627C457.389 555.924 450.623 544.995 445.99 533.499C440.207 519.196 437.746 504.038 444.063 489.375C444.23 488.996 444.397 488.604 444.577 488.225C451.311 473.613 466.481 464.463 482.089 460.087Z" fill="#68CDB5"/>
<path d="M469.758 464.662C469.758 464.662 479.852 467.663 480.18 483.759L485.963 481.298C485.963 481.298 487.826 471.518 482.108 460.094C482.088 460.087 474.77 462.041 469.758 464.662Z" fill="#112231"/>
<path d="M459.441 559.15L483.736 557.094L484.944 559.15L463.489 565.621L459.441 559.15Z" fill="#112231"/>
<path d="M553.246 531.629L576.976 527.684L578.306 530.402L556.118 536.551L553.246 531.629Z" fill="#112231"/>
<path opacity="0.5" d="M444.24 592.344L435.418 677.104C435.418 677.104 465.579 659.845 470.63 651.626L444.24 592.344Z" fill="#112231"/>
<path d="M368.369 495.409C370.843 485.019 367.251 473.138 358.544 466.674C350.14 460.434 338.895 460.152 329.507 464.232C320.782 468.029 313.489 475.387 310.424 484.466C308.473 490.369 308.268 496.71 309.832 502.727C311.187 508.284 314.247 513.277 318.584 517.005C323.802 521.31 330.825 523.161 337.559 522.55C352.01 521.246 365.028 509.448 368.369 495.409Z" fill="#F2F8F3"/>
<path d="M388.423 588.418C390.133 584.448 390.796 580.105 390.35 575.805C389.29 565.177 382.28 556.355 373.837 550.302C368.792 546.705 363.225 543.905 357.33 542C351.964 540.251 346.414 539.132 340.79 538.665C337.085 538.372 333.365 538.329 329.655 538.537C308.45 539.636 278.623 549.936 269.152 577.019C267.353 582.16 266.582 588.63 268.561 593.893C271.349 601.224 279.992 600.498 286.398 600.582C301.312 600.775 316.219 600.402 331.133 600.222C339.293 600.126 347.755 600.042 356.032 599.978C363.916 599.914 372.218 600.556 379.761 597.806C384.008 596.251 386.636 592.409 388.423 588.418Z" fill="#F2F8F3"/>
<defs>
<linearGradient id="paint0_linear_730_6517" x1="192.743" y1="270.405" x2="192.743" y2="552.654" gradientUnits="userSpaceOnUse">
<stop stop-color="#D1FADF"/>
<stop offset="1" stop-color="#5ED4C6"/>
</linearGradient>
</defs>
</svg>
