<svg width="935" height="984" viewBox="0 0 935 984" fill="none" xmlns="http://www.w3.org/2000/svg">
<rect width="935" height="984" fill="#0078D4"/>
<path fill-rule="evenodd" clip-rule="evenodd" d="M392.979 385.629C324.982 484.093 224.732 612.023 43.5159 612.023C19.6661 612.023 0.332031 592.873 0.332031 569.253C0.332031 545.633 19.6661 526.483 43.5159 526.483C176.366 526.483 253.758 435.709 321.69 337.339C327.956 328.264 334.262 318.924 340.61 309.525C366.226 271.584 392.481 232.699 419.28 206.6C436.782 189.558 458.555 173.64 485.405 167.554C513.915 161.092 541.986 167.052 568.235 182.65C587.691 194.212 602.504 210.05 611.502 229.783C620.279 249.034 622.314 269.313 620.924 288.407C618.248 325.255 602.189 364.901 583.958 401.705C568.176 433.557 548.638 467.311 529.826 499.813C526.478 505.596 523.151 511.34 519.874 517.029C497.653 555.594 477.452 591.832 463.572 624.656C449.54 657.837 441.216 682.35 440.106 700.785C439.602 709.181 440.78 714.26 442.214 717.462C443.483 720.3 445.933 723.936 452.198 728.071C459.503 732.897 464.173 733.559 467.471 733.474C471.519 733.372 477.832 731.961 487.707 726.572C505.756 716.722 524.93 700.193 551.491 677.296C557.294 672.295 563.454 666.988 570.028 661.378C639.462 602.155 737.859 526.483 891.49 526.483C915.339 526.483 934.671 545.633 934.671 569.253C934.671 592.873 915.339 612.023 891.49 612.023C770.312 612.023 692.278 669.992 626.389 726.193C621.281 730.55 616.099 735.037 610.861 739.572C584.314 762.559 556.349 786.774 529.39 801.486C512.134 810.907 492.091 818.419 469.67 818.985C446.498 819.568 424.58 812.64 404.291 799.243C385.777 787.019 371.806 771.243 363.247 752.108C354.852 733.337 352.797 713.893 353.892 695.7C355.98 660.966 370.18 624.078 383.91 591.614C400.083 553.364 422.787 512.944 444.864 474.63C448.329 468.617 451.777 462.657 455.196 456.752C474.069 424.13 491.976 393.181 506.418 364.027C523.831 328.876 533.368 301.713 534.782 282.263C535.438 273.206 534.146 267.96 532.788 264.985C531.652 262.492 529.523 259.401 523.802 256.001C513.246 249.729 507.823 250.221 504.675 250.936C499.864 252.026 491.812 255.928 479.837 267.589C459.974 286.935 440.456 315.757 415.603 352.453C408.537 362.886 401.037 373.959 392.979 385.629Z" fill="white" fill-opacity="0.15"/>
<path d="M670.495 527.11C667.494 609.843 563.427 730.19 440.472 711.539C409.581 706.851 383.076 694.437 363.175 675.658C381.58 688.244 403.816 698.46 429.226 702.007C552.355 719.245 653.822 601.206 658.483 517.771C661.438 464.944 644.948 422.67 615.707 394.888C651.971 422.35 672.665 467.06 670.495 527.11Z" fill="#112231"/>
<path d="M574.253 367.252C559.122 374.266 545.632 384.582 532.781 395.089C499.646 422.259 467.314 450.724 438.593 482.574C404.846 520.078 377.886 563.647 356.106 608.849C349.429 622.712 343.036 636.795 337.417 651.141C313.448 620.852 303.47 580.265 306.28 538.757C312.5 446.638 410.583 345.235 525.585 354.912C542.382 356.284 558.832 360.455 574.253 367.252Z" fill="#FE6B1B"/>
<path d="M659.249 515.682C656.257 598.406 552.09 721.37 429.226 702.007C400.314 697.447 378.078 687.059 360.019 673.341C351.576 666.927 343.982 659.468 337.418 651.141C343.036 636.795 349.43 622.712 356.106 608.849C377.886 563.647 404.801 520.078 438.593 482.574C467.314 450.652 499.647 422.259 532.782 395.089C545.633 384.554 559.122 374.266 574.254 367.252C589.553 374.029 603.574 383.383 615.707 394.906C644.948 422.651 661.182 462.134 659.249 515.682Z" fill="#FF4F40"/>
<path d="M460.336 676.743C452.798 676.746 445.27 676.179 437.817 675.047C404.071 669.93 376.399 654.224 357.857 629.635C339.515 605.319 331.188 573.835 333.769 538.593C335.32 517.424 342.561 494.75 354.747 473.015C367.164 450.872 383.633 431.259 403.296 415.2C419.697 401.685 438.458 391.322 458.631 384.636C479.613 377.747 501.881 375.69 523.77 378.617C595.148 388.184 634.504 439.543 631.749 519.512C631.084 538.967 624.708 560.136 613.326 580.739C601.52 601.872 585.9 620.633 567.257 636.074C535.162 662.688 497.886 676.743 460.336 676.743ZM504.662 380.696C469.922 380.696 435.264 393.538 405.403 417.79C367.041 448.955 340.245 496.455 337.144 538.803C331.963 609.442 371.684 661.612 438.319 671.709C482.317 678.376 527.336 664.786 565.096 633.402C602.189 602.601 627.016 557.837 628.338 519.394C631.029 441.358 592.768 391.267 523.296 381.964C517.12 381.128 510.895 380.705 504.662 380.696Z" fill="#FFA9DF"/>
<path d="M336.378 668.033C343.913 668.033 350.022 661.924 350.022 654.389C350.022 646.853 343.913 640.744 336.378 640.744C328.842 640.744 322.733 646.853 322.733 654.389C322.733 661.924 328.842 668.033 336.378 668.033Z" fill="#112231"/>
<path d="M333.961 668.033C341.497 668.033 347.605 661.924 347.605 654.389C347.605 646.853 341.497 640.744 333.961 640.744C326.425 640.744 320.316 646.853 320.316 654.389C320.316 661.924 326.425 668.033 333.961 668.033Z" fill="#FFA9DF"/>
<path d="M524.126 491.613C526.735 480.668 522.949 468.172 513.783 461.359C504.945 454.793 493.107 454.501 483.229 458.796C474.045 462.782 466.356 470.535 463.136 480.111C461.082 486.324 460.867 492.997 462.516 499.329C463.943 505.18 467.164 510.439 471.728 514.369C477.374 518.829 484.534 520.919 491.693 520.197C506.915 518.81 520.615 506.388 524.126 491.613Z" fill="#F2F8F3"/>
<path d="M545.24 589.559C547.041 585.378 547.741 580.807 547.274 576.279C546.152 565.097 538.773 555.803 529.89 549.437C524.574 545.663 518.711 542.725 512.506 540.727C506.857 538.871 501.011 537.683 495.086 537.188C491.186 536.882 487.271 536.837 483.366 537.051C461.066 538.209 429.645 549.054 419.676 577.556C417.788 582.973 416.94 589.787 419.056 595.323C421.993 603.039 431.095 602.273 437.835 602.364C453.532 602.565 469.228 602.172 484.916 601.981C493.517 601.881 502.419 601.798 511.129 601.726C519.429 601.662 528.166 602.337 536.11 599.436C540.588 597.767 543.361 593.708 545.24 589.559Z" fill="#F2F8F3"/>
<path d="M643.297 793.597C646.919 799.502 649.807 805.827 651.897 812.431C650.703 818.004 649.782 823.649 648.952 829.231C648.322 833.5 647.629 837.741 646.89 842C646.152 837.759 645.458 833.518 644.829 829.231C642.312 812.239 638.919 794.746 629.68 779.98C629.397 779.524 629.105 779.068 628.768 778.63C629.151 778.876 629.534 779.141 629.908 779.405C635.282 783.184 639.837 788.012 643.297 793.597Z" fill="#68CDB5"/>
<path d="M655.053 684.468C655.235 685.098 655.408 685.718 655.6 686.338C654.56 690.266 653.481 694.188 652.362 698.104C650.927 703.286 649.194 708.38 647.172 713.363C643.196 722.948 637.586 731.923 629.487 738.554C621.388 745.185 611.62 749.17 601.907 752.709C598.933 753.776 596.005 754.725 593.105 755.591C588.472 754.314 583.766 753.284 579.105 752.244C571.681 750.584 564.184 749.316 556.769 747.629C567.713 745.121 577.682 742.886 588.271 739.074C597.985 735.571 607.798 731.513 615.852 724.919C623.906 718.324 629.533 709.313 633.537 699.727C635.562 694.745 637.298 689.651 638.736 684.468C641.207 675.877 643.442 667.212 645.622 658.539C646.06 656.787 646.485 655.033 646.899 653.276C647.306 655.033 647.732 656.787 648.176 658.539C650.346 667.212 652.59 675.877 655.053 684.468Z" fill="#68CDB5"/>
<path d="M737.01 747.629C730.26 749.161 723.447 750.365 716.689 751.806C707.787 748.504 698.94 744.592 691.562 738.554C687.746 735.387 684.39 731.703 681.593 727.609C688.889 732.653 697.226 736.045 705.507 739.028C716.096 742.886 726.038 745.121 737.01 747.629Z" fill="#68CDB5"/>
<path d="M716.69 751.806C716.015 751.943 715.34 752.098 714.674 752.244C701.76 755.126 688.462 757.99 677.48 765.752C672.115 769.543 667.568 774.376 664.11 779.962C657.917 789.885 654.341 801.039 651.906 812.431C649.813 805.826 646.921 799.502 643.296 793.597C639.843 788.007 635.295 783.173 629.925 779.387C629.552 779.123 629.168 778.858 628.785 778.612C625.453 773.588 621.216 769.227 616.29 765.752C609.285 760.79 601.341 757.826 593.133 755.555C596.033 754.688 598.961 753.731 601.934 752.673C611.648 749.17 621.462 745.112 629.515 738.517C637.569 731.923 643.196 722.912 647.2 713.326C649.212 708.352 650.935 703.267 652.362 698.095C653.481 694.185 654.56 690.263 655.6 686.329C656.902 690.873 658.452 695.343 660.242 699.718C664.219 709.304 669.828 718.279 677.927 724.909C679.113 725.876 680.335 726.797 681.576 727.646C684.373 731.74 687.729 735.424 691.544 738.59C698.932 744.61 707.788 748.505 716.69 751.806Z" fill="#BBF6E2"/>
<path d="M339.688 491.968C339.688 491.968 343.418 472.267 358.421 451.317C381.861 418.574 424.363 376.619 467.814 359.199C467.814 359.199 450.038 362.099 423.233 375.552C399.373 387.546 371.354 407.018 349.638 435.456L345.151 454.774L339.688 491.968Z" fill="#112231"/>
<path d="M338.585 498.398C339.98 490.381 341.321 482.373 342.488 474.32C347.231 442.215 353.652 409.171 371.091 381.289C393.892 344.752 431.032 336.881 466.611 328.937C480.62 325.799 494.794 323.419 508.794 320.217C488.072 315.493 469.293 311.261 449.3 304.056C430.949 297.452 412.416 289.782 397.194 277.314C381.972 264.846 371.31 247.845 363.794 229.741C359.978 220.331 356.702 210.711 353.98 200.928C349.329 184.685 345.097 168.322 340.984 151.932C340.154 148.631 339.333 145.32 338.567 142C337.8 145.32 336.989 148.631 336.159 151.932C332.045 168.35 327.813 184.685 323.162 200.928C320.438 210.711 317.158 220.331 313.339 229.741C305.833 247.845 295.244 264.8 279.948 277.314C264.653 289.827 246.202 297.452 227.842 304.056C207.85 311.261 189.07 315.493 168.348 320.217C182.348 323.419 196.513 325.799 210.531 328.937C246.102 336.881 283.223 344.752 306.051 381.289C323.49 409.217 329.911 442.261 334.654 474.32C335.839 482.373 337.153 490.381 338.557 498.398H338.585Z" fill="url(#paint0_linear_8475_13932)"/>
<path d="M293.784 542.816C284.664 540.326 269.724 542.888 261.297 544.904C258.506 545.573 255.715 546.251 252.924 546.938C234.217 551.562 213.942 560.801 194.333 557.244C175.544 553.833 170.528 540.617 169.89 535.355C169.89 535.628 170.327 535.847 170.501 536.011C172.325 537.836 173.903 539.897 175.8 541.639C177.909 543.529 180.485 544.823 183.261 545.388C186.808 546.163 190.302 545.944 193.904 545.889C209.008 545.634 224.002 539.833 238.541 536.24C241.332 535.555 244.113 534.881 246.904 534.215C255.332 532.199 263.887 530.284 272.588 530.065C279.018 529.91 286.698 530.667 291.158 535.893C292.853 537.8 293.788 540.264 293.784 542.816Z" fill="#FFD7F0"/>
<path d="M287.026 532.299C293.036 533.872 298.518 537.021 302.905 541.42C306.365 545.078 308.378 549.869 308.569 554.9C308.97 566 300.926 574.966 293.337 582.062C287.546 587.47 280.641 592.851 273.828 598.588L260.458 586.394C265.022 583.49 269.353 580.233 273.409 576.653C277.179 573.343 280.621 569.678 283.688 565.708C286.462 562.301 288.701 558.49 290.328 554.408C292.9 547.266 294.058 537.234 287.026 532.299Z" fill="#FFA9DF"/>
<path d="M191.989 545.962C199.969 529.445 219.825 526.644 230.852 524.3C233.187 523.799 235.531 523.334 237.838 522.695C241.587 521.655 245.673 520.16 248.19 517.031C251.182 513.328 250.735 507.701 248.19 503.916C245.589 500.105 241.861 497.203 237.528 495.616C232.902 493.977 227.984 493.322 223.09 493.692C226.127 493.692 229.83 494.257 232.338 496.191C234.308 497.714 234.573 500.377 233.716 502.575C232.566 505.539 229.63 507.072 226.912 508.33C223.289 510.028 219.574 511.523 215.784 512.808C208.123 515.353 200.225 517.086 192.399 519.065C187.264 520.369 181.865 521.391 177.268 524.164C173.437 526.48 169.725 530.667 169.634 535.419C169.534 540.599 174.003 543.773 178.618 544.749C183.014 545.643 187.675 546.436 191.989 545.962Z" fill="#FFA9DF"/>
<path d="M169.114 496.902C169.57 501.462 173.373 504.764 177.195 506.798C188.24 512.699 200.763 508.567 212.154 506.196C219.378 504.691 226.428 503.761 233.707 502.548C234.564 500.331 234.308 497.668 232.329 496.163C229.83 494.23 226.118 493.701 223.081 493.664C218.174 493.6 213.331 494.74 208.588 495.89C200.38 497.869 192.372 500.933 184.245 502.958C181.153 503.733 177.761 504.828 174.577 503.97C170.929 502.995 169.661 499.875 169.023 496.473L169.114 496.902Z" fill="#FFD7F0"/>
<path d="M199.066 498.516C196.905 499.209 193.822 500.286 192.244 500.888C190.201 501.663 187.875 501.982 185.86 502.757C182.949 503.798 179.893 504.373 176.803 504.463C172.17 504.691 169.68 500.486 168.923 496.455C168.503 494.211 168.376 491.895 168.065 489.916L185.395 494.476C187.264 494.959 189.134 495.461 190.995 495.953C192.518 496.364 196.613 497.841 199.066 498.516Z" fill="#FFA9DF"/>
<path d="M761.181 388.358C752.899 407.511 728.638 455.577 662.286 450.861C657.958 450.557 653.676 449.78 649.517 448.545C628.786 442.479 613.162 425.743 605.537 406.125C600.845 394.379 599.308 381.61 601.077 369.086C607.462 327.131 645.139 285.641 697.82 288.186C750.92 290.758 777.443 350.68 761.181 388.358Z" fill="#12B76A"/>
<path d="M649.517 448.545L645.796 473.38C619.82 463.138 605.564 434.161 605.537 406.125C613.198 425.716 628.786 442.479 649.517 448.545Z" fill="#20303E"/>
<path d="M665.842 416.842L637.678 354.384L646.871 346.221L670.047 394.259L721.898 320.126L734.402 322.781L665.842 416.842Z" fill="#F7F8F9"/>
<defs>
<linearGradient id="paint0_linear_8475_13932" x1="338.571" y1="320.199" x2="338.571" y2="498.398" gradientUnits="userSpaceOnUse">
<stop stop-color="#68CDB5"/>
<stop offset="1" stop-color="#BBF6E2"/>
</linearGradient>
</defs>
</svg>
