<svg width="828" height="984" viewBox="0 0 828 984" fill="none" xmlns="http://www.w3.org/2000/svg">
<rect width="828" height="984" fill="#0078D4"/>
<path fill-rule="evenodd" clip-rule="evenodd" d="M285.979 385.628C217.982 484.092 117.732 612.023 -63.4841 612.023C-87.3339 612.023 -106.668 592.873 -106.668 569.253C-106.668 545.633 -87.3339 526.483 -63.4841 526.483C69.3656 526.483 146.758 435.709 214.69 337.338C220.956 328.264 227.262 318.924 233.61 309.525C259.226 271.584 285.481 232.698 312.28 206.6C329.782 189.558 351.555 173.639 378.405 167.554C406.915 161.092 434.986 167.052 461.235 182.65C480.692 194.212 495.504 210.049 504.502 229.782C513.279 249.034 515.314 269.313 513.924 288.407C511.248 325.254 495.19 364.901 476.958 401.705C461.176 433.557 441.638 467.31 422.826 499.813C419.478 505.595 416.151 511.34 412.874 517.029C390.653 555.594 370.452 591.832 356.572 624.655C342.54 657.837 334.216 682.35 333.106 700.785C332.602 709.18 333.78 714.26 335.214 717.462C336.483 720.299 338.933 723.936 345.198 728.071C352.503 732.897 357.173 733.559 360.471 733.474C364.519 733.372 370.832 731.961 380.707 726.572C398.756 716.721 417.93 700.193 444.491 677.296C450.294 672.295 456.454 666.988 463.028 661.377C532.462 602.155 630.859 526.483 784.49 526.483C808.339 526.483 827.671 545.633 827.671 569.253C827.671 592.873 808.339 612.023 784.49 612.023C663.312 612.023 585.278 669.991 519.389 726.193C514.281 730.549 509.099 735.037 503.861 739.572C477.314 762.559 449.349 786.774 422.39 801.485C405.134 810.907 385.091 818.419 362.67 818.985C339.498 819.568 317.58 812.639 297.291 799.243C278.777 787.019 264.806 771.243 256.247 752.108C247.852 733.337 245.797 713.893 246.892 695.699C248.98 660.966 263.18 624.078 276.91 591.613C293.083 553.363 315.787 512.944 337.864 474.63C341.329 468.617 344.777 462.656 348.196 456.751C367.069 424.129 384.976 393.181 399.418 364.026C416.831 328.876 426.368 301.713 427.781 282.263C428.438 273.205 427.146 267.96 425.788 264.985C424.652 262.492 422.523 259.401 416.802 256.001C406.246 249.728 400.823 250.221 397.675 250.936C392.864 252.026 384.812 255.928 372.837 267.589C352.974 286.934 333.456 315.757 308.603 352.452C301.537 362.886 294.037 373.958 285.979 385.628Z" fill="white" fill-opacity="0.15"/>
<path d="M136.23 439.406L372.418 291.276C395.53 276.568 422.771 279.006 442.921 297.58L588.487 431.359L525.727 697.446L69.7812 702.268L136.23 439.406Z" fill="#BBF6E2"/>
<path d="M148.309 450.668L362.929 317.96C394.288 296.949 415.741 298.315 435.06 319.505L569.533 444.186" stroke="#112231" stroke-miterlimit="10"/>
<path d="M550.311 360.687L532.388 469.284L515.012 574.498V574.593L395.668 572.05L384.553 571.851L269.589 569.403L254.671 569.077L150.203 566.808L167.065 468.17L185.408 360.845C186.171 355.541 188.865 350.706 192.973 347.267C197.081 343.828 202.314 342.026 207.669 342.207H212.018L534.826 342.439C537.099 342.449 539.344 342.952 541.405 343.912C543.466 344.872 545.295 346.267 546.766 348.001C548.237 349.734 549.316 351.766 549.928 353.956C550.539 356.145 550.67 358.442 550.311 360.687Z" fill="#005CA3"/>
<path d="M216.641 496.473L335.996 464.441L459.385 411.513L467.254 428.669L499.79 421.168L523.753 555.283L286.998 679.019H185.072L123.887 535.417L216.641 496.473Z" fill="#0A95FF" fill-opacity="0.34"/>
<path d="M172.256 437.798L263.057 557.815L167.066 468.17L172.256 437.798Z" fill="#112231"/>
<path d="M588.487 431.359L557.601 562.291L555.5 571.178L550.352 592.978C543.959 590.84 537.829 587.982 532.083 584.457C526.902 581.408 522.062 577.812 517.648 573.731L516.786 573.794C519.938 582.272 524.582 588.639 530.181 595.31C534.921 600.907 540.338 605.893 546.307 610.154L525.727 697.351L69.7812 702.184L136.23 439.406L167.032 468.17L170.783 471.669L266.048 560.641L254.765 568.951L254.639 569.035L93.3034 687.749L269.588 569.361L269.725 569.266L300.717 548.444C310.003 542.209 321.095 539.226 332.256 539.964C343.418 540.701 354.02 545.117 362.406 552.52L384.468 571.714L384.573 571.809L518.751 688.674L395.656 572.061L395.562 571.966L389.258 566.02L532.356 469.294L537.241 465.985L588.487 431.359Z" fill="#2EB6BD"/>
<path d="M554.659 360.687L537.272 465.954L532.387 469.263L550.309 360.687C550.672 358.44 550.544 356.142 549.933 353.949C549.323 351.757 548.245 349.723 546.773 347.987C545.302 346.251 543.472 344.854 541.409 343.893C539.346 342.931 537.1 342.428 534.824 342.418H539.163C541.439 342.427 543.687 342.929 545.751 343.889C547.815 344.85 549.647 346.247 551.119 347.983C552.592 349.719 553.671 351.754 554.282 353.947C554.893 356.14 555.021 358.439 554.659 360.687Z" fill="white"/>
<path d="M548.952 395.209L564.616 410.431L548.469 458.4L537.27 465.975L548.952 395.209Z" fill="#112231"/>
<path d="M635.321 498.962C637.61 501.971 639.621 505.182 641.33 508.554C643.36 512.421 645.116 516.427 646.583 520.541C649.051 527.248 650.596 534.261 651.174 541.384C651.836 550.556 650.596 560.042 646.31 568.268C638.031 584.174 620.455 593.608 603.552 597.159C600.01 597.889 596.417 598.342 592.804 598.514H592.153C571.509 599.449 549.542 595.226 532.082 584.468C524.665 579.909 518.288 575.307 512.594 568.258L550.908 552.573C552.678 555.61 554.644 558.53 556.791 561.314C557.491 562.14 558.192 562.949 558.892 563.74L559.029 563.887C563.453 568.452 568.388 572.491 573.737 575.927C578.58 579.173 585.293 582.64 590.367 582.157C594.937 581.716 599.927 577.566 603.363 573.752C606.849 569.953 609.428 565.413 610.906 560.473C614.551 547.562 611.526 534.283 606.808 522.106C604.92 517.05 602.673 512.135 600.085 507.399L635.321 498.962Z" stroke="#FF945A" stroke-miterlimit="10"/>
<path d="M635.321 498.962C637.61 501.971 639.621 505.182 641.33 508.554C643.36 512.421 645.116 516.427 646.583 520.541C649.051 527.248 650.596 534.261 651.174 541.384C651.836 550.556 650.596 560.042 646.31 568.268C638.031 584.174 620.455 593.608 603.552 597.159C600.01 597.889 596.417 598.342 592.804 598.514H592.153C571.509 599.449 549.542 595.226 532.082 584.468C524.665 579.909 518.288 575.307 512.594 568.258L550.908 552.573C552.678 555.61 554.644 558.53 556.791 561.314C557.491 562.14 558.192 562.949 558.892 563.74L559.029 563.887C563.453 568.452 568.388 572.491 573.737 575.927C578.58 579.173 585.293 582.64 590.367 582.157C594.937 581.716 599.927 577.566 603.363 573.752C606.849 569.953 609.428 565.413 610.906 560.473C614.551 547.562 611.526 534.283 606.808 522.106C604.92 517.05 602.673 512.135 600.085 507.399L635.321 498.962Z" stroke="#FF945A" stroke-miterlimit="10"/>
<path d="M634.501 582.714C625.708 590.068 614.541 594.858 603.562 597.159C600.017 597.889 596.42 598.342 592.804 598.514H592.164C584.795 598.85 577.411 598.52 570.102 597.527C563.39 596.619 556.777 595.086 550.351 592.946C543.959 590.818 537.83 587.971 532.082 584.457C526.901 581.408 522.061 577.812 517.647 573.731C515.844 572.016 514.156 570.184 512.594 568.247L550.908 552.562C552.686 555.595 554.651 558.514 556.791 561.303L557.6 562.249C558.041 562.753 558.482 563.299 558.934 563.73L559.071 563.877C560.048 564.927 561.067 565.978 562.117 566.902L562.222 566.997C565.737 570.567 569.733 573.629 574.094 576.095C577.611 578.532 581.489 580.401 585.587 581.631C586.806 582.115 588.035 582.556 589.275 582.966C603.51 587.683 620.403 588.775 634.501 582.714Z" fill="#F5AB71"/>
<path d="M550.362 592.977L546.307 610.196C540.341 605.935 534.928 600.948 530.192 595.352C524.592 588.681 519.98 582.314 516.797 573.836L517.658 573.773C522.072 577.839 526.907 581.421 532.083 584.457C537.833 587.982 543.965 590.841 550.362 592.977Z" fill="#112231"/>
<path d="M100.309 581.463L102.273 573.679C102.578 573.553 104.984 576.946 105.257 577.314C107.729 580.415 109.524 584.001 110.524 587.839C111.525 591.677 111.71 595.682 111.066 599.596C110.961 600.647 110.867 601.624 110.856 602.643C110.856 597.6 110.562 594.039 108.303 589.479C106.423 585.687 103.996 584.121 100.309 581.463Z" fill="#112231"/>
<path d="M646.311 568.268C643.371 573.818 639.357 578.729 634.502 582.714C620.404 588.775 603.511 587.683 589.328 583.008C588.088 582.598 586.859 582.157 585.641 581.673C587.216 582.13 588.859 582.304 590.494 582.188C595.075 581.747 600.054 577.597 603.5 573.784C606.982 569.982 609.561 565.442 611.043 560.505C611.369 559.338 611.653 558.162 611.863 556.985C614.121 545.198 611.232 533.211 606.936 522.138C605.052 517.08 602.805 512.164 600.212 507.43L635.374 498.962C637.156 501.262 638.75 503.7 640.144 506.253C640.564 507.01 640.974 507.787 641.384 508.554C643.427 512.422 645.2 516.427 646.689 520.541C649.122 527.253 650.631 534.265 651.175 541.384C651.847 550.556 650.597 560.042 646.311 568.268Z" fill="#F26B3E"/>
<path d="M89.8462 621.08C101.549 621.08 111.036 611.593 111.036 599.89C111.036 588.187 101.549 578.7 89.8462 578.7C78.1433 578.7 68.6562 588.187 68.6562 599.89C68.6562 611.593 78.1433 621.08 89.8462 621.08Z" fill="#FDCD41"/>
<path d="M104.156 445.951L117.298 441.791L117.235 455.721L131.649 443.587L144.393 455.332L132.427 466.868L147.46 468.296L141.031 486.051L126.554 484.444L128.865 496.767L110.638 503.217L107.906 488.866L95.9405 501.463L94.3121 490.547L100.069 477.09L87.5254 472.499L85.4453 464.273L100.742 464.514L104.156 445.951Z" fill="#20303E"/>
<path d="M87.7558 444.638L106.403 435.351L109.986 449.281L120.502 435.351L133.886 445.131L124.568 457.591H139.15L135.567 475.913H120.985L125.765 488.856L108.557 498.385L104.25 485.442L94.448 498.385L79.1517 489.108L89.6679 476.155L74.6133 476.396L78.1957 457.833L93.4919 458.074L87.7558 444.638Z" fill="white"/>
<path d="M219.561 443.335L230.666 437.798L232.809 446.098L239.07 437.798L247.044 443.619L241.497 451.046H250.175L248.042 461.961H239.354L242.201 469.673L231.958 475.346L229.394 467.635L223.553 475.346L214.434 469.82L220.706 462.109L211.734 462.245L213.867 451.193L222.986 451.33L219.561 443.335Z" fill="white"/>
<path d="M267.561 443.335L278.666 437.798L280.798 446.098L287.07 437.798L295.044 443.619L289.486 451.046H298.175L296.042 461.961H287.354L290.201 469.673L279.947 475.346L277.384 467.634L271.543 475.346L262.434 469.82L268.696 462.109L259.734 462.245L261.867 451.193L270.975 451.33L267.561 443.335Z" fill="white"/>
<path d="M316.423 443.335L327.528 437.798L329.671 446.098L335.932 437.798L343.906 443.619L338.348 451.046H347.037L344.904 461.961H336.216L339.063 469.673L328.809 475.346L326.246 467.634L320.405 475.346L311.296 469.82L317.558 462.109L308.586 462.245L310.729 451.193L319.837 451.33L316.423 443.335Z" fill="white"/>
<path d="M363.413 443.335L374.528 437.798L376.66 446.098L382.922 437.798L390.895 443.619L385.348 451.046H394.026L391.893 461.961H383.205L386.052 469.673L375.799 475.346L373.246 467.634L367.405 475.346L358.286 469.82L364.558 462.109L355.586 462.245L357.719 451.193L366.838 451.33L363.413 443.335Z" fill="white"/>
<path d="M412.233 443.335L423.337 437.798L425.481 446.098L431.742 437.798L439.716 443.619L434.158 451.046H442.846L440.714 461.961H432.026L434.873 469.673L424.619 475.346L422.056 467.634L416.225 475.346L407.106 469.82L413.368 462.109L404.406 462.245L406.539 451.193L415.647 451.33L412.233 443.335Z" fill="white"/>
<path d="M458.372 443.335L469.477 437.798L471.609 446.098L477.871 437.798L485.845 443.619L480.298 451.046H488.986L486.843 461.961H478.165L481.012 469.673L470.759 475.346L468.195 467.634L462.354 475.346L453.246 469.82L459.507 462.109L450.535 462.245L452.678 451.193L461.787 451.33L458.372 443.335Z" fill="white"/>
<path d="M234.215 414.266C233.912 416.369 233.117 418.37 231.893 420.107C230.808 421.623 229.364 422.847 227.691 423.668C226.056 424.469 224.258 424.882 222.438 424.877C220.6 424.926 218.784 424.472 217.185 423.563C215.706 422.698 214.568 421.352 213.96 419.75C213.259 417.775 213.117 415.644 213.55 413.593C213.841 411.481 214.63 409.469 215.851 407.721C216.936 406.194 218.379 404.957 220.053 404.117C221.717 403.302 223.548 402.885 225.401 402.899C227.218 402.851 229.014 403.306 230.59 404.212C232.068 405.096 233.201 406.455 233.805 408.067C234.501 410.058 234.643 412.201 234.215 414.266ZM228.363 413.593C228.541 412.568 228.541 411.52 228.363 410.494C228.249 409.756 227.877 409.082 227.313 408.593C226.691 408.136 225.929 407.91 225.159 407.952C224.191 407.935 223.239 408.197 222.417 408.708C221.594 409.234 220.915 409.956 220.442 410.809C219.897 411.874 219.541 413.026 219.391 414.213C219.173 415.229 219.152 416.278 219.328 417.302C219.461 418.034 219.857 418.692 220.442 419.151C221.077 419.585 221.837 419.799 222.606 419.76C223.556 419.778 224.492 419.527 225.306 419.035C226.128 418.515 226.801 417.791 227.26 416.934C227.812 415.898 228.185 414.775 228.363 413.614V413.593Z" fill="white"/>
<path d="M236.336 407.889L237.134 403.214H255.729L254.931 407.889H248.501L245.738 424.603H240.013L242.776 407.889H236.336Z" fill="white"/>
<path d="M254.355 424.603L257.906 403.214H267.141C268.534 403.164 269.916 403.487 271.144 404.149C272.201 404.742 273.027 405.675 273.486 406.796C273.973 408.061 274.09 409.439 273.822 410.767C273.611 412.221 273.036 413.597 272.152 414.77C271.293 415.89 270.166 416.775 268.874 417.344C267.473 417.967 265.953 418.275 264.42 418.247H258.904L259.661 413.741H264C264.632 413.753 265.259 413.628 265.838 413.373C266.355 413.145 266.802 412.782 267.13 412.322C267.468 411.853 267.684 411.309 267.761 410.736C267.869 410.213 267.825 409.67 267.635 409.171C267.457 408.717 267.121 408.344 266.689 408.12C266.165 407.87 265.588 407.751 265.008 407.773H262.96L260.197 424.603H254.355Z" fill="white"/>
<path d="M446.792 373.623C446.228 373.13 445.806 372.472 445.571 371.651C445.313 370.829 445.195 369.961 445.195 369.045C445.195 368.318 445.289 367.567 445.501 366.839C445.712 366.111 446.017 365.477 446.463 365.008C447.167 364.186 448.083 363.717 449.209 363.553C450.336 363.412 451.345 363.482 452.237 363.811C453.27 364.21 454.045 364.938 454.538 365.947C455.007 366.839 455.242 367.895 455.242 369.092C455.242 369.961 455.148 370.712 454.96 371.346C454.773 371.98 454.514 372.496 454.233 372.942C453.575 373.834 452.754 374.397 451.744 374.609C450.853 374.843 449.937 374.867 449.022 374.679C448.106 374.468 447.378 374.116 446.839 373.623H446.792ZM448.763 366.416C448.2 367.05 447.942 367.989 447.989 369.21C448.036 370.454 448.27 371.322 448.693 371.815C448.857 372.026 449.139 372.214 449.561 372.379C449.961 372.519 450.383 372.543 450.806 372.426C451.228 372.308 451.604 372.003 451.932 371.51C452.261 371.017 452.425 370.219 452.472 369.139C452.472 368.153 452.308 367.426 452.003 366.933C451.698 366.44 451.322 366.135 450.923 365.994C450.524 365.853 450.101 365.853 449.702 365.994C449.303 366.111 448.998 366.276 448.81 366.463L448.763 366.416Z" fill="white"/>
<path d="M464.911 374.608H463.479C463.08 374.608 462.728 374.467 462.47 374.209C462.212 373.951 462.071 373.622 462.071 373.2V367.637C462.071 366.98 461.883 366.51 461.484 366.205C461.085 365.9 460.639 365.759 460.146 365.759C459.653 365.759 459.207 365.9 458.831 366.205C458.456 366.51 458.268 366.98 458.268 367.637V374.585H455.404V368.2C455.404 366.346 455.897 365.102 456.86 364.468C457.822 363.834 458.902 363.505 460.075 363.435C461.273 363.435 462.376 363.74 463.385 364.374C464.395 365.008 464.887 366.275 464.887 368.177V374.561L464.911 374.608Z" fill="white"/>
<path d="M472.798 371.251H474.84C474.535 372.402 473.971 373.27 473.126 373.88C472.281 374.514 471.225 374.819 469.934 374.819C468.385 374.819 467.164 374.326 466.295 373.317C465.427 372.331 464.981 370.923 464.981 369.115C464.981 367.308 465.403 365.993 466.249 365.031C467.117 364.022 468.338 363.529 469.887 363.529C471.53 363.529 472.798 364.022 473.689 365.008C474.558 366.017 475.004 367.425 475.004 369.209V369.655C475.004 369.796 475.004 369.89 474.957 369.937H467.892C467.915 370.782 468.126 371.416 468.502 371.815C468.854 372.261 469.394 372.472 470.098 372.472C470.568 372.472 470.967 372.378 471.272 372.19C471.366 372.167 471.436 372.12 471.506 372.05C471.577 371.979 471.647 371.909 471.741 371.815C471.765 371.744 471.882 371.627 472.046 371.486C472.234 371.345 472.469 371.275 472.798 371.275V371.251ZM467.892 368.059H472.07C472.023 367.331 471.835 366.768 471.506 366.416C471.154 366.04 470.638 365.853 470.004 365.853C469.394 365.853 468.924 366.04 468.525 366.416C468.15 366.792 467.939 367.331 467.915 368.059H467.892Z" fill="white"/>
<path d="M475.383 374.608V362.003C475.383 361.604 475.524 361.251 475.805 360.97C476.087 360.688 476.439 360.547 476.838 360.547H478.27V366.322L483.739 360.547H487.378L481.721 366.228L487.847 374.608H484.326L480.758 369.608C480.125 368.786 479.561 368.458 479.021 368.646C478.481 368.833 478.223 369.162 478.223 369.655V374.608H475.313H475.383Z" fill="white"/>
<path d="M494.865 366.792C494.466 366.229 493.903 365.924 493.199 365.924C492.424 365.924 491.837 366.205 491.438 366.745C491.039 367.285 490.828 368.036 490.828 368.999V374.609H488.058V360.525H489.443C489.819 360.525 490.147 360.666 490.429 360.924C490.711 361.206 490.828 361.534 490.828 361.91V365.149C491.321 364.328 492.025 363.811 492.917 363.6C493.809 363.389 494.677 363.436 495.499 363.764C496.274 364.093 496.907 364.609 497.424 365.313C497.94 366.018 498.198 367.003 498.198 368.248V374.585H495.452V368.928C495.452 368.529 495.429 368.154 495.358 367.802C495.288 367.473 495.123 367.121 494.889 366.769L494.865 366.792Z" fill="white"/>
<path d="M508.106 363.718V370.102C508.106 372.05 507.613 373.318 506.604 373.905C505.595 374.515 504.492 374.797 503.294 374.797C502.121 374.75 501.041 374.421 500.079 373.811C499.116 373.201 498.623 371.98 498.623 370.079V363.718H501.487V370.666C501.487 371.323 501.675 371.792 502.05 372.097C502.426 372.403 502.872 372.543 503.365 372.543C503.858 372.543 504.304 372.403 504.703 372.097C505.102 371.792 505.29 371.323 505.29 370.666V365.102C505.29 364.727 505.407 364.398 505.689 364.117C505.97 363.835 506.276 363.718 506.698 363.718H508.13H508.106Z" fill="white"/>
<path d="M508.171 370.993H510.941C510.964 371.533 511.175 371.955 511.551 372.214C511.95 372.495 512.513 372.613 513.194 372.613C513.687 372.613 514.11 372.519 514.462 372.331C514.79 372.143 514.955 371.885 514.955 371.556C514.955 371.063 514.391 370.688 513.241 370.453C512.748 370.383 512.373 370.289 512.138 370.218C510.683 369.866 509.72 369.444 509.227 368.951C508.687 368.458 508.406 367.801 508.406 366.979C508.406 365.946 508.805 365.078 509.603 364.397C510.424 363.763 511.481 363.458 512.795 363.458C514.203 363.458 515.354 363.763 516.199 364.397C516.997 365.078 517.419 365.97 517.466 367.05H515.706C515.189 367.05 514.79 366.815 514.509 366.345L514.18 366.017C513.851 365.782 513.405 365.641 512.819 365.641C512.232 365.641 511.856 365.735 511.598 365.876C511.363 366.04 511.222 366.275 511.222 366.604C511.222 367.05 511.927 367.402 513.358 367.707C513.523 367.754 513.664 367.801 513.781 367.824C513.898 367.848 514.016 367.871 514.133 367.871C515.518 368.223 516.48 368.646 517.044 369.092C517.56 369.585 517.818 370.242 517.818 371.063C517.818 372.261 517.372 373.2 516.504 373.833C515.682 374.444 514.462 374.725 512.819 374.725C511.175 374.725 510.096 374.42 509.345 373.786C508.546 373.153 508.171 372.237 508.171 371.04V370.923V370.993Z" fill="white"/>
<path d="M524.913 374.138C524.349 374.444 523.739 374.631 523.082 374.702C522.448 374.772 521.885 374.796 521.392 374.796C520.406 374.796 519.561 374.537 518.81 373.998C518.059 373.458 517.707 372.589 517.707 371.369C517.707 370.218 518.035 369.397 518.716 368.904C519.397 368.411 520.242 368.082 521.275 367.918C521.415 367.918 521.58 367.918 521.767 367.848C521.955 367.801 522.167 367.777 522.425 367.754C523.622 367.589 524.232 367.237 524.232 366.697C524.232 366.298 524.021 366.017 523.598 365.899C523.176 365.782 522.777 365.712 522.425 365.712C522.049 365.712 521.697 365.759 521.392 365.876C521.087 365.993 520.875 366.181 520.735 366.486H517.988C518.106 365.641 518.481 364.937 519.138 364.397C519.866 363.763 520.922 363.458 522.284 363.458C523.81 363.458 524.96 363.716 525.711 364.233C526.509 364.773 526.885 365.547 526.885 366.533V370.265C526.885 371.345 526.697 372.214 526.298 372.824C525.899 373.434 525.429 373.88 524.889 374.162L524.913 374.138ZM524.256 369.115C523.88 369.303 523.34 369.491 522.659 369.655L521.721 369.866C521.228 370.007 520.875 370.171 520.664 370.406C520.476 370.711 520.383 370.993 520.383 371.298C520.383 371.697 520.5 372.026 520.758 372.284C521.016 372.495 521.368 372.613 521.814 372.613C522.589 372.613 523.176 372.401 523.622 371.955C524.068 371.509 524.279 370.923 524.279 370.148V369.115H524.256Z" fill="white"/>
<path d="M528.03 372.614C528.195 372.614 528.312 372.637 528.453 372.708C528.617 372.778 528.735 372.872 528.805 372.966C528.922 373.06 528.993 373.177 529.04 373.318C529.11 373.482 529.134 373.6 529.134 373.74C529.134 373.881 529.11 374.022 529.04 374.163C528.969 374.304 528.899 374.421 528.805 374.515C528.688 374.632 528.57 374.703 528.453 374.773C528.265 374.82 528.124 374.844 528.03 374.844C527.89 374.844 527.749 374.82 527.608 374.75C527.491 374.703 527.35 374.632 527.256 374.515C527.162 374.398 527.068 374.28 527.021 374.163C526.974 374.046 526.951 373.905 526.951 373.764C526.951 373.694 526.951 373.576 526.998 373.459C526.998 373.412 527.021 373.388 527.045 373.341C527.045 373.295 527.091 373.248 527.115 373.201C527.209 373.013 527.326 372.895 527.514 372.825C527.655 372.731 527.843 372.661 528.054 372.661L528.03 372.614ZM528.03 372.802C528.03 372.802 527.796 372.802 527.678 372.849C527.631 372.895 527.584 372.919 527.514 372.942C527.467 372.966 527.42 372.989 527.373 373.036C527.303 373.107 527.232 373.224 527.162 373.341C527.115 373.506 527.091 373.623 527.091 373.694C527.091 373.764 527.115 373.881 527.162 374.046C527.185 374.116 527.256 374.21 527.35 374.327C527.42 374.398 527.537 374.468 527.655 374.539C527.772 374.586 527.89 374.586 528.007 374.586C528.124 374.586 528.242 374.586 528.359 374.539C528.476 374.468 528.594 374.398 528.664 374.327C528.758 374.233 528.828 374.14 528.852 374.046C528.899 373.952 528.922 373.834 528.922 373.694C528.922 373.553 528.922 373.459 528.875 373.341C528.805 373.224 528.735 373.107 528.664 373.036C528.594 372.966 528.5 372.895 528.383 372.825C528.265 372.778 528.148 372.778 528.03 372.778V372.802ZM527.561 374.304V373.224C527.561 373.224 527.608 373.107 527.702 373.107H528.171C528.312 373.107 528.406 373.13 528.453 373.177C528.523 373.224 528.547 373.318 528.547 373.435C528.547 373.529 528.547 373.576 528.5 373.6C528.453 373.67 528.406 373.694 528.359 373.717C528.406 373.74 528.453 373.764 528.476 373.787C528.5 373.834 528.523 373.905 528.523 373.952V374.21C528.523 374.21 528.523 374.233 528.523 374.257C528.523 374.257 528.523 374.28 528.57 374.28H528.289V373.999C528.289 373.999 528.242 373.881 528.242 373.834C528.218 373.811 528.171 373.787 528.101 373.787H527.843V374.257H527.584L527.561 374.304ZM527.819 373.6H528.124C528.124 373.6 528.242 373.6 528.265 373.553C528.289 373.553 528.312 373.506 528.312 373.435C528.312 373.365 528.312 373.341 528.265 373.318C528.218 373.271 528.171 373.271 528.124 373.271H527.819V373.6Z" fill="white"/>
<path d="M431.901 367.682C430.779 368.803 429.658 369.929 428.532 371.051C428.507 371.075 428.483 371.104 428.454 371.129C428.215 371.373 428.156 371.743 428.312 372.045L429.292 373.976C429.531 374.449 429.77 374.917 430.009 375.385H439.624C437.049 372.821 434.475 370.251 431.901 367.682Z" fill="white"/>
<path d="M427.405 374.049C427.405 374.049 427.38 374.015 427.371 373.996L426.391 372.065C426.366 372.021 426.347 371.972 426.332 371.924C426.254 371.655 426.327 371.353 426.532 371.148C426.561 371.124 426.586 371.095 426.61 371.07C427.156 370.549 427.858 369.871 428.658 369.081C429.886 367.867 430.774 366.946 431.091 366.624C433.29 364.405 435.488 362.187 437.682 359.973H426.6C426.308 359.973 426.039 360.139 425.908 360.402L424.757 362.704C424.708 362.801 424.66 362.899 424.611 362.996C424.611 363.001 424.606 363.001 424.606 363.006C423.982 364.254 423.358 365.497 422.739 366.746C422.441 367.336 422.441 368.028 422.739 368.618C423.358 369.861 423.982 371.109 424.606 372.353C425.113 373.367 425.615 374.376 426.122 375.385H428.053C427.946 375.151 427.697 374.639 427.41 374.059C427.41 374.059 427.405 374.059 427.405 374.049Z" fill="white"/>
</svg>
