<svg width="828" height="984" viewBox="0 0 828 984" fill="none" xmlns="http://www.w3.org/2000/svg">
<rect width="828" height="984" fill="#0078D4"/>
<path fill-rule="evenodd" clip-rule="evenodd" d="M285.979 385.628C217.982 484.092 117.732 612.023 -63.4841 612.023C-87.3339 612.023 -106.668 592.873 -106.668 569.253C-106.668 545.633 -87.3339 526.483 -63.4841 526.483C69.3656 526.483 146.758 435.709 214.69 337.338C220.956 328.264 227.262 318.924 233.61 309.525C259.226 271.584 285.481 232.698 312.28 206.6C329.782 189.558 351.555 173.639 378.405 167.554C406.915 161.092 434.986 167.052 461.235 182.65C480.691 194.212 495.504 210.049 504.502 229.782C513.279 249.034 515.314 269.313 513.924 288.407C511.248 325.254 495.189 364.901 476.958 401.705C461.176 433.557 441.638 467.31 422.826 499.813C419.478 505.595 416.151 511.34 412.874 517.029C390.653 555.594 370.452 591.832 356.572 624.655C342.54 657.837 334.216 682.35 333.106 700.785C332.602 709.18 333.78 714.26 335.214 717.462C336.483 720.299 338.933 723.936 345.198 728.071C352.503 732.897 357.173 733.559 360.471 733.474C364.519 733.372 370.832 731.961 380.707 726.572C398.756 716.721 417.93 700.193 444.491 677.296C450.294 672.295 456.454 666.988 463.028 661.377C532.462 602.155 630.859 526.483 784.49 526.483C808.339 526.483 827.671 545.633 827.671 569.253C827.671 592.873 808.339 612.023 784.49 612.023C663.312 612.023 585.278 669.991 519.389 726.193C514.281 730.549 509.099 735.037 503.861 739.572C477.314 762.559 449.349 786.774 422.39 801.485C405.134 810.907 385.091 818.419 362.67 818.985C339.498 819.568 317.58 812.639 297.291 799.243C278.777 787.019 264.806 771.243 256.247 752.108C247.852 733.337 245.797 713.893 246.892 695.699C248.98 660.966 263.181 624.078 276.91 591.613C293.083 553.363 315.787 512.944 337.864 474.63C341.329 468.617 344.777 462.656 348.196 456.751C367.069 424.129 384.976 393.181 399.418 364.026C416.831 328.876 426.368 301.713 427.781 282.263C428.438 273.205 427.146 267.96 425.788 264.985C424.652 262.492 422.523 259.401 416.802 256.001C406.246 249.728 400.823 250.221 397.675 250.936C392.864 252.026 384.812 255.928 372.837 267.589C352.974 286.934 333.456 315.757 308.603 352.452C301.537 362.886 294.037 373.958 285.979 385.628Z" fill="white" fill-opacity="0.15"/>
<path d="M86.4097 708.11C92.7897 716.7 115.27 721.28 125.05 715.86L270.37 635.37C285.21 627.15 291.52 608.89 285.08 592.8L228.08 450.38C224.13 440.51 214.61 427.1 193.83 430.63L205.2 436.26C207.58 438.56 209.47 439.92 210.79 443.26L267 583.82C270.068 591.498 270.224 600.032 267.439 607.817C264.655 615.601 259.121 622.1 251.88 626.09L105.12 706.94C102.283 708.51 99.1323 709.429 95.8964 709.631C92.6605 709.834 89.42 709.314 86.4097 708.11Z" fill="#61763D"/>
<path d="M103.42 475.2L175.68 440.58C189.41 434.78 199.63 439.01 208.51 452.89L224.89 477.74L212.41 446.33C211.023 442.861 208.902 439.732 206.192 437.16C203.482 434.588 200.247 432.633 196.71 431.429C193.173 430.225 189.417 429.801 185.701 430.187C181.984 430.572 178.395 431.757 175.18 433.66L103.42 475.2Z" fill="#D9FF6F"/>
<path d="M25.0598 543.18L73.6198 694.42C74.6168 697.5 76.2815 700.323 78.495 702.686C80.7084 705.048 83.4161 706.894 86.4249 708.089C89.4336 709.285 92.6692 709.802 95.9008 709.604C99.1324 709.405 102.28 708.495 105.12 706.94L251.86 626.08C259.104 622.095 264.641 615.6 267.43 607.816C270.218 600.033 270.065 591.498 267 583.82L224.89 477.74L208.51 452.89C199.63 439.01 189.41 434.78 175.68 440.58L103.42 475.2L36.0598 514.2C31.2137 517.069 27.486 521.499 25.4874 526.765C23.4889 532.03 23.3381 537.818 25.0598 543.18Z" fill="#9BD50F"/>
<path d="M153.349 569.48C151.469 570.41 150.192 572.143 149.178 575.141L129.432 632.822C131.906 633.522 135.354 632.749 139.718 630.591L211.449 595.124C215.258 593.24 217.611 591.191 218.457 588.986L160.379 569.603C157.428 568.611 155.266 568.533 153.349 569.48ZM188.869 518.542L172.589 565.97L220.03 581.662C220.15 579.883 219.427 577.343 217.799 574.049L193.49 524.886C191.877 521.623 190.341 519.495 188.869 518.542ZM171.752 517.654L100.022 553.121C96.1163 555.052 93.7394 557.163 92.8751 559.432L141.383 575.635L142.752 571.498C144.383 566.968 146.646 564.148 149.914 562.532C153.217 560.899 156.841 560.808 161.394 562.281L165.533 563.674L182.059 515.38C179.515 514.751 176.103 515.503 171.752 517.654ZM91.4275 566.768C91.3533 568.53 92.0866 571.01 93.682 574.236L117.991 623.399C119.583 626.62 121.162 628.736 122.594 629.702L138.916 582.62L91.4275 566.768Z" fill="#F2F8F3"/>
<path d="M212.7 334.59C179.56 341.11 176.17 344.26 169.6 380.59C164.05 344.17 160.47 341.37 126.5 334.59C158.56 326.43 161.82 323.19 169.6 288.59C176.67 322.87 179.84 326.19 212.7 334.59Z" fill="white"/>
<path d="M200.49 337.21C202.157 336.803 203.94 336.397 205.84 335.99C206.34 335.05 206.84 334.14 207.38 333.2L203.25 332.06C202.29 333.78 201.36 335.49 200.49 337.21Z" fill="#112231"/>
<path d="M194.56 378.08C194.199 378.128 193.834 378.152 193.47 378.15C192.327 378.197 191.192 377.945 190.176 377.419C189.161 376.893 188.3 376.111 187.68 375.15C184.47 370.34 186.33 361.3 188.43 354.57C191.815 344.356 196.55 334.64 202.51 325.68C206.811 318.886 211.929 312.646 217.75 307.1C221.38 303.78 226.69 299.81 231.32 299.75C232.462 299.705 233.597 299.958 234.612 300.484C235.627 301.01 236.488 301.791 237.11 302.75C240.32 307.57 238.46 316.61 236.36 323.34C232.973 333.554 228.238 343.269 222.28 352.23C217.967 359.023 212.835 365.26 207 370.8C203.65 373.86 198.87 377.48 194.5 378.06L194.56 378.08ZM230.76 303.86C228.25 304.2 224.63 306.39 220.65 310.03C215.084 315.339 210.193 321.314 206.09 327.82C200.331 336.469 195.754 345.849 192.48 355.71C189.93 363.83 189.48 370.28 191.26 372.98C191.486 373.357 191.812 373.663 192.203 373.865C192.593 374.066 193.032 374.155 193.47 374.12C195.98 374.12 199.86 371.84 204.16 367.92C209.722 362.607 214.611 356.632 218.72 350.13C224.476 341.476 229.053 332.093 232.33 322.23C234.88 314.11 235.33 307.66 233.55 304.97C233.325 304.592 232.999 304.284 232.608 304.081C232.218 303.878 231.779 303.788 231.34 303.82C231.146 303.814 230.951 303.827 230.76 303.86Z" fill="#68CDB5"/>
<path d="M206 281.23C200.19 284.62 198.46 287.38 196.33 296.66C194.19 287.38 192.47 284.66 186.65 281.23C192.47 277.84 194.19 275.08 196.33 265.8C198.45 275.08 200.18 277.84 206 281.23Z" fill="#FF945A"/>
<path d="M691.26 278.27C689.983 278.286 688.752 277.795 687.837 276.904C686.922 276.014 686.398 274.797 686.38 273.52C686.379 272.894 686.509 272.274 686.76 271.7C678.398 285.149 665.126 294.811 649.76 298.64C648.05 299.06 646.33 299.41 644.58 299.64C643.91 298.13 643.21 296.7 642.58 295.43C638.34 287.29 633.9 281.43 628.58 277C621.72 271.24 613.23 268.17 605.34 268.6C596.51 269.07 587.13 275.33 587.34 284.6C587.49 290.43 591.34 295.6 598.64 299.97C610.53 306.983 624.198 310.4 637.99 309.81C638.655 312.503 638.603 315.323 637.84 317.99C636.49 322.26 632.46 326.18 627.08 328.45C625.73 329.007 624.347 329.481 622.94 329.87C614.35 318.16 600.66 308.61 583.6 302.6C577.47 300.44 569.39 298.17 561.26 299.8C554.73 301.12 549.62 304.92 547.57 309.98C545.45 315.21 546.79 321.76 550.95 326.63C554.62 330.92 559.59 333.3 563.51 334.9C576.24 340.07 591.35 342.13 609.72 341.2C612.48 341.07 615.44 340.84 618.44 340.43L618.89 341.25C621.32 345.86 622.06 349.69 621.1 352.6C619 358.91 609.1 360.99 604.9 361.6C582.844 364.621 560.464 359.14 542.3 346.27C542.759 346.703 543.124 347.225 543.374 347.805C543.623 348.385 543.751 349.009 543.75 349.64C543.742 350.273 543.609 350.897 543.36 351.479C543.11 352.06 542.748 352.586 542.295 353.027C541.842 353.469 541.306 353.816 540.718 354.05C540.13 354.284 539.502 354.399 538.87 354.39C538.046 354.388 537.235 354.182 536.51 353.79C546.32 360.865 557.376 366.025 569.1 369C576.945 370.987 585.007 371.995 593.1 372C597.523 372.006 601.94 371.698 606.32 371.08C618.99 369.27 627.47 363.81 630.17 355.71C631.85 350.63 631.17 344.8 628.07 338.39C629.01 338.07 629.92 337.73 630.84 337.34C638.84 333.95 644.73 327.99 646.95 321.01C648.124 317.101 648.323 312.964 647.53 308.96C649.05 308.69 650.53 308.36 652.08 307.96C669.814 303.625 685.133 292.491 694.73 276.96C693.805 277.879 692.553 278.393 691.25 278.39L691.26 278.27ZM603.56 291.86C601.1 290.39 596.98 287.49 596.9 284.4C596.81 281.12 601.66 278.32 605.9 278.1H606.9C612.689 278.294 618.232 280.493 622.58 284.32C626.87 287.92 630.58 292.87 634.22 299.86C634.31 300.05 634.41 300.22 634.5 300.41C623.634 300.291 612.985 297.359 603.59 291.9L603.56 291.86ZM609.31 331.73C592.31 332.59 578.55 330.73 567.15 326.11C562.8 324.35 560.06 322.6 558.23 320.47C556.4 318.34 555.64 315.47 556.44 313.55C557.24 311.63 559.91 309.78 563.21 309.12C564.501 308.866 565.814 308.742 567.13 308.75C571.84 308.75 576.65 310.19 580.54 311.56C593.79 316.23 604.66 323.15 612.18 331.56C611.18 331.64 610.27 331.69 609.33 331.73H609.31Z" fill="#BFF7E4"/>
<path d="M691.26 278.26C692.56 278.257 693.809 277.748 694.74 276.84C695.18 276.406 695.53 275.89 695.768 275.32C696.007 274.75 696.13 274.138 696.13 273.52C696.122 272.889 695.99 272.265 695.741 271.685C695.492 271.105 695.131 270.58 694.678 270.14C694.226 269.7 693.691 269.353 693.104 269.119C692.518 268.886 691.891 268.771 691.26 268.78C690.307 268.775 689.373 269.049 688.574 269.568C687.774 270.087 687.144 270.828 686.76 271.7C686.507 272.273 686.377 272.893 686.38 273.52C686.388 274.152 686.52 274.776 686.77 275.357C687.02 275.938 687.382 276.463 687.835 276.904C688.289 277.344 688.825 277.691 689.412 277.924C690 278.156 690.628 278.271 691.26 278.26Z" fill="#2EAFC0"/>
<path d="M543.81 349.62C543.808 348.989 543.679 348.365 543.432 347.785C543.184 347.204 542.823 346.679 542.37 346.24C542.048 345.938 541.688 345.679 541.3 345.47H541.24C540.507 345.079 539.686 344.882 538.855 344.898C538.024 344.914 537.211 345.143 536.493 345.562C535.776 345.981 535.177 346.576 534.755 347.292C534.332 348.007 534.1 348.819 534.08 349.65C534.085 350.5 534.318 351.333 534.757 352.062C535.195 352.791 535.821 353.387 536.57 353.79C537.297 354.186 538.112 354.392 538.94 354.39C539.573 354.398 540.202 354.281 540.79 354.045C541.378 353.809 541.913 353.46 542.366 353.017C542.818 352.574 543.179 352.045 543.427 351.462C543.675 350.88 543.805 350.253 543.81 349.62Z" fill="#2EAFC0"/>
<path d="M177.653 508.832C166.11 532.686 161.427 597.74 207.332 632.828C200.737 612.712 177.653 561.926 177.653 508.832Z" fill="black" fill-opacity="0.5"/>
<path d="M576.27 502.69C573 593.4 458.88 725.35 324.08 704.9C290.2 699.76 261.14 686.15 239.32 665.56C259.5 679.35 283.88 690.56 311.74 694.45C446.74 713.34 557.99 583.93 563.1 492.45C566.34 434.54 548.26 388.19 516.2 357.72C556 387.83 578.65 436.85 576.27 502.69Z" fill="#112231"/>
<path d="M470.75 327.42C454.16 335.11 439.37 346.42 425.28 357.94C389 387.73 353.5 418.9 322 453.86C285 495 255.45 542.75 231.57 592.31C224.25 607.51 217.24 622.95 211.08 638.68C184.8 605.47 173.86 561 176.94 515.46C183.76 414.46 291.3 303.28 417.39 313.89C435.807 315.393 453.842 319.966 470.75 327.42Z" fill="#FE6B1B"/>
<path d="M563.94 490.16C560.66 580.86 446.43 715.68 311.74 694.45C280.04 689.45 255.66 678.06 235.86 663.02C226.605 655.985 218.279 647.807 211.08 638.68C217.24 622.95 224.25 607.51 231.57 592.31C255.45 542.75 285 495 322 453.86C353.49 418.86 388.94 387.73 425.27 357.94C439.36 346.39 454.15 335.11 470.74 327.42C487.511 334.85 502.884 345.102 516.19 357.73C548.26 388.2 566.06 431.45 563.94 490.16Z" fill="#FF4F40"/>
<path d="M345.85 666.75C337.585 666.753 329.331 666.131 321.16 664.89C284.16 659.27 253.82 642.06 233.49 615.1C213.38 588.44 204.25 553.92 207.08 515.28C208.78 492.07 216.73 467.21 230.08 443.37C243.693 419.105 261.739 397.609 283.28 380C301.277 365.173 321.864 353.808 344 346.48C367.004 338.922 391.42 336.666 415.42 339.88C493.68 350.37 536.83 406.68 533.81 494.36C533.08 515.69 526.09 538.9 513.61 561.48C500.671 584.636 483.556 605.196 463.13 622.12C427.89 651.34 387 666.75 345.85 666.75ZM394.45 342.19C356.36 342.19 318.36 356.28 285.62 382.87C243.56 417.04 214.18 469.12 210.78 515.55C205.1 593 248.65 650.14 321.71 661.22C369.95 668.54 419.31 653.64 460.71 619.22C501.38 585.45 528.6 536.37 530.05 494.22C533.05 408.66 491.05 353.74 414.88 343.54C408.108 342.637 401.282 342.186 394.45 342.19Z" fill="#FFA9DF"/>
<path d="M209.94 657.2C218.202 657.2 224.9 650.502 224.9 642.24C224.9 633.978 218.202 627.28 209.94 627.28C201.678 627.28 194.98 633.978 194.98 642.24C194.98 650.502 201.678 657.2 209.94 657.2Z" fill="#112231"/>
<path d="M207.29 657.2C215.552 657.2 222.25 650.502 222.25 642.24C222.25 633.978 215.552 627.28 207.29 627.28C199.027 627.28 192.33 633.978 192.33 642.24C192.33 650.502 199.027 657.2 207.29 657.2Z" fill="#FFA9DF"/>
<path d="M415.789 463.77C418.649 451.77 414.499 438.06 404.449 430.6C394.759 423.4 381.779 423.08 370.949 427.79C360.879 432.17 352.459 440.66 348.949 451.14C346.697 457.951 346.461 465.268 348.269 472.21C349.834 478.626 353.365 484.391 358.369 488.7C364.56 493.591 372.41 495.882 380.259 495.09C396.919 493.59 411.939 480 415.789 463.77Z" fill="#F2F8F3"/>
<path d="M438.94 571.11C440.915 566.527 441.682 561.514 441.17 556.55C439.94 544.29 431.85 534.1 422.11 527.12C416.279 522.983 409.852 519.759 403.05 517.56C396.871 515.537 390.478 514.239 384 513.69C379.721 513.35 375.425 513.3 371.14 513.54C346.7 514.81 312.24 526.7 301.31 557.95C299.24 563.89 298.31 571.35 300.63 577.42C303.85 585.89 313.83 585.05 321.22 585.15C338.43 585.37 355.64 584.94 372.84 584.73C382.27 584.62 392.03 584.52 401.58 584.45C410.68 584.38 420.26 585.12 428.97 581.94C433.84 580.15 436.88 575.71 438.94 571.11Z" fill="#F2F8F3"/>
<path d="M353.482 696.07L398.945 553.342L392.122 689.681C385.55 692.358 363.624 695.056 353.482 696.07Z" fill="black" fill-opacity="0.5"/>
<path d="M555.12 530.42H593.89C596.953 530.418 599.98 531.078 602.763 532.355C605.546 533.633 608.02 535.497 610.015 537.821C612.01 540.144 613.479 542.872 614.32 545.817C615.162 548.761 615.356 551.853 614.89 554.88L599.1 663.5C596.81 678.44 582.57 691.6 567.46 691.62L402.12 689.9C399.215 689.886 396.346 689.249 393.708 688.031C391.07 686.813 388.724 685.044 386.828 682.842C384.932 680.64 383.531 678.057 382.719 675.267C381.907 672.477 381.702 669.546 382.12 666.67L398.12 556.92C399.2 549.514 402.911 542.745 408.575 537.852C414.239 532.96 421.476 530.272 428.96 530.28L515.19 530.38L555.12 530.42Z" fill="#BBF6E2"/>
<path d="M389.19 685.21L404.56 704.63C406.547 707.146 409.076 709.181 411.959 710.584C414.842 711.986 418.005 712.72 421.21 712.73L585.28 713.33C592.603 713.358 599.69 710.744 605.241 705.968C610.792 701.192 614.434 694.575 615.5 687.33L631.66 577.13C632.353 572.414 631.196 567.613 628.43 563.73L610.19 538.14L611.51 540.46C613.111 543.28 614.249 546.339 614.88 549.52C615.152 550.921 615.189 552.357 614.99 553.77L599.23 662.67C598.096 670.514 594.162 677.682 588.156 682.852C582.15 688.023 574.475 690.846 566.55 690.8L404.66 689.93C403.389 689.918 402.119 689.822 400.86 689.64C397.494 689.139 394.245 688.034 391.27 686.38L389.19 685.21Z" fill="#2EAFC0"/>
<path d="M525 588.1C525.728 593.104 524.7 598.206 522.091 602.537C519.483 606.869 515.454 610.163 510.69 611.86L512.461 647.31L489.3 647.11L476.48 647L492 609.37C489.404 607.613 487.208 605.326 485.559 602.66C483.91 599.994 482.843 597.008 482.43 593.9C480.79 581.9 488.971 570.8 500.711 569.2C503.74 568.789 506.822 569.04 509.745 569.936C512.668 570.832 515.362 572.352 517.641 574.39C521.664 577.925 524.277 582.793 525 588.1Z" fill="#2EAFC0"/>
<path d="M525.001 588.1C525.728 593.104 524.701 598.206 522.092 602.537C519.483 606.869 515.454 610.163 510.691 611.86L512.461 647.31L489.301 647.11L502.781 614.48C500.172 612.728 497.966 610.443 496.307 607.774C494.649 605.105 493.576 602.115 493.161 599C491.511 587 499.691 575.9 511.431 574.3C513.496 574.016 515.593 574.043 517.651 574.38C521.673 577.919 524.282 582.791 525.001 588.1Z" fill="#112231"/>
<path d="M476.48 647.04L491.72 610.08L502.271 615.6L489.201 647.11L476.48 647.04Z" fill="#016B83"/>
<path d="M534.62 421.77C512.62 421.26 490.16 431.77 474.1 446.65C463.59 456.39 453.62 468.52 449.1 482.3C448.434 484.3 447.84 486.343 447.32 488.43C447.89 485.55 448.57 482.69 449.4 479.86C453.4 466.15 462.4 454.16 471.9 444.57C487.89 428.36 513.53 418.9 534.62 421.77Z" fill="#66CDB4"/>
<path d="M479.85 530.34C480.85 519 481.02 509.01 483.08 497.78C487.35 474.4 503.49 458.49 527.91 459.64C537.85 460.11 547.91 464.51 553.91 472.36C561.45 482.29 562.91 495.17 561.46 507.22C560.55 514.81 560.13 523.08 557.97 530.43L595.5 530.53C597.36 524.35 598.01 517.8 598.81 511.53C599.727 504.989 600.102 498.383 599.93 491.78C599.663 485.198 598.657 478.667 596.93 472.31C594.362 462.384 589.576 453.17 582.934 445.36C576.292 437.55 567.965 431.348 558.58 427.22C530.01 414.16 496.1 426.29 474.1 446.7C463.59 456.44 453.62 468.56 449.1 482.34C445.39 493.55 444.16 505.13 443.18 516.79C442.81 521.3 442.47 525.79 442.04 530.34H479.85Z" fill="#2EAFC0"/>
<path d="M443.14 516.74L480.04 528.21L479.85 530.34L442 530.29L443.14 516.74Z" fill="#112231"/>
<path d="M559.53 523.36L578.3 530.48L558 530.43C558 530.43 559.22 525.1 559.53 523.36Z" fill="#112231"/>
<path d="M583.4 530.5L597.43 521.7L595.48 530.53L583.4 530.5Z" fill="#112231"/>
<path d="M404.291 628.53L417.358 624.397L417.295 638.236L431.614 626.192L444.262 637.86L432.386 649.319L447.32 650.728L440.933 668.365L426.542 666.769L428.848 679.01L410.731 685.418L408.028 671.162L396.13 683.675L394.523 672.832L400.242 659.463L387.771 654.913L385.715 646.731L400.91 646.971L404.291 628.53Z" fill="#20303E"/>
<path d="M388.011 627.226L406.525 618.01L410.094 631.838L420.541 618.01L433.836 627.716L424.579 640.093H439.055L435.496 658.294H421.01L425.759 671.152L408.664 680.628L404.396 667.76L394.659 680.628L379.463 671.402L389.91 658.534L374.944 658.774L378.514 640.334L393.709 640.574L388.011 627.226Z" fill="white"/>
</svg>
