<svg width="828" height="984" viewBox="0 0 828 984" fill="none" xmlns="http://www.w3.org/2000/svg">
<rect width="828" height="984" fill="#0078D4"/>
<path fill-rule="evenodd" clip-rule="evenodd" d="M285.979 385.628C217.982 484.092 117.732 612.023 -63.4841 612.023C-87.3339 612.023 -106.668 592.873 -106.668 569.253C-106.668 545.633 -87.3339 526.483 -63.4841 526.483C69.3656 526.483 146.758 435.709 214.69 337.338C220.956 328.264 227.262 318.924 233.61 309.525C259.226 271.584 285.481 232.698 312.28 206.6C329.782 189.558 351.555 173.639 378.405 167.554C406.915 161.092 434.986 167.052 461.235 182.65C480.692 194.212 495.504 210.049 504.502 229.782C513.279 249.034 515.314 269.313 513.924 288.407C511.248 325.254 495.19 364.901 476.958 401.705C461.176 433.557 441.638 467.31 422.826 499.813C419.478 505.595 416.151 511.34 412.874 517.029C390.653 555.594 370.452 591.832 356.572 624.655C342.54 657.837 334.216 682.35 333.106 700.785C332.602 709.18 333.78 714.26 335.214 717.462C336.483 720.299 338.933 723.936 345.198 728.071C352.503 732.897 357.173 733.559 360.471 733.474C364.519 733.372 370.832 731.961 380.707 726.572C398.756 716.721 417.93 700.193 444.491 677.296C450.294 672.295 456.454 666.988 463.028 661.377C532.462 602.155 630.859 526.483 784.49 526.483C808.339 526.483 827.671 545.633 827.671 569.253C827.671 592.873 808.339 612.023 784.49 612.023C663.312 612.023 585.278 669.991 519.389 726.193C514.281 730.549 509.099 735.037 503.861 739.572C477.314 762.559 449.349 786.774 422.39 801.485C405.134 810.907 385.091 818.419 362.67 818.985C339.498 819.568 317.58 812.639 297.291 799.243C278.777 787.019 264.806 771.243 256.247 752.108C247.852 733.337 245.797 713.893 246.892 695.699C248.98 660.966 263.18 624.078 276.91 591.613C293.083 553.363 315.787 512.944 337.864 474.63C341.329 468.617 344.777 462.656 348.196 456.751C367.069 424.129 384.976 393.181 399.418 364.026C416.831 328.876 426.368 301.713 427.781 282.263C428.438 273.205 427.146 267.96 425.788 264.985C424.652 262.492 422.523 259.401 416.802 256.001C406.246 249.728 400.823 250.221 397.675 250.936C392.864 252.026 384.812 255.928 372.837 267.589C352.974 286.934 333.456 315.757 308.603 352.452C301.537 362.886 294.037 373.958 285.979 385.628Z" fill="white" fill-opacity="0.15"/>
<path d="M550.721 448.109C535.244 439.452 517.857 434.434 499.521 431.861C499.521 431.539 499.459 431.216 499.423 430.894C497.72 413.982 495.121 397.017 487.297 381.988C485.74 378.97 483.916 376.097 481.848 373.403C463.871 350.174 425.505 350.55 407.079 372.892C406.9 373.089 406.739 373.304 406.568 373.51C396.128 386.649 394.81 404.474 398.35 420.372C398.879 422.72 399.444 425.068 400.062 427.398C400.713 429.926 401.418 432.435 402.177 434.926L351.865 427.999C349.006 397.134 351.399 364.1 373.328 341.642C376.39 338.508 379.735 335.664 383.321 333.146C416.588 309.683 462.025 309.011 495.497 332.088C528.146 354.583 546.831 391.04 549.825 430.078C549.825 430.741 549.977 433.08 550.12 436.181C550.201 437.92 550.282 439.891 550.38 441.944C550.488 444.211 550.595 445.869 550.721 448.109Z" fill="#FFA9DF"/>
<path d="M550.721 442.123L550.38 441.935C550.281 439.882 550.201 437.911 550.12 436.172C549.977 433.071 549.869 430.732 549.824 430.069C546.831 391.04 528.145 354.583 495.497 332.079C462.024 309.002 416.587 309.675 383.321 333.137C379.735 335.655 376.39 338.499 373.328 341.633C377.51 336.023 382.528 331.088 388.205 326.998C420.468 303.652 464.596 302.98 497.083 325.949C528.773 348.354 546.939 384.596 549.815 423.482C549.815 424.145 549.959 426.475 550.102 429.558C550.29 433.161 550.496 437.884 550.721 442.123Z" fill="#FFD7F0"/>
<path d="M351.605 424.961L398.7 421.887L402.178 434.926L351.865 427.999L351.605 424.961Z" fill="#112231"/>
<path d="M498.008 418.885L549.826 430.078L550.722 448.817C550.722 448.817 532.646 434.953 499.585 431.637L498.008 418.885Z" fill="#112231"/>
<path d="M643.864 561.46C643.851 581.116 639.402 600.516 630.849 618.213C622.295 635.911 609.858 651.45 594.465 663.673C579.071 675.896 561.117 684.487 541.942 688.807C522.766 693.126 502.863 693.063 483.715 688.621C485.507 688.701 487.3 688.737 489.092 688.737C523.506 688.778 556.534 675.186 580.952 650.936C602.971 627.563 617.4 596.071 616.468 561.433C615.052 508.558 586.428 473.346 550.723 448.79C534.592 437.66 518.308 433.089 499.524 431.835C497.615 431.7 495.733 431.333 493.824 431.135C495.24 430.983 497.22 430.911 499.425 430.867C504.265 430.786 510.135 430.867 513.325 430.867C530.477 430.849 547.464 434.215 563.314 440.772C579.163 447.33 593.563 456.949 605.689 469.08C617.815 481.211 627.428 495.615 633.979 511.467C640.53 527.319 643.889 544.308 643.864 561.46Z" fill="#F26B3E"/>
<path d="M580.948 650.936C603.799 626.742 616.509 594.712 616.464 561.433C616.464 495.625 557.548 432.48 488.309 430.92H490.997C563.096 430.92 619.637 486.108 619.637 558.18C619.658 575.433 616.249 592.519 609.607 608.443C602.965 624.367 593.223 638.811 580.948 650.936Z" fill="#FFA9E0"/>
<path d="M616.469 561.46C616.754 578.259 613.654 594.945 607.353 610.521C601.052 626.096 591.679 640.244 579.793 652.12C567.907 663.996 553.752 673.357 538.17 679.645C522.589 685.933 505.901 689.019 489.102 688.719C487.31 688.719 485.517 688.719 483.725 688.603C450.066 687.219 418.245 672.876 394.918 648.572C371.591 624.267 358.564 591.885 358.562 558.198C358.563 486.995 417.433 432.283 488.34 430.938C492.131 431.01 495.823 431.458 499.525 431.834C565.207 438.681 616.469 493.976 616.469 561.46Z" fill="#F5AB71"/>
<path d="M507.238 526.661C510.836 531.978 512.481 538.376 511.895 544.77C511.308 551.163 508.526 557.155 504.02 561.729L525.628 601.26L499.037 613.807L484.376 620.734L481.347 569.14C477.409 568.567 473.638 567.167 470.28 565.032C466.922 562.898 464.053 560.077 461.863 556.755C453.323 543.894 456.576 526.732 469.105 518.416C472.342 516.277 476.004 514.865 479.839 514.275C483.674 513.686 487.591 513.934 491.321 515.001C497.857 516.845 503.508 520.985 507.238 526.661Z" fill="#F26B3E"/>
<path d="M507.238 526.661C510.836 531.978 512.482 538.376 511.895 544.77C511.309 551.163 508.526 557.155 504.021 561.729L525.628 601.26L499.038 613.806L496.421 569.069C492.483 568.5 488.71 567.104 485.35 564.973C481.99 562.841 479.12 560.022 476.929 556.701C468.388 543.85 471.632 526.688 484.161 518.371C486.371 516.906 488.788 515.779 491.331 515.028C497.859 516.867 503.506 520.997 507.238 526.661Z" fill="#112231"/>
<path d="M484.41 620.806L481.398 570.153L496.508 570.628L498.982 613.869L484.41 620.806Z" fill="#F26B3E"/>
<path d="M402.18 434.953L450.942 441.639C454.788 442.168 458.476 443.523 461.751 445.609C465.026 447.696 467.811 450.465 469.916 453.728C472.022 456.991 473.398 460.67 473.949 464.514C474.501 468.358 474.216 472.276 473.113 475.999L434.649 609.872C429.209 628.271 409.036 642.368 390.018 639.805L182.335 609.254C178.672 608.745 175.162 607.455 172.042 605.47C168.922 603.485 166.266 600.853 164.253 597.751C162.24 594.649 160.918 591.151 160.376 587.493C159.834 583.835 160.085 580.104 161.113 576.552L200.052 441.227C202.679 432.096 208.508 424.219 216.471 419.037C224.435 413.856 233.999 411.717 243.41 413.014L351.849 427.945L402.18 434.953Z" fill="#BFF7E4"/>
<path d="M482.459 588.489L474.241 687.886C474.241 687.886 445.159 684.301 422.629 670.553L467.519 553.717L489.924 508.531L482.459 588.489Z" fill="#284950"/>
<path d="M166.848 601.125L182.854 628.199C184.923 631.703 187.756 634.696 191.141 636.953C194.527 639.211 198.378 640.676 202.409 641.239L408.676 670.177C417.885 671.47 427.251 669.397 435.055 664.34C442.858 659.283 448.575 651.58 451.156 642.646L490.418 506.81C492.088 500.992 491.446 494.753 488.626 489.397L470.083 454.087L471.338 457.215C472.864 461.041 473.772 465.085 474.027 469.197C474.138 471.01 473.938 472.828 473.435 474.574L434.962 608.815C432.184 618.484 426.004 626.824 417.562 632.297C409.12 637.77 398.984 640.007 389.023 638.595L185.533 609.711C183.934 609.479 182.353 609.138 180.801 608.689C176.65 607.481 172.752 605.532 169.294 602.936L166.848 601.125Z" fill="#3FA79A"/>
<path d="M354.32 502.293C354.377 508.712 352.208 514.952 348.184 519.953C344.161 524.954 338.529 528.407 332.247 529.726L328.385 574.616L299.285 570.386L283.234 568.056L309.224 523.39C306.26 520.734 303.891 517.482 302.274 513.846C300.657 510.21 299.827 506.273 299.841 502.293C299.841 486.861 312.038 474.359 327.076 474.359C330.956 474.367 334.787 475.215 338.308 476.844C341.829 478.473 344.956 480.844 347.473 483.796C351.906 488.937 354.337 495.505 354.32 502.293Z" fill="#2EAFC0"/>
<path d="M354.32 502.293C354.377 508.712 352.208 514.952 348.184 519.953C344.161 524.954 338.529 528.407 332.247 529.726L328.385 574.616L299.285 570.386L321.887 531.661C318.921 529.008 316.551 525.755 314.934 522.119C313.317 518.483 312.488 514.545 312.504 510.565C312.504 495.133 324.692 482.631 339.73 482.631C342.376 482.627 345.007 483.019 347.536 483.796C351.946 488.946 354.355 495.513 354.32 502.293Z" fill="#112231"/>
<path d="M283.234 568.11L308.749 524.241L321.072 532.988L299.214 570.386L283.234 568.11Z" fill="#016B83"/>
<path d="M395.063 294.735C367.425 290.308 337.42 299.655 314.657 315.634C299.771 326.084 285.145 339.625 277.017 356.178C275.825 358.616 274.722 361.089 273.719 363.58C274.929 360.058 276.273 356.581 277.805 353.167C285.217 336.614 298.57 323.073 312.174 312.632C335.144 295.004 369.02 287.503 395.063 294.735Z" fill="#66CDB4"/>
<path d="M307.551 421.887C310.804 407.817 312.686 395.27 317.194 381.495C326.586 352.817 349.619 335.575 380.143 341.221C392.564 343.515 404.501 350.783 410.613 361.681C418.383 375.464 418.007 391.918 414.118 406.831C411.671 416.214 409.726 426.547 405.747 435.41L452.941 441.988C456.328 434.541 458.318 426.413 460.37 418.598C462.649 410.526 464.256 402.28 465.174 393.944C465.982 385.623 465.844 377.238 464.761 368.949C463.235 356.022 458.798 343.609 451.783 332.644C444.768 321.679 435.359 312.446 424.262 305.642C390.584 284.303 345.837 293.74 314.658 315.634C299.772 326.084 285.146 339.616 277.018 356.169C270.422 369.612 266.882 383.951 263.656 398.487C262.41 404.097 261.2 409.725 259.883 415.336L307.551 421.887Z" fill="#2EB6BD"/>
<path d="M263.679 398.487L308.121 419.243L307.521 421.887L259.906 415.336L263.679 398.487Z" fill="#112231"/>
<path d="M408.935 426.798L431.34 438.977L405.754 435.392C405.754 435.392 408.245 428.931 408.935 426.798Z" fill="#112231"/>
<path d="M437.742 439.873L456.903 431.225L452.942 441.988L437.742 439.873Z" fill="#112231"/>
<path d="M78.0511 471.527L101.979 459.867L106.577 477.352L120.083 459.867L137.263 472.136L125.289 487.784H144.011L139.404 510.789H120.692L126.831 527.046L104.74 539.019L99.2192 522.753L86.6366 539.019L67.001 527.36L80.5067 511.103L61.1758 511.407L65.7822 488.089L85.4088 488.393L78.0511 471.527Z" fill="white"/>
<path d="M119.911 557.427L139.609 547.829L143.4 562.222L154.513 547.829L168.654 557.929L158.805 570.807H174.211L170.42 589.753H155.014L160.069 603.133L141.885 612.982L137.341 599.602L126.981 612.982L110.823 603.393L121.936 590.004L106.02 590.255L109.81 571.067L125.978 571.318L119.911 557.427Z" fill="white"/>
<path d="M515.07 323.664L544.814 309.173L550.532 330.914L567.318 309.173L588.674 324.426L573.797 343.882H597.062L591.345 372.48H568.08L575.706 392.689L548.247 407.566L541.382 387.356L525.743 407.566L501.34 393.074L518.117 372.856L494.09 373.241L499.816 344.259L524.22 344.644L515.07 323.664Z" fill="white"/>
</svg>
