<svg width="828" height="984" viewBox="0 0 828 984" fill="none" xmlns="http://www.w3.org/2000/svg">
<rect width="828" height="984" fill="#0078D4"/>
<path fill-rule="evenodd" clip-rule="evenodd" d="M285.979 385.628C217.982 484.092 117.732 612.023 -63.4841 612.023C-87.3339 612.023 -106.668 592.873 -106.668 569.253C-106.668 545.633 -87.3339 526.483 -63.4841 526.483C69.3656 526.483 146.758 435.709 214.69 337.338C220.956 328.264 227.262 318.924 233.61 309.525C259.226 271.584 285.481 232.698 312.28 206.6C329.782 189.558 351.555 173.639 378.405 167.554C406.915 161.092 434.986 167.052 461.235 182.65C480.691 194.212 495.504 210.049 504.502 229.782C513.279 249.034 515.314 269.313 513.924 288.407C511.248 325.254 495.189 364.901 476.958 401.705C461.176 433.557 441.638 467.31 422.826 499.813C419.478 505.595 416.151 511.34 412.874 517.029C390.653 555.594 370.452 591.832 356.572 624.655C342.54 657.837 334.216 682.35 333.106 700.785C332.602 709.18 333.78 714.26 335.214 717.462C336.483 720.299 338.933 723.936 345.198 728.071C352.503 732.897 357.173 733.559 360.471 733.474C364.519 733.372 370.832 731.961 380.707 726.572C398.756 716.721 417.93 700.193 444.491 677.296C450.294 672.295 456.454 666.988 463.028 661.377C532.462 602.155 630.859 526.483 784.49 526.483C808.339 526.483 827.671 545.633 827.671 569.253C827.671 592.873 808.339 612.023 784.49 612.023C663.312 612.023 585.278 669.991 519.389 726.193C514.281 730.549 509.099 735.037 503.861 739.572C477.314 762.559 449.349 786.774 422.39 801.485C405.134 810.907 385.091 818.419 362.67 818.985C339.498 819.568 317.58 812.639 297.291 799.243C278.777 787.019 264.806 771.243 256.247 752.108C247.852 733.337 245.797 713.893 246.892 695.699C248.98 660.966 263.181 624.078 276.91 591.613C293.083 553.363 315.787 512.944 337.864 474.63C341.329 468.617 344.777 462.656 348.196 456.751C367.069 424.129 384.976 393.181 399.418 364.026C416.831 328.876 426.368 301.713 427.781 282.263C428.438 273.205 427.146 267.96 425.788 264.985C424.652 262.492 422.523 259.401 416.802 256.001C406.246 249.728 400.823 250.221 397.675 250.936C392.864 252.026 384.812 255.928 372.837 267.589C352.974 286.934 333.456 315.757 308.603 352.452C301.537 362.886 294.037 373.958 285.979 385.628Z" fill="white" fill-opacity="0.15"/>
<path d="M436.117 450.239L478.374 450.291C481.707 450.295 484.999 451.019 488.027 452.413C491.054 453.807 493.744 455.838 495.914 458.368C498.083 460.898 499.68 463.867 500.596 467.072C501.511 470.276 501.724 473.641 501.219 476.935L484.072 595.252C481.578 611.532 466.059 625.872 449.632 625.903L269.46 624.024C266.289 624.016 263.158 623.326 260.277 622.001C257.396 620.677 254.833 618.749 252.762 616.349C250.691 613.948 249.16 611.13 248.272 608.087C247.384 605.043 247.161 601.844 247.617 598.706L265.025 479.116C266.204 471.064 270.241 463.705 276.397 458.382C282.553 453.06 290.418 450.129 298.556 450.124L392.483 450.218L436.117 450.239Z" fill="#BBF6E2"/>
<path d="M255.308 618.911L272.059 640.065C274.227 642.805 276.984 645.021 280.126 646.549C283.268 648.078 286.714 648.879 290.207 648.894L468.992 649.541C476.973 649.573 484.698 646.723 490.747 641.516C496.795 636.308 500.762 629.093 501.918 621.196L519.535 501.179C520.288 496.036 519.024 490.801 516.007 486.568L496.178 458.682L497.608 461.208C499.352 464.285 500.593 467.621 501.282 471.091C501.584 472.614 501.626 474.177 501.407 475.714L484.239 594.375C482.992 602.922 478.697 610.729 472.144 616.357C465.592 621.985 457.226 625.053 448.589 624.995L272.215 624.045C270.818 624.038 269.423 623.93 268.041 623.722C264.376 623.178 260.841 621.975 257.604 620.173L255.308 618.911Z" fill="#3FA79A"/>
<path d="M403.243 513.087C404.042 518.539 402.926 524.099 400.085 528.821C397.243 533.542 392.853 537.132 387.661 538.979L389.582 577.593L364.347 577.385L350.425 577.259L367.352 536.255C364.522 534.341 362.129 531.85 360.33 528.945C358.531 526.04 357.368 522.787 356.916 519.401C355.121 506.282 364.044 494.228 376.839 492.485C380.14 492.04 383.498 492.314 386.683 493.288C389.868 494.263 392.804 495.915 395.29 498.131C399.654 501.997 402.478 507.307 403.243 513.087Z" fill="#2EAFC0"/>
<path d="M403.243 513.087C404.042 518.539 402.926 524.099 400.085 528.821C397.243 533.542 392.853 537.132 387.661 538.979L389.582 577.593L364.347 577.385L379.03 541.828C376.198 539.916 373.804 537.425 372.005 534.52C370.206 531.615 369.043 528.361 368.594 524.974C366.799 511.855 375.712 499.801 388.507 498.058C390.756 497.746 393.039 497.774 395.28 498.142C399.646 502.003 402.473 507.309 403.243 513.087Z" fill="#112231"/>
<path d="M350.435 577.322L367.039 537.048L378.53 543.06L364.284 577.395L350.435 577.322Z" fill="#016B83"/>
<path d="M413.794 331.839C389.79 331.286 365.338 342.724 347.836 358.974C336.356 369.587 325.524 382.8 320.556 397.818C319.825 400.03 319.178 402.264 318.615 404.497C319.23 401.366 319.971 398.235 320.879 395.167C325.263 380.232 335.041 367.166 345.394 356.709C362.865 339.03 390.803 328.719 413.794 331.839Z" fill="#66CDB4"/>
<path d="M354.109 450.124C355.246 437.778 355.382 426.893 357.615 414.641C362.28 389.166 379.866 371.852 406.478 373.084C417.301 373.595 428.3 378.385 434.792 386.943C442.995 397.765 444.591 411.792 443.016 424.931C442.024 433.197 441.565 442.203 439.206 450.218L480.106 450.323C482.131 443.591 482.84 436.453 483.717 429.565C484.713 422.437 485.121 415.24 484.938 408.045C484.655 400.876 483.563 393.762 481.682 386.839C478.889 376.025 473.682 365.986 466.451 357.474C459.221 348.962 450.156 342.199 439.937 337.694C408.805 323.469 371.85 336.65 347.878 358.921C336.398 369.535 325.565 382.748 320.598 397.765C316.548 409.976 315.213 422.604 314.148 435.336C313.731 440.252 313.365 445.178 312.896 450.103L354.109 450.124Z" fill="#2EAFC0"/>
<path d="M314.106 435.336L354.307 447.828L354.109 450.145L312.854 450.104L314.106 435.336Z" fill="#112231"/>
<path d="M440.928 442.548L461.383 450.302L439.196 450.25C439.196 450.25 440.584 444.447 440.928 442.548Z" fill="#112231"/>
<path d="M466.946 450.323L482.225 440.742L480.106 450.354L466.946 450.323Z" fill="#112231"/>
<path d="M81.7108 568.921L100.235 559.705L103.804 573.534L114.251 559.705L127.547 569.411L118.28 581.789H132.765L129.206 599.99H114.721L119.469 612.847L102.375 622.323L98.1063 609.455L88.3692 622.323L73.1635 613.098L83.6207 600.23L68.655 600.47L72.2138 582.029L87.4195 582.269L81.7108 568.921Z" fill="white"/>
<path d="M166.715 568.921L185.239 559.705L188.798 573.534L199.244 559.705L212.54 569.411L203.283 581.789H217.769L214.21 599.99H199.725L204.473 612.847L187.378 622.323L183.099 609.455L173.362 622.323L158.167 613.098L168.614 600.23L153.659 600.47L157.217 582.029L172.413 582.269L166.715 568.921Z" fill="white"/>
<path d="M267.728 570.225L280.794 566.092L280.731 579.931L295.05 567.887L307.699 579.555L295.822 591.014L310.756 592.423L304.369 610.061L289.978 608.464L292.284 620.706L274.167 627.113L271.464 612.857L259.566 625.371L257.959 614.527L263.678 601.158L251.207 596.608L249.151 588.426L264.346 588.666L267.728 570.225Z" fill="#20303E"/>
<path d="M251.447 568.921L269.961 559.705L273.53 573.534L283.977 559.705L297.272 569.411L288.015 581.789H302.491L298.932 599.99H284.446L289.195 612.847L272.1 622.323L267.832 609.455L258.095 622.323L242.899 613.098L253.346 600.23L238.38 600.47L241.95 582.029L257.145 582.269L251.447 568.921Z" fill="white"/>
<path opacity="0.5" d="M482.726 475.474L498.578 494.886L500.77 480.108L482.726 475.474Z" fill="#112231"/>
<path d="M249.86 375.964C215.264 382.768 211.726 386.056 204.88 423.971C199.088 385.962 195.352 383.05 159.899 375.964C193.358 367.448 196.76 364.067 204.88 327.957C212.258 363.733 215.567 367.198 249.86 375.964Z" fill="#F26B3E"/>
<path d="M237.118 378.698C238.861 378.27 240.718 377.843 242.691 377.436C243.223 376.455 243.734 375.494 244.298 374.513L239.998 373.324C238.996 375.119 238.015 376.903 237.118 378.698Z" fill="#112231"/>
<path d="M230.919 421.352C229.557 421.558 228.165 421.382 226.897 420.844C225.63 420.306 224.536 419.427 223.738 418.304C220.399 413.274 222.329 403.839 224.521 396.816C228.058 386.148 232.999 375.998 239.215 366.634C243.707 359.55 249.048 353.041 255.12 347.254C258.919 343.789 264.45 339.635 269.293 339.583C270.485 339.534 271.67 339.797 272.73 340.346C273.79 340.895 274.688 341.711 275.335 342.714C278.675 347.744 276.744 357.168 274.553 364.192C271.016 374.85 266.074 384.989 259.858 394.342C255.37 401.432 250.028 407.944 243.954 413.733C240.447 416.864 235.458 420.694 230.898 421.299L230.919 421.352ZM268.698 343.893C266.078 344.248 262.301 346.534 258.157 350.333C252.364 355.879 247.272 362.115 242.993 368.899C236.991 377.933 232.215 387.725 228.79 398.016C226.128 406.49 225.659 413.211 227.516 416.029C227.752 416.423 228.093 416.743 228.5 416.955C228.907 417.167 229.365 417.262 229.823 417.229C232.453 417.229 236.502 414.839 240.979 410.748C246.784 405.201 251.89 398.966 256.185 392.182C262.183 383.149 266.959 373.362 270.389 363.075C273.05 354.601 273.52 347.87 271.662 345.052C271.424 344.658 271.081 344.339 270.672 344.129C270.263 343.919 269.804 343.826 269.345 343.862C269.129 343.856 268.913 343.866 268.698 343.893Z" fill="#68CDB5"/>
<path d="M242.858 320.286C236.784 323.824 234.989 326.694 232.755 336.379C230.522 326.694 228.727 323.856 222.663 320.286C228.727 316.738 230.522 313.868 232.755 304.183C234.989 313.868 236.784 316.738 242.858 320.286Z" fill="#FF945A"/>
<path d="M646.263 398.903C645.603 398.911 644.949 398.79 644.337 398.545C643.725 398.3 643.166 397.937 642.695 397.477C642.223 397.017 641.846 396.468 641.586 395.862C641.326 395.256 641.188 394.605 641.18 393.946C641.181 393.293 641.312 392.647 641.566 392.046C632.861 406.062 619.048 416.144 603.046 420.162C601.261 420.6 599.466 420.965 597.65 421.205C596.941 419.629 596.22 418.137 595.563 416.812C591.148 408.317 586.504 402.201 580.952 397.578C573.782 391.566 564.922 388.362 556.688 388.811C547.473 389.302 537.694 395.835 537.902 405.509C538.059 411.594 542.077 416.989 549.695 421.55C562.105 428.868 576.369 432.435 590.762 431.819C591.456 434.63 591.402 437.573 590.606 440.356C589.197 444.812 584.991 448.903 579.376 451.272C577.968 451.855 576.525 452.35 575.056 452.754C566.091 440.533 551.814 430.567 534.01 424.294C527.612 422.04 519.18 419.671 510.685 421.372C503.88 422.75 498.537 426.716 496.408 431.996C494.195 437.455 495.583 444.29 499.925 449.373C503.765 453.85 508.942 456.334 513.033 458.004C526.318 463.399 542.087 465.549 561.259 464.579C564.139 464.443 567.228 464.203 570.359 463.775L570.829 464.631C573.375 469.442 574.137 473.439 573.135 476.476C570.944 483.061 560.612 485.232 556.239 485.869C533.228 489.049 509.869 483.359 490.897 469.953C491.375 470.406 491.755 470.951 492.013 471.556C492.272 472.161 492.403 472.813 492.4 473.47C492.393 474.13 492.256 474.782 491.997 475.388C491.738 475.995 491.361 476.544 490.889 477.005C490.416 477.465 489.858 477.828 489.245 478.072C488.632 478.316 487.977 478.437 487.318 478.428C486.458 478.425 485.612 478.21 484.855 477.801C495.068 485.152 506.575 490.512 518.773 493.602C526.961 495.674 535.374 496.726 543.82 496.733C548.436 496.738 553.046 496.418 557.617 495.773C570.839 493.884 579.679 488.186 582.497 479.732C584.26 474.43 583.54 468.346 580.305 461.656C581.286 461.322 582.246 460.968 583.206 460.561C591.555 457.023 597.702 450.803 600.009 443.518C601.238 439.439 601.445 435.121 600.614 430.942C602.2 430.661 603.745 430.316 605.373 429.899C623.88 425.371 639.866 413.752 649.884 397.546C648.916 398.507 647.606 399.044 646.242 399.039L646.263 398.903ZM554.736 413.086C552.169 411.552 547.869 408.525 547.796 405.3C547.692 401.877 552.764 398.955 557.189 398.726H558.232C564.264 398.946 570.032 401.252 574.555 405.248C579.032 409.005 582.904 414.171 586.703 421.466C586.807 421.665 586.901 421.842 586.995 422.04C575.655 421.915 564.542 418.855 554.736 413.159V413.086ZM560.747 454.695C543.006 455.593 528.635 453.652 516.738 448.83C512.198 446.993 509.349 445.167 507.428 442.944C505.508 440.721 504.725 437.778 505.571 435.722C506.416 433.666 509.192 431.788 512.636 431.099C513.983 430.833 515.354 430.703 516.727 430.713C521.632 430.713 526.663 432.216 530.712 433.645C544.54 438.519 555.895 445.741 563.732 454.518C562.689 454.602 561.739 454.654 560.758 454.695H560.747Z" fill="#004E60"/>
<path d="M646.263 398.892C647.624 398.892 648.931 398.361 649.905 397.41C650.363 396.957 650.726 396.418 650.973 395.823C651.221 395.228 651.347 394.59 651.345 393.946C651.337 393.287 651.199 392.636 650.939 392.031C650.679 391.426 650.302 390.877 649.83 390.418C649.358 389.958 648.8 389.597 648.188 389.353C647.576 389.11 646.921 388.989 646.263 388.999C645.268 388.994 644.294 389.28 643.459 389.821C642.625 390.362 641.967 391.136 641.566 392.046C641.31 392.647 641.179 393.293 641.18 393.946C641.187 394.605 641.324 395.256 641.584 395.862C641.843 396.468 642.22 397.017 642.692 397.476C643.165 397.936 643.723 398.298 644.336 398.541C644.949 398.784 645.604 398.903 646.263 398.892Z" fill="#112231"/>
<path d="M492.421 473.366C492.419 472.708 492.284 472.056 492.026 471.45C491.768 470.845 491.391 470.297 490.918 469.839C490.584 469.521 490.209 469.251 489.802 469.035C489.794 469.04 489.785 469.042 489.776 469.042C489.766 469.042 489.757 469.04 489.749 469.035C489.013 468.646 488.193 468.442 487.36 468.44C486.027 468.423 484.743 468.936 483.788 469.865C482.833 470.795 482.286 472.065 482.267 473.397C482.274 474.285 482.52 475.155 482.979 475.915C483.438 476.676 484.093 477.298 484.876 477.718C485.631 478.131 486.478 478.346 487.339 478.344C488 478.352 488.656 478.23 489.269 477.984C489.883 477.738 490.442 477.373 490.914 476.911C491.386 476.448 491.762 475.897 492.021 475.289C492.28 474.68 492.416 474.027 492.421 473.366Z" fill="#112231"/>
<path d="M521.935 666.709H521.872" stroke="#FFA9DF" stroke-miterlimit="10"/>
<path d="M519.221 642.215C518.567 642.926 518.127 643.808 517.951 644.759C517.776 645.71 517.872 646.691 518.23 647.589C519.086 650.021 521.006 651.764 522.853 653.528C523.622 654.222 524.354 654.957 525.045 655.73C526.098 656.869 526.939 658.187 527.529 659.622C527.827 660.286 527.962 661.01 527.924 661.736C527.886 662.462 527.675 663.169 527.31 663.797C527.283 663.83 527.258 663.865 527.236 663.901C526.739 664.551 526.114 665.091 525.4 665.488C524.622 665.904 523.799 666.229 522.947 666.458C522.613 666.59 522.261 666.675 521.904 666.709C527.508 666.834 535.972 665.905 540.365 660.739C543.684 656.857 537.986 651.983 535.512 648.852C533.425 646.16 531.15 641.547 534.73 638.833H533.79C531.301 638.72 528.806 638.842 526.339 639.199C524.111 639.524 521.977 640.317 520.077 641.526C519.768 641.724 519.481 641.955 519.221 642.215Z" fill="#004E60"/>
<path d="M511.718 666.156C505.247 666.02 503.724 672.595 501.939 677.636L487.203 679.817C487.344 679.281 487.455 678.737 487.537 678.189C487.673 677.636 487.819 677.145 487.986 676.55C488.309 675.48 488.706 674.434 489.175 673.419C490.065 671.413 491.358 669.612 492.974 668.128C493.6 667.588 494.274 667.106 494.988 666.688C496.203 666.034 497.531 665.616 498.902 665.456C500.288 665.297 501.682 665.227 503.077 665.248C504.339 665.248 504.861 665.248 506.51 665.331C508.207 665.506 509.894 665.774 511.561 666.135L511.718 666.156Z" fill="#004E60"/>
<path d="M574.022 640.973L563.116 651.054C562.709 650.7 562.292 650.355 561.874 650.011C553.567 643.269 543.559 639.021 532.809 639.021C529.386 639.021 522.321 639.282 519.242 642.152C520.63 640.77 522.208 639.593 523.928 638.656C525.613 637.796 527.357 637.057 529.146 636.444C532.856 635.101 536.708 634.19 540.626 633.73C547.932 632.958 555.446 633.334 562.313 635.974C566.341 637.466 570.14 639.272 574.022 640.973Z" fill="#2EAFC0"/>
<path d="M519.274 642.152L519.2 642.225" stroke="#FFA9DF" stroke-miterlimit="10"/>
<path d="M522.916 666.542C522.624 666.615 522.237 666.667 521.945 666.709C518.324 667.199 514.64 666.542 511.008 666.02H510.705C506.061 665.342 501.073 664.694 496.512 666.02C498.612 665.256 500.769 664.656 502.962 664.225C508.649 662.962 514.369 662.044 520.161 661.261C522.467 660.958 524.774 660.708 527.08 660.416C527.236 660.416 527.612 660.343 527.758 660.322C528.656 663.599 526.245 665.749 522.916 666.542Z" fill="#2EAFC0"/>
<path d="M218.927 497.004C213.49 495.512 204.525 497.004 199.474 498.257L194.465 499.478C183.256 502.243 171.119 507.827 159.378 505.646C148.128 503.558 145.132 495.689 144.767 492.558C144.767 492.725 145.028 492.861 145.132 492.955C146.176 493.999 147.22 495.282 148.263 496.326C149.528 497.455 151.069 498.229 152.73 498.57C154.837 498.916 156.976 499.017 159.107 498.872C168.144 498.716 177.151 495.241 185.834 493.091L190.843 491.88C195.866 490.512 201.019 489.68 206.216 489.396C210.067 489.302 214.669 489.751 217.341 492.882C218.353 494.018 218.917 495.483 218.927 497.004Z" fill="#FFD7F0"/>
<path d="M214.889 490.711C218.484 491.653 221.762 493.537 224.386 496.169C226.452 498.353 227.657 501.212 227.777 504.216C228.017 510.864 223.206 516.238 218.656 520.486C215.191 523.721 211.058 526.946 206.978 530.38L198.973 523.074C201.709 521.339 204.302 519.388 206.727 517.24C208.984 515.257 211.043 513.058 212.874 510.676C214.529 508.645 215.866 506.376 216.84 503.944C218.395 499.676 219.094 493.665 214.889 490.711Z" fill="#FFA9DF"/>
<path d="M157.979 498.893C162.759 489 174.677 487.319 181.252 485.921C182.651 485.618 184.049 485.347 185.427 484.961C187.671 484.335 190.123 483.437 191.626 481.569C192.44 480.421 192.877 479.048 192.877 477.64C192.877 476.232 192.44 474.859 191.626 473.71C190.083 471.422 187.86 469.677 185.27 468.722C182.499 467.734 179.552 467.34 176.619 467.563C178.575 467.484 180.508 468.005 182.16 469.056C182.694 469.521 183.063 470.147 183.212 470.839C183.36 471.531 183.281 472.253 182.985 472.896C182.296 474.671 180.532 475.589 178.904 476.34C176.735 477.355 174.512 478.25 172.246 479.023C167.654 480.546 162.926 481.579 158.24 482.769C155.162 483.552 151.978 484.157 149.182 485.827C146.886 487.205 144.673 489.72 144.61 492.558C144.548 495.689 147.23 497.557 149.996 498.142C152.602 498.806 155.295 499.059 157.979 498.893Z" fill="#FFA9DF"/>
<path d="M144.277 469.515C144.548 472.249 146.834 474.222 149.119 475.443C155.736 478.97 163.229 476.487 170.054 475.078C174.375 474.18 178.602 473.627 182.964 472.896C183.26 472.252 183.339 471.529 183.189 470.837C183.038 470.144 182.666 469.519 182.129 469.056C180.482 468.004 178.551 467.483 176.598 467.563C173.659 467.647 170.743 468.096 167.915 468.899C162.999 470.089 158.199 471.915 153.304 473.126C151.457 473.596 149.422 474.253 147.522 473.731C145.352 473.147 144.579 471.279 144.193 469.244L144.277 469.515Z" fill="#FFD7F0"/>
<path d="M162.217 470.486C160.922 470.893 159.086 471.529 158.125 471.905C156.904 472.364 155.516 472.552 154.295 473.022C152.551 473.648 150.721 474 148.868 474.065C146.103 474.201 144.6 471.686 144.151 469.265C143.901 467.929 143.828 466.509 143.64 465.351L154.014 468.085L157.416 468.91C158.292 469.192 160.745 470.079 162.217 470.486Z" fill="#FFA9DF"/>
</svg>
