<svg width="828" height="984" viewBox="0 0 828 984" fill="none" xmlns="http://www.w3.org/2000/svg">
<rect width="828" height="984" fill="#0078D4"/>
<path fill-rule="evenodd" clip-rule="evenodd" d="M285.979 385.628C217.982 484.092 117.732 612.023 -63.4841 612.023C-87.3339 612.023 -106.668 592.873 -106.668 569.253C-106.668 545.633 -87.3339 526.483 -63.4841 526.483C69.3656 526.483 146.758 435.709 214.69 337.338C220.956 328.264 227.262 318.924 233.61 309.525C259.226 271.584 285.481 232.698 312.28 206.6C329.782 189.558 351.555 173.639 378.405 167.554C406.915 161.092 434.986 167.052 461.235 182.65C480.691 194.212 495.504 210.049 504.502 229.782C513.279 249.034 515.314 269.313 513.924 288.407C511.248 325.254 495.189 364.901 476.958 401.705C461.176 433.557 441.638 467.31 422.826 499.813C419.478 505.595 416.151 511.34 412.874 517.029C390.653 555.594 370.452 591.832 356.572 624.655C342.54 657.837 334.216 682.35 333.106 700.785C332.602 709.18 333.78 714.26 335.214 717.462C336.483 720.299 338.933 723.936 345.198 728.071C352.503 732.897 357.173 733.559 360.471 733.474C364.519 733.372 370.832 731.961 380.707 726.572C398.756 716.721 417.93 700.193 444.491 677.296C450.294 672.295 456.454 666.988 463.028 661.377C532.462 602.155 630.859 526.483 784.49 526.483C808.339 526.483 827.671 545.633 827.671 569.253C827.671 592.873 808.339 612.023 784.49 612.023C663.312 612.023 585.278 669.991 519.389 726.193C514.281 730.549 509.099 735.037 503.861 739.572C477.314 762.559 449.349 786.774 422.39 801.485C405.134 810.907 385.091 818.419 362.67 818.985C339.498 819.568 317.58 812.639 297.291 799.243C278.777 787.019 264.806 771.243 256.247 752.108C247.852 733.337 245.797 713.893 246.892 695.699C248.98 660.966 263.181 624.078 276.91 591.613C293.083 553.363 315.787 512.944 337.864 474.63C341.329 468.617 344.777 462.656 348.196 456.751C367.069 424.129 384.976 393.181 399.418 364.026C416.831 328.876 426.368 301.713 427.781 282.263C428.438 273.205 427.146 267.96 425.788 264.985C424.652 262.492 422.523 259.401 416.802 256.001C406.246 249.728 400.823 250.221 397.675 250.936C392.864 252.026 384.812 255.928 372.837 267.589C352.974 286.934 333.456 315.757 308.603 352.452C301.537 362.886 294.037 373.958 285.979 385.628Z" fill="white" fill-opacity="0.15"/>
<path d="M489.001 427.665H537.327C541.139 427.669 544.906 428.497 548.369 430.092C551.832 431.686 554.909 434.01 557.391 436.905C559.872 439.799 561.699 443.195 562.747 446.861C563.794 450.526 564.037 454.375 563.46 458.143L543.821 593.547C540.98 612.17 523.228 628.573 504.425 628.609L298.324 626.46C294.697 626.45 291.115 625.661 287.819 624.146C284.524 622.631 281.592 620.426 279.223 617.68C276.854 614.934 275.102 611.711 274.087 608.229C273.071 604.747 272.816 601.087 273.337 597.498L293.203 460.674C294.548 451.443 299.175 443.004 306.234 436.905C313.294 430.806 322.314 427.454 331.644 427.462L439.087 427.582L489.001 427.665Z" fill="#BBF6E2"/>
<path d="M282.172 620.646L301.273 644.857C303.75 647.992 306.902 650.528 310.494 652.277C314.086 654.025 318.026 654.941 322.022 654.957L526.535 655.697C535.666 655.731 544.502 652.47 551.423 646.514C558.344 640.559 562.885 632.307 564.212 623.273L584.352 485.983C585.211 480.102 583.77 474.116 580.328 469.27L557.646 437.371L559.281 440.26C561.275 443.777 562.694 447.589 563.484 451.554C563.831 453.3 563.876 455.093 563.615 456.854L543.977 592.592C542.542 602.349 537.632 611.261 530.15 617.688C522.669 624.114 513.118 627.624 503.255 627.57L301.5 626.484C299.901 626.476 298.305 626.352 296.725 626.114C292.533 625.493 288.488 624.118 284.786 622.055L282.172 620.646Z" fill="#2EAFC0"/>
<path d="M451.396 499.557C452.305 505.795 451.024 512.155 447.773 517.555C444.521 522.955 439.498 527.061 433.56 529.176L435.769 573.347L406.902 573.096L390.977 572.965L410.34 526.06C407.101 523.873 404.361 521.024 402.304 517.7C400.246 514.377 398.916 510.655 398.402 506.78C396.349 491.773 406.556 477.985 421.18 475.991C424.952 475.487 428.788 475.806 432.426 476.925C436.063 478.044 439.415 479.937 442.251 482.474C447.254 486.883 450.501 492.948 451.396 499.557Z" fill="#2EAFC0"/>
<path d="M451.396 499.557C452.305 505.795 451.025 512.155 447.773 517.555C444.521 522.955 439.499 527.061 433.56 529.176L435.769 573.347L406.902 573.097L423.699 532.435C420.458 530.249 417.718 527.401 415.66 524.077C413.602 520.753 412.273 517.03 411.761 513.155C409.708 498.149 419.903 484.36 434.527 482.366C437.1 482.009 439.712 482.041 442.275 482.462C447.272 486.878 450.51 492.947 451.396 499.557Z" fill="#112231"/>
<path d="M390.977 573.037L409.97 526.967L423.126 533.844L406.831 573.12L390.977 573.037Z" fill="#016B83"/>
<path d="M463.455 292.226C435.997 291.594 408.037 304.666 388.017 323.266C374.885 335.407 362.493 350.521 356.811 367.7C355.975 370.231 355.223 372.785 354.578 375.34C355.294 371.759 356.13 368.177 357.169 364.667C362.183 347.584 373.381 332.637 385.223 320.675C405.244 300.452 437.167 288.657 463.455 292.226Z" fill="#3FA79A"/>
<path d="M395.179 427.558C396.48 413.435 396.647 400.983 399.202 386.968C404.526 357.815 424.642 338.021 455.085 339.43C467.477 340.015 480.048 345.495 487.473 355.284C496.868 367.664 498.683 383.709 496.88 398.739C495.687 408.194 495.221 418.497 492.535 427.665L539.321 427.785C541.625 420.085 542.449 411.919 543.439 404.04C544.581 395.91 545.048 387.701 544.836 379.495C544.517 371.29 543.268 363.147 541.111 355.224C537.92 342.855 531.964 331.37 523.693 321.635C515.422 311.9 505.05 304.167 493.359 299.019C457.759 282.747 415.486 297.825 388.052 323.302C374.92 335.443 362.54 350.556 356.845 367.736C352.225 381.703 350.685 396.148 349.468 410.713C349.002 416.336 348.584 421.971 348.047 427.606L395.179 427.558Z" fill="#2EB6BD"/>
<path d="M349.421 410.617L395.419 424.908L395.18 427.558L348 427.51L349.421 410.617Z" fill="#112231"/>
<path d="M494.493 418.891L517.904 427.761L492.535 427.701C492.535 427.701 494.111 421.04 494.493 418.891Z" fill="#112231"/>
<path d="M524.258 427.761L541.747 416.802L539.324 427.797L524.258 427.761Z" fill="#112231"/>
<path d="M83.591 563.427L104.781 552.873L108.852 568.703L120.802 552.873L136.012 563.988L125.422 578.146H141.993L137.922 598.967H121.352L126.783 613.674L107.229 624.502L102.334 609.795L91.1956 624.502L73.8136 613.961L85.7637 599.241L68.6562 599.516L72.7272 578.421L90.1092 578.696L83.591 563.427Z" fill="white"/>
<path d="M180.829 563.427L202.008 552.873L206.091 568.703L218.041 552.873L233.25 563.988L222.661 578.146H239.231L235.148 598.967H218.578L224.01 613.674L204.455 624.502L199.572 609.795L188.434 624.502L171.052 613.961L183.002 599.241L165.883 599.516L169.966 578.421L187.348 578.696L180.829 563.427Z" fill="white"/>
<path d="M296.379 564.919L311.314 560.191L311.242 576.021L327.621 562.245L342.102 575.58L328.505 588.688L345.6 590.311L338.294 610.487L321.831 608.66L324.458 622.664L303.745 629.994L300.641 613.686L287.043 628L285.193 615.597L291.735 600.304L277.481 595.099L275.117 585.739L292.499 586.014L296.379 564.919Z" fill="#20303E"/>
<path d="M277.739 563.427L298.93 552.873L303.001 568.703L314.951 552.873L330.172 563.988L319.571 578.146H336.141L332.07 598.967H315.5L320.932 613.674L301.377 624.502L296.482 609.795L285.344 624.502L267.962 613.961L279.912 599.241L262.805 599.516L266.876 578.421L284.258 578.696L277.739 563.427Z" fill="white"/>
<path d="M647.973 469.031C642.075 482.688 624.801 516.891 577.537 513.537C574.454 513.319 571.404 512.766 568.441 511.889C553.685 507.568 542.558 495.629 537.127 481.686C533.789 473.322 532.694 464.231 533.951 455.314C538.523 425.469 565.325 395.898 602.835 397.712C640.655 399.563 659.529 442.23 647.973 469.031Z" fill="#12B76A"/>
<path d="M568.462 511.913L565.812 529.594C547.32 522.299 537.16 501.646 537.16 481.71C542.532 495.653 553.706 507.592 568.462 511.913Z" fill="#20303E"/>
<path d="M580.091 489.338L560.035 444.868L566.577 439.054L583.088 473.257L620.001 420.478L628.907 422.365L580.091 489.338Z" fill="#F7F8F9"/>
<path d="M202.555 496.585C205.415 496.587 208.212 495.741 210.591 494.153C212.97 492.565 214.825 490.308 215.921 487.665C217.017 485.023 217.304 482.115 216.746 479.31C216.189 476.504 214.812 473.927 212.789 471.905C210.767 469.882 208.19 468.505 205.384 467.947C202.579 467.39 199.671 467.677 197.029 468.773C194.386 469.869 192.129 471.724 190.541 474.103C188.953 476.482 188.107 479.279 188.109 482.139C188.109 485.97 189.631 489.645 192.34 492.354C195.049 495.063 198.724 496.585 202.555 496.585Z" fill="#F5AB71"/>
<path d="M594.466 692.407C598.091 692.409 601.636 691.336 604.651 689.324C607.666 687.311 610.017 684.449 611.405 681.1C612.794 677.751 613.158 674.066 612.451 670.51C611.744 666.954 609.999 663.688 607.435 661.124C604.872 658.56 601.606 656.815 598.05 656.108C594.494 655.402 590.808 655.765 587.459 657.154C584.11 658.542 581.248 660.893 579.236 663.908C577.223 666.924 576.15 670.468 576.152 674.094C576.152 678.951 578.082 683.609 581.516 687.043C584.951 690.478 589.609 692.407 594.466 692.407Z" fill="#5ED4C6"/>
<path d="M246.464 306.755L229.011 339.311L197.625 345.113L220.57 365.169L207.235 397.629L240.662 374.23L274.4 392.853L256.946 357.946L282.541 343.955L253.233 340.242L246.464 306.755Z" fill="url(#paint0_linear_691_2696)"/>
<defs>
<linearGradient id="paint0_linear_691_2696" x1="240.083" y1="306.755" x2="240.083" y2="397.629" gradientUnits="userSpaceOnUse">
<stop stop-color="#D1FADF"/>
<stop offset="1" stop-color="#5ED4C6"/>
</linearGradient>
</defs>
</svg>
